<svg aria-hidden="true" style="position: absolute; width: 0; height: 0; overflow: hidden;" version="1.1" xmlns="http://www.w3.org/2000/svg" xmlns:xlink="http://www.w3.org/1999/xlink">
<defs>
<symbol id="icon-shadow" viewBox="0 0 32 32">
<path fill="#371a45" style="fill: var(--color1, #371a45)" opacity="0.2" d="M14.182 29.302c3.505 0 6.346-0.324 6.346-0.724s-2.841-0.724-6.346-0.724c-3.505 0-6.346 0.324-6.346 0.724s2.841 0.724 6.346 0.724z"></path>
</symbol>
<symbol id="icon-space-man-ice-with-shadow" viewBox="0 0 32 32">
<path fill="#371a45" style="fill: var(--color1, #371a45)" opacity="0.2" d="M14.182 29.302c3.505 0 6.346-0.324 6.346-0.724s-2.841-0.724-6.346-0.724c-3.505 0-6.346 0.324-6.346 0.724s2.841 0.724 6.346 0.724z"></path>
<path fill="#50c9ff" style="fill: var(--color2, #50c9ff)" d="M18.684 18.607c0.322 0 0.583-0.261 0.583-0.583s-0.261-0.583-0.583-0.583c-0.322 0-0.583 0.261-0.583 0.583s0.261 0.583 0.583 0.583z"></path>
<path fill="#fff" style="fill: var(--color3, #fff)" d="M13.313 12.734c-0.45-0.056-1.111-0.119-1.402-0.103l0.372 0.539-0.528-0.5c-0.152 0.12-0.418 0.623-0.599 1.029 1.248-0.12 2.313-0.346 2.716-0.439-0.284-0.201-0.494-0.447-0.558-0.527z"></path>
<path fill="#fff" style="fill: var(--color3, #fff)" d="M10.698 16.456c0.151 0.006 0.289 0.012 0.417 0.018 0.21-1.727-0.124-2.446-0.212-2.6-0.564 0.041-1.162 0.029-1.741 0.018-1.073-0.022-2.086-0.042-2.526 0.302-0.377 0.295-0.598 0.626-0.622 0.933-0.013 0.168 0.034 0.316 0.137 0.426 0.118 0.126 0.514 0.149 0.863 0.169 0.449 0.026 0.837 0.048 0.865 0.279 0.011 0.089 0.007 0.21 0.002 0.351-0.009 0.275-0.021 0.652 0.102 0.771 0.029 0.028 0.064 0.039 0.111 0.036 0.255-0.017 0.521-0.333 0.697-0.542 0.13-0.155 0.192-0.225 0.263-0.218 0.018 0.002 0.163 0.006 0.346 0.012 0.508 0.016 0.934 0.032 1.29 0.046 0.002 0 0.005 0 0.007 0z"></path>
<path fill="#fff" style="fill: var(--color3, #fff)" d="M11.646 18.142c0.277-0.238 0.54-0.463 0.588-0.521 0.004-0.020 0.008-0.049 0.015-0.085 0.057-0.333 0.115-0.655 0.155-0.807-0.167-0.038-0.721-0.077-1.654-0.117-0.090 0.257-0.471 1.373-0.421 1.738 0.043 0.315 0.375 0.469 0.489 0.513 0.296-0.262 0.585-0.511 0.829-0.72z"></path>
<path fill="#fff" style="fill: var(--color3, #fff)" d="M24.721 15.915c-0.493-0.133-0.532-0.696-0.531-0.893-0.222-0.054-0.42-0.179-0.435-0.188-0.036-0.023-0.046-0.070-0.023-0.106s0.070-0.046 0.106-0.023c0.006 0.004 0.555 0.345 0.748 0.101 0.167-0.212 0.026-0.643-0.054-0.817-0.15-0.085-0.522-0.255-0.735-0.18-0.229 0.081-0.575 0.63-0.69 0.834-0.009 0.015-0.022 0.027-0.038 0.034l-1.269 0.506c-0.019 0.293-0.066 1.952 1.159 2.668 0.309-0.201 0.61-0.473 0.854-0.835 0.011-0.016 0.027-0.028 0.046-0.032 0.011-0.003 1.107-0.261 1.529-0.824 0.047-0.063 0.087-0.133 0.121-0.207-0.076 0.015-0.178 0.028-0.3 0.028-0.139 0-0.305-0.017-0.49-0.066z"></path>
<path fill="#fff" style="fill: var(--color3, #fff)" d="M24.696 13.985c0.075 0.187 0.224 0.645 0.010 0.916-0.085 0.108-0.204 0.146-0.328 0.146-0.011 0-0.023-0.001-0.034-0.001 0.003 0.181 0.049 0.623 0.417 0.722 0.41 0.11 0.715 0.043 0.815 0.014 0.167-0.551 0.041-1.257-0.188-1.585-0.2-0.286-0.538-0.247-0.692-0.212z"></path>
<path fill="#fff" style="fill: var(--color3, #fff)" d="M14.628 22.946c-0.132 0.064-0.385 0.279-0.458 1.001-0.014 0.141-0.031 0.285-0.048 0.425-0.112 0.941-0.217 1.83 0.428 2.124 0.327 0.149 0.663 0.134 0.946-0.043 0.291-0.182 0.481-0.514 0.503-0.874-1.263-0.798-1.368-2.231-1.372-2.633z"></path>
<path fill="#261c1b" style="fill: var(--color4, #261c1b)" opacity="0.25" d="M23.748 14.624c0 0 0.132-0.115 0.221-0.095s0.349 0.115 0.491 0.063c0.142-0.053 0.197-0.168 0.197-0.168s0.052 0.211 0 0.342c-0.052 0.132-0.131 0.194-0.279 0.181s-0.346-0.033-0.379-0.072c-0.033-0.040-0.25-0.25-0.25-0.25z"></path>
<path fill="#fff" style="fill: var(--color3, #fff)" d="M14.767 19.406c0.454 0.096 1.043 0.208 1.732 0.323 0.404 0.067 0.768 0.123 1.088 0.169 0.046-0.389 0.106-0.919 0.112-1.029-0.052-0.067-0.335-0.276-0.544-0.429-0.315-0.232-0.51-0.378-0.562-0.454-0.102-0.15 0.122-1.138 0.28-1.768-0.473-0.094-0.931-0.175-1.322-0.239-0.112 0.42-0.715 2.708-0.784 3.427z"></path>
<path fill="#fff" style="fill: var(--color3, #fff)" d="M19.23 20.036c0.13-0.252 0.573-2.517 0.395-2.995-0.049-0.131-0.747-0.414-2.553-0.783-0.016-0.003-0.032-0.006-0.048-0.010-0.185 0.741-0.345 1.545-0.301 1.655 0.038 0.055 0.308 0.253 0.524 0.413 0.516 0.38 0.607 0.46 0.607 0.538 0 0.088-0.085 0.815-0.114 1.065 0.869 0.119 1.388 0.152 1.49 0.117zM18.684 17.365c0.363 0 0.659 0.296 0.659 0.659s-0.296 0.659-0.659 0.659-0.659-0.296-0.659-0.659c0-0.363 0.296-0.659 0.659-0.659z"></path>
<path fill="#fff" style="fill: var(--color3, #fff)" d="M21.648 15.168l-1.963-1.382c-0.169 0.072-0.84 0.336-1.779 0.438-0.98 0.106-2.442 0.045-3.856-0.848-0.215 0.052-1.478 0.349-2.979 0.485 0.13 0.263 0.392 1.020 0.198 2.621 0.951 0.048 1.191 0.090 1.263 0.136 0.69 0.062 1.129 0.111 1.41 0.149 0.041-0.315 0.164-1.018 0.438-1.079 0.161-0.036 1.505 0.171 2.714 0.418 1.684 0.343 2.584 0.64 2.674 0.881 0.060 0.16 0.059 0.497 0.024 0.894l0.363 0.147c-0.072-0.095-0.119-0.208-0.124-0.345-0.013-0.427-0-1.908-0-1.923 0-0.042 0.035-0.076 0.077-0.076 0 0 0 0 0.001 0 0.042 0 0.076 0.035 0.076 0.077-0 0.015-0.013 1.494-0 1.917 0.009 0.294 0.294 0.459 0.561 0.55 0.143 0.039 0.306 0.077 0.463 0.102 0.001 0 0.003 0 0.003 0 0.002 0 0.003 0.001 0.005 0.001 0.122 0.019 0.239 0.028 0.339 0.023 0.282-0.016 0.768-0.128 1.257-0.41-1.235-0.784-1.184-2.476-1.165-2.774z"></path>
<path fill="#fff" style="fill: var(--color3, #fff)" d="M14.413 15.837c-0.123 0.027-0.259 0.5-0.319 0.951 0.324 0.050 0.348 0.078 0.36 0.093s0.021 0.040 0.019 0.060c-0.007 0.075-0.244 1.021-0.292 1.21-0.005 0.020-0.018 0.037-0.035 0.047-0.012 0.007-0.025 0.010-0.039 0.010-0.007 0-0.013-0.001-0.020-0.003l-0.34-0.091c-0.078 0.285-0.186 0.864 0.024 1.023 0.058 0.044 0.359 0.128 0.846 0.235 0.079-0.754 0.66-2.957 0.783-3.419-0.54-0.085-0.922-0.13-0.987-0.117z"></path>
<path fill="#fff" style="fill: var(--color3, #fff)" d="M14 16.929c-0.001-0-0.002-0-0.003-0.001-0.355-0.048-0.917-0.107-1.448-0.155-0.044 0.171-0.119 0.61-0.15 0.789-0.002 0.011-0.004 0.021-0.005 0.031l1.658 0.446c0.093-0.371 0.221-0.889 0.258-1.059-0.059-0.014-0.167-0.031-0.308-0.051-0.001-0-0.001-0-0.002-0z"></path>
<path fill="#fff" style="fill: var(--color3, #fff)" d="M12.016 22.363c-0.002 0-0.004 0-0.006 0-0.294 0.649-1.398 0.846-1.802 0.897 0.437 0.507 0.545 0.67 0.57 0.713 0.045 0.052 0.103 0.104 0.162 0.147 0.063 0.046 0.132 0.084 0.206 0.111 0.074 0.029 0.153 0.040 0.233 0.040 0.081 0.002 0.16-0.022 0.238-0.049-0.072 0.039-0.149 0.076-0.234 0.087-0.084 0.013-0.172 0.014-0.257-0.004-0.085-0.017-0.168-0.047-0.245-0.087-0.052-0.027-0.1-0.056-0.147-0.090-0.114 0.179-0.395 0.694-0.168 1.096 0.348 0.618 1.302 0.181 1.489 0.088 0.515-0.258 1.713-1.238 1.676-1.823-0.033-0.528-0.507-1.040-0.616-1.151-0.133 0.006-0.62 0.025-1.099 0.025z"></path>
<path fill="#fff" style="fill: var(--color3, #fff)" d="M19.776 18.039c-0.091 0.863-0.316 1.923-0.424 2.090-0.026 0.040-0.075 0.053-0.114 0.060-0.037 0.007-0.090 0.010-0.156 0.010-0.28 0-0.806-0.055-1.423-0.14-0.002 0-0.003 0.001-0.005 0.001-0.003 0-0.006-0-0.009-0.001-0.007-0.001-0.013-0.003-0.018-0.005-1.572-0.217-3.717-0.621-3.948-0.795-0.309-0.234-0.148-0.939-0.079-1.185l-1.264-0.34c-0.063 0.067-0.214 0.2-0.59 0.523-0.798 0.685-2.283 1.961-2.499 2.5-0.279 0.698-0.078 1.321 0.717 2.222 0.043 0.049 0.084 0.095 0.123 0.14 0.226-0.023 1.413-0.172 1.753-0.757-0.219-0.002-0.426-0.010-0.586-0.026-0.042-0.004-0.073-0.042-0.068-0.084s0.042-0.074 0.084-0.069c0.556 0.055 1.749 0.005 1.864 0l1.317-0.405c-0.228-0.082-0.447-0.187-0.642-0.329 0.258 0.11 0.524 0.192 0.793 0.255 0.134 0.031 0.27 0.058 0.405 0.078 0.068 0.008 0.136 0.019 0.204 0.028l0.205 0.017c0.068 0.009 0.137 0.008 0.206 0.011 0.069 0.002 0.137 0.006 0.206 0.003l0.206-0.004c0.035 0.001 0.069-0.005 0.103-0.007l0.103-0.008c0.138-0.006 0.274-0.030 0.413-0.047 0.070-0.005 0.137-0.024 0.206-0.035 0.069-0.013 0.138-0.024 0.208-0.035-0.065 0.026-0.131 0.052-0.197 0.076s-0.132 0.051-0.201 0.067c-0.137 0.034-0.273 0.075-0.414 0.092-0.28 0.052-0.566 0.055-0.85 0.039-0.26-0.017-0.518-0.066-0.767-0.14l0.144 0.991c0 0 0 0 0 0 0.001 0.005 0.001 0.010 0.001 0.016-0.001 0.017-0.096 1.741 1.322 2.616 0.152 0.012 1.28 0.064 1.804-0.862 0.581-1.027 1.749-5.185 1.761-5.227 0.009-0.031 0.036-0.054 0.069-0.056 0.003-0 0.286-0.020 0.395-0.189 0.082-0.127 0.105-0.603 0.101-0.907l-0.456-0.185z"></path>
<path fill="#371a45" style="fill: var(--color1, #371a45)" opacity="0.2" d="M12.579 17.471l1.36 0.352c0 0 0.053-0.346 0.046-0.352s-1.29-0.23-1.29-0.23-0.085 0.067-0.115 0.23z"></path>
<path fill="#261c1b" style="fill: var(--color4, #261c1b)" opacity="0.25" d="M13.615 18.32l-1.412-0.382 0.173-0.202c0 0 1.263 0.318 1.274 0.335s-0.034 0.249-0.034 0.249z"></path>
<path fill="#371a45" style="fill: var(--color1, #371a45)" opacity="0.2" d="M19.584 19.041c0 0 0.262 0.025 0.351-0.113s0.118-0.844 0.118-0.844l-0.313-0.119-0.156 1.076z"></path>
<path fill="#371a45" style="fill: var(--color1, #371a45)" opacity="0.2" d="M13.573 19.244c0 0 0.288 0.4 1.049 0.612s3.837 0.667 4.246 0.667 0.528-0.049 0.538-0.069c0.010-0.020 0.056-0.36 0.056-0.36l-0.145-0.020c0 0-1.397 0.035-3.056-0.281s-2.688-0.548-2.688-0.548z"></path>
<path fill="#371a45" style="fill: var(--color1, #371a45)" opacity="0.2" d="M18.347 17.723c0 0 0.052 0.509 0.383 0.543s0.553-0.241 0.553-0.241-0.198 0.661-0.664 0.567c-0.467-0.094-0.592-0.439-0.489-0.669s0.217-0.2 0.217-0.2z"></path>
<path fill="#371a45" style="fill: var(--color1, #371a45)" opacity="0.2" d="M6.151 15.552c0.118 0.126 0.514 0.149 0.863 0.169 0.449 0.026 0.837 0.048 0.865 0.279 0.011 0.089 0.007 0.21 0.002 0.351-0.009 0.275-0.021 0.652 0.102 0.771 0.021 0.021 0.047 0.032 0.078 0.036 0 0 0 0 0 0 0.010 0.001 0.021 0.001 0.033 0 0.255-0.017 0.521-0.333 0.697-0.542 0.13-0.155 0.192-0.225 0.263-0.218 0.018 0.002 0.163 0.006 0.346 0.012 0.508 0.016 0.934 0.032 1.29 0.046 0.002-0 0.004 0 0.007 0 0.075 0.003 0.148 0.006 0.217 0.009 0.008-0.048 0.028-0.63 0.028-0.63s-1.688-0.013-1.879 0.030c-0.191 0.043-0.402 0.424-0.593 0.49s0-0.54-0.086-0.698c-0.086-0.158-1.027-0.23-1.633-0.316s-0.661-0.508-0.661-0.508c-0.045 0.099-0.071 0.197-0.079 0.293-0.013 0.169 0.035 0.316 0.138 0.426z"></path>
<path fill="#371a45" style="fill: var(--color1, #371a45)" opacity="0.2" d="M11.324 15.866c-0.011 0.19-0.029 0.394-0.055 0.616 0.951 0.048 1.191 0.090 1.263 0.136 0.69 0.062 1.129 0.111 1.41 0.149 0.028-0.217 0.095-0.618 0.224-0.867-0.075 0.014-0.251 0.040-0.467 0.040-0.268 0-2.101-0.064-2.375-0.074z"></path>
<path fill="#371a45" style="fill: var(--color1, #371a45)" opacity="0.2" d="M10.864 18.008c0.029 0.19 0.298 0.433 0.376 0.484 0.143-0.124 0.28-0.242 0.405-0.349 0.277-0.238 0.54-0.463 0.588-0.521 0.004-0.020 0.008-0.049 0.015-0.085 0.055-0.322 0.111-0.633 0.15-0.791-0.026-0.010-0.077-0.024-0.145-0.040-0.185-0.022-0.497-0.044-0.934-0.067-0.051 0.009-0.097 0.022-0.137 0.039 0 0-0.352 1.116-0.319 1.33z"></path>
<path fill="#371a45" style="fill: var(--color1, #371a45)" opacity="0.2" d="M17.82 19.212c-0.027 0.25-0.063 0.56-0.081 0.706 0.674 0.092 1.136 0.133 1.358 0.13 0.039-0.169 0.087-0.58 0.093-0.606 0.008-0.033-1.368-0.23-1.37-0.23z"></path>
<path fill="#371a45" style="fill: var(--color1, #371a45)" opacity="0.2" d="M17.438 19.133c-0.020-0.061-1.705-0.385-2.524-0.557-0.073 0.343-0.129 0.641-0.147 0.83 0.454 0.096 1.043 0.208 1.732 0.323 0.331 0.055 0.635 0.103 0.911 0.143 0.014-0.179 0.049-0.674 0.028-0.739z"></path>
<path fill="#371a45" style="fill: var(--color1, #371a45)" opacity="0.2" d="M14.508 17.14c0 0-0.043 0.011-0.085 0.026-0.074 0.312-0.208 0.848-0.243 0.985-0.005 0.020-0.018 0.037-0.035 0.047-0.012 0.007-0.025 0.011-0.039 0.011-0.007 0-0.013-0.001-0.020-0.003l-0.34-0.091c-0.078 0.285-0.186 0.864 0.024 1.023 0.058 0.044 0.359 0.128 0.846 0.236 0.021-0.197 0.076-0.492 0.147-0.829-0.165-0.036-0.271-0.061-0.286-0.071-0.079-0.054 0.030-1.333 0.030-1.333z"></path>
<path fill="#261c1b" style="fill: var(--color4, #261c1b)" opacity="0.25" d="M19.792 17.88l0.363 0.147c-0.072-0.095-0.119-0.208-0.124-0.345-0.003-0.1-0.005-0.259-0.006-0.443l-0.222-0.088c0.021 0.18 0.014 0.439-0.011 0.729z"></path>
<path fill="#371a45" style="fill: var(--color1, #371a45)" opacity="0.2" d="M20.653 17.519c-0.314-0.153-0.42-1.759-0.42-1.759l-0.052 0.433c-0.003 0.475-0.006 1.207 0.003 1.485 0.009 0.294 0.294 0.459 0.561 0.55 0.143 0.039 0.306 0.077 0.463 0.102 0.001 0 0.003 0 0.003 0 0.002 0 0.003 0.001 0.005 0.001 0.122 0.019 0.239 0.028 0.339 0.023 0.282-0.016 0.768-0.128 1.257-0.41-0.249-0.158-0.445-0.354-0.601-0.567-0.572 0.387-1.289 0.275-1.558 0.143z"></path>
<path fill="#371a45" style="fill: var(--color1, #371a45)" opacity="0.2" d="M23.732 16.381c-0.428-0.066-0.658 0.099-1.251 0.759-0.047 0.053-0.097 0.1-0.148 0.143 0.159 0.218 0.363 0.416 0.626 0.569 0.309-0.201 0.611-0.473 0.854-0.835 0.011-0.016 0.027-0.028 0.046-0.032 0.011-0.003 1.107-0.261 1.529-0.824 0.047-0.063 0.087-0.133 0.121-0.207-0.076 0.015-0.178 0.028-0.3 0.028-0.139 0-0.305-0.017-0.49-0.066-0 0-0.561 0.532-0.989 0.466z"></path>
<path fill="#261c1b" style="fill: var(--color4, #261c1b)" opacity="0.25" d="M25.22 15.193c-0.296 0.097-0.548-0.095-0.646-0.187-0.061 0.029-0.127 0.041-0.196 0.041-0.004 0-0.008-0-0.012-0-0.008 0.005-0.015 0.010-0.022 0.015 0.005 0.189 0.058 0.61 0.417 0.706 0.41 0.11 0.715 0.043 0.815 0.014 0.094-0.31 0.095-0.669 0.038-0.982-0.063 0.145-0.18 0.324-0.393 0.394z"></path>
<path fill="#371a45" style="fill: var(--color1, #371a45)" opacity="0.2" d="M11.618 23.944c-0.221-0.027-0.542-0.373-0.87-0.784-0.217 0.054-0.413 0.084-0.539 0.1 0.437 0.507 0.545 0.67 0.57 0.713 0.045 0.052 0.103 0.104 0.162 0.147 0.063 0.046 0.132 0.084 0.206 0.111 0.074 0.029 0.153 0.040 0.233 0.040 0.081 0.002 0.16-0.022 0.238-0.049-0.022 0.012-0.045 0.023-0.068 0.034 0.297-0.066 0.477-0.238 0.477-0.238s-0.013-0.026-0.408-0.074z"></path>
<path fill="#371a45" style="fill: var(--color1, #371a45)" opacity="0.2" d="M9.521 20.404c0 0-0.048 0.032-0.095 0.062-0.085 0.111-0.147 0.21-0.18 0.292-0.279 0.698-0.078 1.321 0.717 2.222 0.043 0.049 0.084 0.095 0.123 0.14 0.084-0.009 0.3-0.035 0.556-0.094-0.224-0.288-0.446-0.595-0.637-0.838-0.5-0.639-0.484-1.784-0.484-1.784z"></path>
<path fill="#371a45" style="fill: var(--color1, #371a45)" opacity="0.2" d="M13.383 23.557c-0.033 0.441-1.564 1.603-2.107 1.593s-0.685-0.514-0.685-0.514c-0.015-0.021-0.044-0.027-0.076-0.019-0.050 0.195-0.059 0.414 0.050 0.607 0.348 0.618 1.302 0.181 1.489 0.088 0.515-0.258 1.713-1.238 1.676-1.823-0.033-0.528-0.507-1.040-0.616-1.151-0.103 0.004-0.416 0.017-0.775 0.022 0.179 0.13 1.071 0.799 1.042 1.197z"></path>
<path fill="#371a45" style="fill: var(--color1, #371a45)" opacity="0.2" d="M16.345 24.772c-0.764-0.253-1.017-2.485-1.017-2.485s0.597-0.016 1.329-0.214c0.731-0.198 1.456-0.726 1.445-0.839s-1.095 0.326-2.527 0.281c-1.432-0.044-2.602-0.992-2.602-0.736s0.379 0.672 0.379 0.672-0.719 0.375-1.193 0.467c-0.474 0.091-0.991 0.218-0.991 0.218l0.023 0.095h0c0.013-0.030 0.043-0.050 0.078-0.046 0.556 0.055 1.749 0.005 1.864 0l1.317-0.405c-0.228-0.082-0.447-0.187-0.642-0.329 0.258 0.11 0.524 0.192 0.793 0.255 0.134 0.031 0.27 0.058 0.405 0.078 0.068 0.008 0.136 0.019 0.204 0.028l0.205 0.017c0.068 0.009 0.137 0.008 0.206 0.011 0.069 0.002 0.137 0.006 0.206 0.003l0.206-0.004c0.035 0.001 0.069-0.005 0.103-0.007l0.103-0.008c0.138-0.006 0.274-0.030 0.413-0.047 0.070-0.005 0.137-0.024 0.206-0.035 0.069-0.013 0.138-0.024 0.208-0.035-0.065 0.026-0.131 0.052-0.197 0.076s-0.132 0.051-0.201 0.067c-0.137 0.034-0.273 0.075-0.414 0.092-0.28 0.052-0.566 0.055-0.85 0.039-0.26-0.017-0.518-0.066-0.767-0.14l0.144 0.991c0 0 0 0 0 0 0.001 0.005 0.001 0.011 0.001 0.016-0.001 0.017-0.096 1.741 1.322 2.616 0.152 0.012 1.28 0.064 1.804-0.862 0.045-0.080 0.094-0.178 0.145-0.292-0.31 0.3-1.063 0.676-1.708 0.462z"></path>
<path fill="#371a45" style="fill: var(--color1, #371a45)" opacity="0.2" d="M14.736 25.875c-0.301-0.405-0.065-2.429-0.065-2.429l-0-0.002c-0.034-0.216-0.042-0.392-0.043-0.497-0.132 0.064-0.385 0.279-0.458 1.001-0.014 0.141-0.031 0.285-0.048 0.425-0.112 0.941-0.217 1.83 0.428 2.124 0.327 0.149 0.663 0.134 0.946-0.043 0.17-0.106 0.305-0.264 0.393-0.448-0.179 0.050-0.891 0.222-1.153-0.131z"></path>
<path fill="#371a45" style="fill: var(--color1, #371a45)" opacity="0.2" d="M11.63 13.62c0 0 0.067 0.004 0.16 0.008 0.728-0.093 1.352-0.211 1.758-0.296-0.062-0.056-0.228-0.141-0.308-0.168-0.077-0.026-0.619-0.014-0.959 0.004l0.002 0.002-0.002-0.002c-0.138 0.007-0.243 0.015-0.27 0.023-0.094 0.025-0.38 0.43-0.38 0.43z"></path>
<path fill="#371a45" style="fill: var(--color1, #371a45)" d="M14.995 26.811c-0.178 0-0.359-0.040-0.534-0.12-0.787-0.359-0.667-1.368-0.552-2.344 0.016-0.139 0.033-0.283 0.047-0.422 0.084-0.829 0.404-1.095 0.596-1.18l-0.108-0.741-1.049 0.323c0.198 0.231 0.519 0.674 0.549 1.149 0.045 0.723-1.237 1.749-1.794 2.028-0.631 0.316-1.428 0.435-1.771-0.174-0.284-0.504 0.035-1.098 0.172-1.313-0.074-0.103-0.267-0.351-0.748-0.895-0.619-0.702-1.139-1.483-0.755-2.443 0.217-0.542 1.382-1.573 2.558-2.583 0.259-0.222 0.504-0.433 0.571-0.503 0.003-0.018 0.007-0.041 0.012-0.068 0.050-0.293 0.101-0.578 0.14-0.749-0.313-0.050-1.297-0.101-2.934-0.153-0.17-0.005-0.266-0.009-0.316-0.011-0.030 0.029-0.081 0.090-0.124 0.14-0.199 0.237-0.501 0.594-0.846 0.618-0.107 0.007-0.202-0.026-0.274-0.095-0.191-0.185-0.178-0.582-0.167-0.932 0.004-0.122 0.008-0.237 0-0.31-0.068-0.065-0.441-0.086-0.666-0.099-0.427-0.024-0.83-0.047-1.007-0.236-0.143-0.153-0.212-0.362-0.194-0.589 0.029-0.368 0.279-0.753 0.704-1.085 0.5-0.391 1.502-0.37 2.662-0.347 0.62 0.012 1.262 0.025 1.854-0.027 1.638-0.145 2.995-0.487 3.008-0.49 0.037-0.009 0.076-0.003 0.108 0.017 2.624 1.678 5.471 0.409 5.499 0.396 0.044-0.020 0.096-0.016 0.136 0.013l1.973 1.389 1.2-0.478c0.114-0.198 0.47-0.779 0.78-0.889 0.303-0.108 0.726 0.094 0.881 0.178 0.249-0.070 0.698-0.083 0.957 0.288 0.326 0.467 0.487 1.562-0.003 2.215-0.418 0.557-1.363 0.83-1.6 0.891-0.716 1.027-1.874 1.356-2.393 1.386-0.347 0.020-0.851-0.119-1.12-0.203-0.003 0.269-0.024 0.713-0.135 0.885-0.118 0.183-0.334 0.249-0.462 0.273-0.176 0.623-1.202 4.21-1.756 5.187-0.518 0.915-1.518 0.984-1.889 0.976-0.051 0.393-0.271 0.748-0.595 0.951-0.188 0.117-0.398 0.176-0.615 0.176zM14.711 22.98c0 0-0.388 0.050-0.481 0.973-0.014 0.141-0.031 0.286-0.048 0.426-0.109 0.918-0.212 1.786 0.393 2.062 0.308 0.14 0.623 0.127 0.889-0.039 0.285-0.178 0.468-0.51 0.477-0.866 0.001-0.038 0.018-0.075 0.047-0.1s0.068-0.037 0.106-0.033c0.050 0.005 1.222 0.123 1.761-0.83 0.578-1.020 1.743-5.171 1.755-5.213 0.016-0.056 0.066-0.097 0.124-0.1 0.070-0.005 0.271-0.043 0.347-0.161 0.067-0.104 0.099-0.56 0.090-0.923-0.001-0.045 0.020-0.088 0.057-0.115s0.084-0.033 0.127-0.018c0.008 0.003 0.769 0.274 1.197 0.249 0.48-0.027 1.559-0.336 2.211-1.309 0.019-0.029 0.049-0.050 0.083-0.057 0.011-0.003 1.086-0.256 1.494-0.801 0.396-0.528 0.273-1.497-0.003-1.893-0.231-0.331-0.68-0.174-0.699-0.167-0.039 0.014-0.082 0.010-0.117-0.011-0.178-0.105-0.525-0.249-0.703-0.186s-0.491 0.51-0.657 0.807c-0.015 0.028-0.040 0.049-0.069 0.061l-1.313 0.523c-0.043 0.017-0.092 0.011-0.13-0.015l-1.972-1.388c-0.213 0.088-0.869 0.332-1.765 0.429-0.985 0.107-2.451 0.046-3.873-0.844-0.278 0.067-1.525 0.353-2.994 0.483-0.607 0.054-1.256 0.041-1.884 0.028-1.062-0.021-2.064-0.042-2.488 0.289-0.364 0.284-0.577 0.6-0.599 0.89-0.012 0.151 0.030 0.282 0.121 0.38 0.102 0.109 0.518 0.132 0.822 0.15 0.477 0.027 0.888 0.051 0.922 0.332 0.011 0.093 0.007 0.217 0.003 0.36-0.008 0.249-0.020 0.625 0.083 0.725 0.012 0.011 0.028 0.022 0.065 0.019 0.229-0.016 0.496-0.332 0.655-0.521 0.14-0.166 0.211-0.25 0.316-0.239 0.020 0.002 0.169 0.006 0.343 0.012 3.098 0.099 3.142 0.166 3.204 0.259 0.026 0.039 0.032 0.089 0.015 0.133-0.036 0.094-0.132 0.65-0.163 0.832-0.008 0.047-0.014 0.083-0.018 0.101-0.013 0.073-0.032 0.095-0.656 0.631-0.794 0.682-2.272 1.951-2.482 2.476-0.269 0.673-0.071 1.278 0.706 2.159 0.717 0.813 0.818 0.993 0.831 1.020 0.021 0.046 0.016 0.1-0.014 0.14-0.005 0.006-0.466 0.637-0.208 1.095 0.321 0.57 1.23 0.153 1.409 0.063 0.567-0.283 1.675-1.245 1.643-1.765-0.036-0.57-0.614-1.128-0.619-1.134-0.035-0.034-0.050-0.084-0.039-0.131s0.047-0.085 0.093-0.1l1.412-0.434c0.038-0.012 0.080-0.006 0.114 0.015s0.057 0.057 0.062 0.096l0.148 1.017c0.006 0.040-0.002 0.080-0.029 0.111s-0.062 0.048-0.102 0.046z"></path>
<path fill="#371a45" style="fill: var(--color1, #371a45)" d="M11.182 16.692c-0.006 0-0.012-0-0.018-0.001-0.075-0.010-0.128-0.078-0.119-0.154 0.255-1.989-0.208-2.653-0.213-2.66-0.044-0.061-0.032-0.147 0.029-0.192s0.145-0.033 0.191 0.026c0.022 0.029 0.539 0.737 0.266 2.86-0.009 0.069-0.068 0.12-0.136 0.12z"></path>
<path fill="#371a45" style="fill: var(--color1, #371a45)" d="M10.834 19.087c-0.013 0-0.026-0.002-0.039-0.006-0.025-0.007-0.608-0.187-0.679-0.703-0.062-0.455 0.398-1.747 0.45-1.893 0.026-0.071 0.105-0.108 0.176-0.083s0.108 0.105 0.083 0.176c-0.137 0.379-0.482 1.433-0.437 1.762 0.047 0.343 0.48 0.476 0.485 0.477 0.073 0.022 0.114 0.098 0.092 0.171-0.018 0.060-0.072 0.098-0.132 0.098z"></path>
<path fill="#371a45" style="fill: var(--color1, #371a45)" d="M11.032 13.925c-0.018 0-0.036-0.004-0.054-0.011-0.070-0.030-0.102-0.11-0.072-0.18 0.153-0.359 0.54-1.204 0.827-1.292 0.271-0.083 1.412 0.055 1.638 0.084 0.036 0.005 0.069 0.024 0.092 0.053 0.003 0.004 0.292 0.377 0.67 0.597 0.066 0.038 0.088 0.122 0.050 0.188s-0.122 0.088-0.188 0.049c-0.347-0.202-0.617-0.506-0.712-0.621-0.537-0.066-1.315-0.134-1.467-0.087-0.111 0.045-0.411 0.566-0.655 1.137-0.022 0.052-0.073 0.084-0.126 0.084z"></path>
<path fill="#371a45" style="fill: var(--color1, #371a45)" d="M11.912 12.527l0.37 0.642-0.578-0.464c-0.163-0.149 0.086-0.363 0.209-0.179z"></path>
<path fill="#371a45" style="fill: var(--color1, #371a45)" d="M14.107 18.27c-0.012 0-0.024-0.002-0.036-0.005l-1.801-0.484c-0.073-0.020-0.117-0.095-0.097-0.168s0.095-0.117 0.168-0.097l1.666 0.448c0.082-0.326 0.184-0.741 0.229-0.937-0.273-0.051-1.049-0.135-1.755-0.199-0.076-0.007-0.131-0.074-0.125-0.149s0.073-0.131 0.149-0.125c0.005 0 0.484 0.044 0.956 0.095 0.278 0.030 0.5 0.058 0.66 0.081 0.274 0.040 0.425 0.063 0.411 0.217-0.007 0.075-0.207 0.878-0.293 1.219-0.009 0.036-0.032 0.066-0.064 0.085-0.021 0.012-0.045 0.019-0.070 0.019z"></path>
<path fill="#371a45" style="fill: var(--color1, #371a45)" d="M19.065 20.261c-0.665 0-2.36-0.28-2.726-0.342-0.407-0.069-2.447-0.422-2.697-0.61-0.381-0.287-0.132-1.157-0.078-1.328 0.023-0.072 0.1-0.113 0.172-0.090s0.113 0.1 0.090 0.172c-0.106 0.34-0.185 0.901-0.018 1.027 0.122 0.083 1.158 0.322 2.679 0.576 1.525 0.255 2.488 0.35 2.701 0.317 0.059-0.148 0.187-0.682 0.294-1.359 0.122-0.775 0.155-1.372 0.087-1.56-0.064-0.102-0.668-0.373-2.53-0.751-1.278-0.26-2.457-0.43-2.613-0.415-0.092 0.044-0.227 0.506-0.28 0.971-0.009 0.075-0.077 0.129-0.152 0.121s-0.129-0.077-0.121-0.152c0.001-0.011 0.031-0.269 0.096-0.539 0.101-0.425 0.225-0.631 0.399-0.67 0.187-0.041 1.626 0.191 2.739 0.418 2.571 0.524 2.679 0.811 2.719 0.919 0.197 0.528-0.252 2.935-0.421 3.197-0.039 0.061-0.107 0.079-0.154 0.087-0.046 0.008-0.108 0.012-0.184 0.012z"></path>
<path fill="#371a45" style="fill: var(--color1, #371a45)" d="M20.308 18.31c-0.017 0-0.035-0.003-0.052-0.010l-0.568-0.23c-0.070-0.028-0.104-0.109-0.076-0.179s0.108-0.104 0.179-0.076l0.568 0.23c0.070 0.028 0.104 0.109 0.076 0.179-0.022 0.053-0.073 0.086-0.127 0.086z"></path>
<path fill="#371a45" style="fill: var(--color1, #371a45)" d="M14.686 19.604c-0.003 0-0.005-0-0.008-0-0.076-0.004-0.134-0.069-0.13-0.145 0.040-0.716 0.783-3.485 0.814-3.603 0.020-0.073 0.095-0.117 0.168-0.097s0.117 0.095 0.097 0.168c-0.008 0.028-0.767 2.859-0.805 3.547-0.004 0.073-0.065 0.13-0.137 0.13z"></path>
<path fill="#371a45" style="fill: var(--color1, #371a45)" d="M17.655 20.121c-0.005 0-0.011-0-0.016-0.001-0.075-0.009-0.129-0.077-0.12-0.153 0.052-0.441 0.108-0.933 0.119-1.078-0.077-0.078-0.339-0.271-0.518-0.402-0.358-0.263-0.521-0.387-0.576-0.468-0.041-0.060-0.098-0.143 0.096-1.055 0.090-0.425 0.194-0.836 0.195-0.84 0.019-0.074 0.094-0.118 0.167-0.099s0.118 0.093 0.099 0.167c-0.175 0.693-0.345 1.518-0.322 1.682 0.062 0.067 0.326 0.261 0.504 0.392 0.561 0.413 0.632 0.478 0.632 0.587 0 0.102-0.103 0.973-0.123 1.147-0.008 0.070-0.067 0.121-0.136 0.121z"></path>
<path fill="#371a45" style="fill: var(--color1, #371a45)" d="M18.684 18.745c-0.397 0-0.72-0.323-0.72-0.72s0.323-0.72 0.72-0.72c0.397 0 0.72 0.323 0.72 0.72s-0.323 0.72-0.72 0.72zM18.684 17.579c-0.246 0-0.445 0.2-0.445 0.445s0.2 0.445 0.445 0.445 0.445-0.2 0.445-0.445c0-0.245-0.2-0.445-0.445-0.445z"></path>
<path fill="#371a45" style="fill: var(--color1, #371a45)" d="M21.205 18.543c-0.004 0-0.008-0-0.012-0.001-0.049-0.004-1.199-0.114-1.222-0.858-0.013-0.428-0.001-1.865-0-1.926 0.001-0.076 0.062-0.136 0.139-0.136s0.137 0.063 0.136 0.139c-0 0.015-0.013 1.492-0 1.915 0.015 0.493 0.962 0.592 0.972 0.593 0.076 0.007 0.131 0.073 0.125 0.149-0.006 0.071-0.066 0.125-0.137 0.125z"></path>
<path fill="#371a45" style="fill: var(--color1, #371a45)" d="M22.96 18.079c-0.023 0-0.046-0.006-0.067-0.017-1.506-0.837-1.311-2.86-1.302-2.946 0.008-0.075 0.075-0.13 0.151-0.122s0.13 0.075 0.122 0.151c-0.002 0.019-0.183 1.929 1.163 2.677 0.066 0.037 0.090 0.12 0.053 0.187-0.025 0.045-0.072 0.071-0.12 0.071z"></path>
<path fill="#261c1b" style="fill: var(--color4, #261c1b)" d="M24.375 15.107c-0.233 0-0.491-0.117-0.654-0.222-0.064-0.041-0.082-0.126-0.041-0.19s0.126-0.082 0.19-0.041c0.107 0.068 0.531 0.286 0.667 0.114 0.153-0.194-0.003-0.634-0.070-0.774-0.033-0.068-0.004-0.15 0.064-0.183s0.15-0.004 0.183 0.064c0.034 0.071 0.325 0.7 0.038 1.063-0.097 0.123-0.232 0.168-0.378 0.168z"></path>
<path fill="#261c1b" style="fill: var(--color4, #261c1b)" d="M25.209 16.042c-0.144 0-0.315-0.017-0.505-0.068-0.635-0.171-0.576-0.989-0.573-1.024 0.006-0.076 0.073-0.132 0.148-0.126s0.132 0.072 0.126 0.148c-0 0.007-0.043 0.625 0.371 0.736 0.477 0.128 0.809 0.006 0.812 0.004 0.071-0.027 0.15 0.008 0.177 0.079s-0.007 0.15-0.078 0.177c-0.011 0.004-0.191 0.073-0.479 0.073z"></path>
<path fill="#371a45" style="fill: var(--color1, #371a45)" d="M10.055 23.337c-0.071 0-0.131-0.055-0.137-0.127-0.006-0.076 0.051-0.142 0.126-0.148 0.424-0.033 1.57-0.244 1.788-0.824 0.027-0.071 0.106-0.107 0.177-0.080s0.107 0.106 0.080 0.177c-0.323 0.862-1.955 0.996-2.024 1.002-0.004 0-0.007 0-0.011 0z"></path>
<path fill="#371a45" style="fill: var(--color1, #371a45)" d="M12.017 22.424c-0.284 0-0.565-0.007-0.77-0.027-0.076-0.008-0.131-0.075-0.123-0.15s0.075-0.13 0.15-0.123c0.577 0.058 1.852 0 1.865-0 0.075-0.004 0.14 0.055 0.143 0.131s-0.055 0.14-0.131 0.144c-0.035 0.002-0.59 0.027-1.135 0.027z"></path>
<path fill="#371a45" style="fill: var(--color1, #371a45)" d="M13.807 21.451c0.919 0.301 1.881 0.394 2.839 0.297 0.139-0.010 0.276-0.034 0.42-0.040-0.063 0.033-0.127 0.063-0.193 0.092-0.947 0.419-2.254 0.319-3.066-0.349z"></path>
<path fill="#371a45" style="fill: var(--color1, #371a45)" d="M16.078 25.676c-0.024 0-0.049-0.006-0.071-0.020-1.545-0.941-1.443-2.746-1.438-2.822s0.070-0.132 0.146-0.128c0.076 0.005 0.133 0.070 0.128 0.146-0.001 0.021-0.091 1.718 1.307 2.57 0.065 0.039 0.085 0.124 0.046 0.189-0.026 0.042-0.071 0.066-0.117 0.066z"></path>
<path fill="#371a45" style="fill: var(--color1, #371a45)" d="M10.816 23.924c0.177 0.247 0.5 0.408 0.802 0.298-0.033 0.018-0.075 0.049-0.11 0.061-0.249 0.116-0.544 0.048-0.772-0.089-0.047-0.028-0.089-0.055-0.132-0.093-0.158-0.151 0.092-0.36 0.213-0.177z"></path>
<path fill="#ff64b5" style="fill: var(--color5, #ff64b5)" d="M25.871 13.506c-0.005-0.025-0.008-0.112-0.017-0.508-0.018-0.784-0.073-3.169-0.23-3.35-0.069-0.073-0.298-0.125-0.573-0.155-0.006 0.923-0.024 2.866-0.083 2.983-0.025 0.049-0.079 0.082-0.16 0.098-0.040 0.008-0.087 0.011-0.139 0.011-0.174 0-0.39-0.042-0.467-0.111-0.040-0.036-0.085-0.076-0.047-1.603 0.015-0.595 0.037-1.188 0.046-1.401-0.185 0.011-0.333 0.035-0.398 0.072-0.080 0.077-0.259 0.871-0.399 2.015-0.146 1.192-0.148 1.933-0.076 2.036 0.045 0.014 0.087 0.011 0.128-0.008 0.114-0.055 0.193-0.227 0.214-0.289 0.010-0.031 0.040-0.052 0.073-0.052h1.020c0.001 0 0.003 0 0.004 0s0.003-0 0.005 0l0.331 0.039c0.030 0.004 0.055 0.025 0.064 0.054 0 0.002 0.048 0.156 0.111 0.265 0.019 0.032 0.145 0.012 0.234-0.027 0.022-0.010 0.048-0.008 0.069 0.004s0.035 0.034 0.038 0.058c0.041 0.39 0.132 0.66 0.243 0.723 0.021 0.012 0.053 0.023 0.106-0.001 0.072-0.033 0.118-0.193-0.069-0.77-0.013-0.041-0.022-0.069-0.026-0.085z"></path>
<path fill="#ff64b5" style="fill: var(--color5, #ff64b5)" d="M24.83 12.407c0.038-0.172 0.061-1.848 0.068-2.928-0.181-0.014-0.372-0.019-0.544-0.015-0.043 1.058-0.088 2.701-0.039 2.905 0.094 0.060 0.453 0.088 0.516 0.039z"></path>
<path fill="#e09251" style="fill: var(--color6, #e09251)" d="M24.309 13.398l-0.063 2.698c0.029 0.094 0.127 0.322 0.251 0.322 0.141 0 0.248-0.149 0.281-0.2l-0.091-2.82h-0.378z"></path>
<path fill="#261c1b" style="fill: var(--color4, #261c1b)" opacity="0.25" d="M24.513 9.463c0 0-0.115 2.583 0 2.691s0.385 0.094 0.385 0.094-0.043 0.162-0.058 0.185c-0.015 0.023-0.049 0.076-0.118 0.076s-0.262-0.012-0.326-0.033c-0.064-0.021-0.18-0.041-0.179-0.090s0.076-2.924 0.076-2.924 0.178-0.064 0.219 0z"></path>
<path fill="#261c1b" style="fill: var(--color4, #261c1b)" opacity="0.25" d="M24.309 13.398l-0.063 2.698c0.029 0.094 0.127 0.322 0.251 0.322 0.141 0 0.248-0.149 0.281-0.2l-0.003-0.092c-0.067 0.022-0.177 0.039-0.235-0.059-0.086-0.145-0.046-2.416-0.046-2.433s0.2-0.020 0.2-0.020l-0.007-0.216-0.378 0z"></path>
<path fill="#371a45" style="fill: var(--color1, #371a45)" opacity="0.2" d="M25.321 12.887c-0.158-0.105-1.132 0.079-1.383-0.138s-0.046-2.423-0.118-2.475c-0.072-0.053-0.449 2.073-0.461 2.094-0.019 0.033-0.035 0.072-0.049 0.114-0.048 0.647-0.034 1.041 0.017 1.114 0.045 0.014 0.087 0.011 0.128-0.008 0.114-0.055 0.193-0.227 0.214-0.289 0.010-0.031 0.040-0.052 0.072-0.052h1.020c0.001 0 0.003 0 0.004 0s0.003-0 0.005 0l0.331 0.039c0.030 0.004 0.055 0.025 0.064 0.054 0 0.002 0.048 0.156 0.111 0.265 0.019 0.032 0.145 0.012 0.234-0.027 0.016-0.007 0.035-0.008 0.051-0.003-0-0.209-0.124-0.608-0.242-0.687z"></path>
<path fill="#fff" style="fill: var(--color3, #fff)" opacity="0.4" d="M24.702 11.623c0.066 0.243 0.155 0.356 0.156 0.356 0.022-0.607 0.035-1.711 0.040-2.499-0.064-0.005-0.13-0.008-0.196-0.011-0 0.008-0.066 1.912 0 2.155z"></path>
<path fill="#fff" style="fill: var(--color3, #fff)" opacity="0.4" d="M25.479 9.97c0.026 0.079 0.086 2.317 0.198 2.666 0.064 0.2 0.132 0.328 0.179 0.401-0-0.013-0.001-0.026-0.001-0.040-0.018-0.784-0.073-3.169-0.23-3.35-0.069-0.073-0.298-0.125-0.573-0.155-0.001 0.108-0.001 0.231-0.003 0.362 0.106 0.012 0.409 0.050 0.431 0.115z"></path>
<path fill="#371a45" style="fill: var(--color1, #371a45)" d="M24.498 16.632c-0.312 0-0.446-0.438-0.46-0.488-0.004-0.013-0.006-0.027-0.005-0.041l0.065-2.785c0.002-0.075 0.063-0.134 0.137-0.134h0.527c0.074 0 0.135 0.059 0.137 0.133l0.094 2.916c0.001 0.025-0.005 0.049-0.017 0.070-0.018 0.034-0.188 0.328-0.478 0.328zM24.308 16.087c0.038 0.118 0.124 0.27 0.19 0.27 0.092 0 0.178-0.097 0.219-0.157l-0.089-2.742h-0.259l-0.061 2.628z"></path>
<path fill="#371a45" style="fill: var(--color1, #371a45)" d="M25.908 14.59c-0.063 0-0.115-0.020-0.153-0.041-0.16-0.091-0.27-0.334-0.329-0.723-0.135 0.024-0.266 0.001-0.334-0.114-0.043-0.074-0.079-0.161-0.102-0.225l-0.245-0.029c-0.075-0.009-0.129-0.077-0.12-0.153s0.077-0.129 0.153-0.12l0.331 0.040c0.054 0.006 0.099 0.044 0.115 0.097 0 0.001 0.042 0.136 0.098 0.238 0.033 0.003 0.11-0.014 0.166-0.038 0.040-0.017 0.086-0.015 0.124 0.007s0.063 0.061 0.067 0.104c0.046 0.436 0.143 0.637 0.213 0.677 0.007 0.004 0.019 0.011 0.050-0.004 0.001-0.001 0.106-0.057-0.101-0.696-0.015-0.048-0.023-0.072-0.027-0.091-0.007-0.029-0.008-0.083-0.018-0.519-0.018-0.759-0.071-3.062-0.217-3.313-0.179-0.171-1.482-0.21-1.731-0.098-0.084 0.133-0.251 0.907-0.381 1.968-0.134 1.092-0.148 1.817-0.093 1.985 0.020 0.002 0.038-0.001 0.057-0.010 0.093-0.045 0.165-0.203 0.183-0.254 0.019-0.055 0.071-0.093 0.13-0.093h0.494c0.076 0 0.137 0.062 0.137 0.137s-0.061 0.137-0.137 0.137h-0.402c-0.048 0.099-0.14 0.25-0.284 0.32-0.095 0.046-0.199 0.051-0.301 0.015-0.125-0.045-0.156-0.201-0.17-0.364-0.044-0.5 0.061-1.543 0.165-2.286 0.232-1.659 0.394-1.751 0.454-1.786 0.177-0.101 0.672-0.118 1.042-0.102 0.384 0.017 0.877 0.073 1.042 0.246 0.158 0.166 0.233 1.080 0.289 3.492 0.005 0.228 0.010 0.426 0.013 0.47 0.003 0.012 0.012 0.038 0.019 0.061 0.092 0.285 0.284 0.878-0.045 1.030-0.054 0.025-0.104 0.035-0.148 0.035z"></path>
<path fill="#371a45" style="fill: var(--color1, #371a45)" d="M24.673 12.646c-0.183 0-0.419-0.042-0.512-0.125-0.064-0.057-0.106-0.095-0.067-1.65 0.018-0.739 0.049-1.476 0.049-1.484 0.003-0.076 0.066-0.135 0.143-0.132 0.076 0.003 0.135 0.067 0.132 0.143-0.051 1.25-0.084 2.653-0.048 2.929 0.093 0.035 0.317 0.060 0.406 0.037 0.035-0.296 0.056-1.937 0.062-2.956 0-0.076 0.062-0.137 0.137-0.137 0 0 0 0 0.001 0 0.076 0 0.137 0.062 0.137 0.138 0 0.007-0.004 0.738-0.015 1.474-0.023 1.519-0.052 1.575-0.074 1.621-0.034 0.067-0.102 0.111-0.203 0.13-0.040 0.008-0.091 0.011-0.146 0.011z"></path>
<path fill="#fff" style="fill: var(--color3, #fff)" d="M22.036 11.534c-0.395 0.789-0.993 1.483-1.762 2.001-0.157 0.105-0.32 0.204-0.491 0.293-0.083 0.044-0.168 0.086-0.254 0.126-0.261 0.121-0.528 0.219-0.797 0.295-0.232 0.066-0.466 0.115-0.7 0.149-0.283 0.041-0.567 0.058-0.848 0.054-0.103-0.002-0.205-0.006-0.307-0.014-1.868-0.136-3.612-1.235-4.47-3.026-1.264-2.638-0.124-5.778 2.546-7.013 0.514-0.237 1.048-0.388 1.584-0.455 0.062-0.009 0.126-0.015 0.189-0.021 0.169-0.015 0.337-0.023 0.505-0.023 0.388 0.001 0.773 0.044 1.148 0.127s0.74 0.204 1.088 0.362c0.111 0.050 0.22 0.104 0.327 0.162 0.161 0.087 0.317 0.181 0.469 0.285 0.758 0.513 1.393 1.225 1.814 2.104 0.727 1.518 0.659 3.201-0.039 4.592z"></path>
<path fill="#371a45" style="fill: var(--color1, #371a45)" d="M17.264 14.468c-0.027 0-0.054-0-0.081-0.001-0.103-0.002-0.206-0.006-0.308-0.014-1.936-0.141-3.654-1.304-4.482-3.035-0.611-1.274-0.684-2.706-0.208-4.030 0.48-1.335 1.461-2.401 2.761-3.003 0.507-0.234 1.042-0.388 1.588-0.457 0.059-0.008 0.123-0.015 0.189-0.021 0.168-0.015 0.338-0.023 0.506-0.023 0.385 0.001 0.772 0.044 1.151 0.127 0.375 0.082 0.742 0.204 1.091 0.363 0.112 0.051 0.222 0.106 0.328 0.163 0.164 0.089 0.323 0.185 0.471 0.286 0.782 0.53 1.411 1.259 1.819 2.11 0.705 1.471 0.691 3.15-0.039 4.606-0.404 0.807-1.015 1.501-1.767 2.006-0.159 0.107-0.325 0.206-0.492 0.294-0.077 0.041-0.16 0.082-0.255 0.127-0.258 0.119-0.527 0.219-0.799 0.296-0.228 0.065-0.464 0.115-0.702 0.15-0.253 0.036-0.512 0.055-0.77 0.055zM17.216 3.917c-0.163 0-0.328 0.008-0.491 0.023-0.066 0.006-0.129 0.012-0.188 0.020-0.544 0.068-1.075 0.221-1.579 0.454-1.293 0.598-2.267 1.658-2.745 2.986-0.474 1.317-0.4 2.74 0.207 4.007 0.824 1.721 2.532 2.878 4.457 3.018 0.101 0.007 0.204 0.012 0.306 0.014 0.284 0.004 0.569-0.014 0.846-0.054 0.237-0.034 0.472-0.084 0.698-0.149 0.27-0.076 0.538-0.175 0.794-0.294 0.094-0.044 0.177-0.086 0.254-0.126 0.167-0.088 0.331-0.186 0.49-0.293 0.747-0.502 1.355-1.192 1.757-1.995 0.725-1.448 0.739-3.117 0.038-4.579-0.405-0.846-1.030-1.572-1.809-2.098-0.147-0.1-0.305-0.196-0.468-0.284-0.105-0.057-0.215-0.111-0.326-0.162-0.347-0.158-0.712-0.279-1.085-0.361-0.376-0.083-0.761-0.125-1.144-0.126-0.004-0-0.008-0-0.013-0z"></path>
<path fill="#371a45" style="fill: var(--color1, #371a45)" opacity="0.2" d="M12.406 11.413c0.857 1.791 2.602 2.891 4.47 3.026 0.102 0.007 0.204 0.012 0.307 0.014 0.282 0.004 0.566-0.013 0.848-0.054 0.234-0.034 0.469-0.083 0.7-0.149 0.269-0.076 0.535-0.174 0.797-0.295 0.086-0.041 0.171-0.082 0.254-0.126 0.17-0.090 0.334-0.188 0.491-0.294 0.769-0.517 1.367-1.211 1.762-2.001 0.217-0.433 0.374-0.896 0.464-1.372-0.395 0.745-0.972 1.399-1.706 1.892-0.157 0.106-0.32 0.204-0.491 0.294-0.083 0.044-0.168 0.086-0.254 0.126-0.262 0.121-0.528 0.219-0.797 0.295-0.232 0.066-0.466 0.115-0.7 0.149-0.283 0.041-0.567 0.058-0.848 0.054-0.103-0.002-0.205-0.006-0.307-0.014-1.868-0.136-3.612-1.235-4.47-3.026-0.501-1.045-0.624-2.168-0.425-3.221-0.749 1.412-0.841 3.144-0.095 4.701z"></path>
<path fill="#371a45" style="fill: var(--color1, #371a45)" d="M17.264 14.569c-0.027 0-0.055-0-0.082-0.001-0.105-0.002-0.21-0.007-0.314-0.014-1.972-0.143-3.722-1.328-4.566-3.092-0.622-1.299-0.698-2.758-0.212-4.108 0.49-1.361 1.489-2.447 2.813-3.060 0.517-0.239 1.061-0.395 1.618-0.465 0.060-0.008 0.125-0.015 0.193-0.021 0.17-0.016 0.343-0.023 0.515-0.023 0.393 0.001 0.787 0.045 1.172 0.129 0.382 0.083 0.755 0.208 1.111 0.37 0.114 0.052 0.227 0.108 0.334 0.166 0.167 0.090 0.329 0.188 0.48 0.291 0.797 0.54 1.438 1.283 1.853 2.15 0.718 1.499 0.704 3.21-0.039 4.694-0.412 0.823-1.035 1.53-1.801 2.045-0.162 0.109-0.331 0.21-0.501 0.3-0.078 0.041-0.163 0.084-0.259 0.129-0.264 0.122-0.538 0.223-0.814 0.301-0.232 0.066-0.472 0.117-0.715 0.152-0.257 0.037-0.521 0.056-0.785 0.056zM17.216 4.018c-0.16 0-0.321 0.007-0.481 0.022-0.065 0.005-0.126 0.012-0.184 0.020-0.534 0.067-1.056 0.217-1.551 0.446-1.268 0.586-2.224 1.626-2.693 2.928-0.465 1.291-0.393 2.687 0.203 3.929 0.809 1.689 2.485 2.823 4.374 2.961 0.099 0.007 0.201 0.012 0.301 0.013 0.278 0.004 0.558-0.014 0.83-0.053 0.233-0.034 0.463-0.083 0.685-0.146 0.265-0.075 0.528-0.172 0.78-0.288 0.092-0.043 0.174-0.084 0.249-0.124 0.164-0.086 0.325-0.183 0.481-0.287 0.733-0.493 1.329-1.169 1.723-1.956 0.711-1.419 0.725-3.056 0.038-4.49-0.397-0.83-1.011-1.542-1.774-2.058-0.145-0.099-0.299-0.192-0.46-0.279-0.103-0.056-0.211-0.109-0.32-0.159-0.341-0.155-0.699-0.274-1.065-0.354-0.369-0.081-0.747-0.123-1.123-0.124-0.004-0-0.008-0-0.012-0z"></path>
<path fill="#371a45" style="fill: var(--color1, #371a45)" d="M17.264 14.603c-0.028 0-0.055-0-0.082-0.001-0.105-0.002-0.211-0.007-0.316-0.014-1.984-0.144-3.745-1.336-4.594-3.111-0.626-1.307-0.702-2.775-0.213-4.134 0.493-1.369 1.498-2.463 2.831-3.079 0.52-0.24 1.067-0.397 1.628-0.468 0.060-0.008 0.126-0.015 0.194-0.021 0.167-0.015 0.337-0.023 0.505-0.023 0.004 0 0.009 0 0.013 0 0.395 0.001 0.792 0.045 1.179 0.13 0.384 0.084 0.76 0.209 1.118 0.372 0.115 0.052 0.228 0.108 0.336 0.167 0.168 0.091 0.331 0.189 0.483 0.293 0.802 0.543 1.447 1.291 1.864 2.163 0.723 1.509 0.708 3.23-0.040 4.724-0.415 0.828-1.041 1.539-1.812 2.058-0.163 0.11-0.333 0.211-0.504 0.302-0.078 0.042-0.164 0.084-0.261 0.13-0.265 0.123-0.541 0.225-0.82 0.303-0.233 0.066-0.475 0.118-0.72 0.153-0.259 0.038-0.524 0.056-0.79 0.056zM17.216 4.051c-0.158 0-0.319 0.007-0.478 0.022-0.065 0.005-0.125 0.012-0.182 0.020-0.531 0.067-1.049 0.216-1.541 0.443-1.26 0.583-2.21 1.616-2.675 2.909-0.462 1.283-0.39 2.669 0.201 3.903 0.803 1.678 2.469 2.805 4.346 2.942 0.099 0.007 0.199 0.011 0.299 0.013 0.277 0.004 0.554-0.014 0.824-0.053 0.231-0.033 0.46-0.082 0.681-0.145 0.264-0.074 0.524-0.171 0.775-0.287 0.092-0.043 0.173-0.083 0.247-0.123 0.163-0.086 0.323-0.182 0.478-0.285 0.728-0.49 1.32-1.162 1.712-1.943 0.706-1.41 0.72-3.036 0.037-4.461-0.395-0.825-1.004-1.532-1.763-2.045-0.144-0.098-0.298-0.191-0.457-0.277-0.102-0.055-0.209-0.108-0.318-0.158-0.339-0.154-0.695-0.273-1.058-0.352-0.367-0.081-0.742-0.122-1.116-0.123-0.004-0-0.008-0-0.012-0z"></path>
<path fill="#371a45" style="fill: var(--color1, #371a45)" d="M21.277 12.657c-3.047 2.263-7.366 0.867-7.736-2.85-0.252-2.529 2.064-4.714 4.542-4.786 1.803-0.052 3.59 0.674 4.45 3.412 0 0 0.191 1.269-0.126 2.129s-0.773 1.643-0.773 1.643l-0.357 0.452z"></path>
<path fill="#220f2d" style="fill: var(--color7, #220f2d)" d="M13.541 9.807c0.37 3.717 4.689 5.113 7.736 2.85l0.072-0.092c-3.422 0.722-6.934-1.197-7.379-4.949-0.34 0.663-0.507 1.41-0.43 2.191z"></path>
<path fill="#371a45" style="fill: var(--color1, #371a45)" d="M18.046 14.44c-1.263 0-2.477-0.406-3.41-1.155-1.040-0.835-1.664-2.015-1.803-3.412-0.128-1.284 0.309-2.568 1.231-3.616 1.023-1.164 2.525-1.884 4.018-1.928 0.829-0.024 1.582 0.1 2.236 0.369l0.014 0.006 0.013 0.009c0.802 0.543 1.447 1.291 1.865 2.164 0.723 1.509 0.708 3.23-0.040 4.724-0.415 0.828-1.041 1.539-1.812 2.058-0.163 0.11-0.333 0.211-0.504 0.302-0.078 0.042-0.164 0.084-0.261 0.13-0.265 0.123-0.541 0.225-0.82 0.303l-0.023 0.005c-0.236 0.028-0.471 0.042-0.704 0.042zM18.282 4.626c-0.064 0-0.128 0.001-0.192 0.003-1.411 0.041-2.833 0.724-3.802 1.826-0.866 0.985-1.278 2.189-1.158 3.389 0.131 1.315 0.716 2.424 1.693 3.208 1.041 0.835 2.454 1.218 3.88 1.050 0.26-0.074 0.516-0.169 0.763-0.283 0.092-0.043 0.173-0.083 0.247-0.123 0.163-0.086 0.323-0.182 0.478-0.285 0.728-0.49 1.32-1.162 1.712-1.943 0.706-1.41 0.72-3.036 0.037-4.461-0.393-0.82-0.998-1.524-1.75-2.037-0.561-0.229-1.202-0.344-1.907-0.344z"></path>
<path fill="#fff" style="fill: var(--color3, #fff)" d="M11.162 9.654c-0.024 1.040 0.578 1.929 1.346 1.985s1.409-0.742 1.433-1.782c0-0.006 0-0.013 0-0.020 0.016-1.031-0.584-1.909-1.346-1.965-0.593-0.043-1.111 0.423-1.327 1.117-0.063 0.204-0.101 0.428-0.106 0.665z"></path>
<path fill="#371a45" style="fill: var(--color1, #371a45)" opacity="0.2" d="M11.162 9.654c-0.024 1.040 0.578 1.929 1.346 1.985s1.409-0.742 1.433-1.782c0-0.006 0-0.013 0-0.020-0.087 0.101-0.221 0.196-0.398 0.148-0.31-0.085-0.854-0.794-0.854-0.794s-0.616-0.091-1.421-0.201c-0.063 0.204-0.101 0.429-0.106 0.665z"></path>
<path fill="#371a45" style="fill: var(--color1, #371a45)" d="M12.585 11.791c-0.029 0-0.059-0.001-0.088-0.003-0.844-0.062-1.51-1.020-1.485-2.137 0.015-0.644 0.251-1.22 0.648-1.581 0.277-0.252 0.604-0.371 0.945-0.346 0.844 0.061 1.51 1.020 1.485 2.137-0.015 0.644-0.251 1.22-0.648 1.581-0.253 0.23-0.548 0.35-0.857 0.35zM11.311 9.658c-0.022 0.96 0.52 1.782 1.208 1.832 0.258 0.019 0.508-0.074 0.723-0.27 0.332-0.301 0.537-0.812 0.55-1.367 0.022-0.96-0.52-1.782-1.208-1.832-0.258-0.019-0.508 0.074-0.723 0.27-0.332 0.301-0.537 0.812-0.55 1.367z"></path>
<path fill="#fff" style="fill: var(--color3, #fff)" d="M12.148 11.399c0.579-0.020 1.024-0.725 0.995-1.574s-0.522-1.521-1.101-1.501-1.024 0.725-0.995 1.574c0.029 0.849 0.522 1.521 1.101 1.501z"></path>
<path fill="#371a45" style="fill: var(--color1, #371a45)" opacity="0.2" d="M12.066 11.397c-0.58-0.047-1.036-0.772-1.020-1.62 0.002-0.092 0.009-0.182 0.021-0.269 0.141 0.588 0.518 1.027 0.969 1.063 0.509 0.040 0.944-0.447 1.060-1.133 0.034 0.161 0.051 0.332 0.048 0.508-0.016 0.848-0.499 1.498-1.078 1.451z"></path>
<path fill="#371a45" style="fill: var(--color1, #371a45)" d="M12.125 11.549c-0.024 0-0.048-0.001-0.072-0.003-0.667-0.054-1.175-0.832-1.157-1.772 0.011-0.547 0.209-1.048 0.53-1.339 0.209-0.19 0.455-0.279 0.71-0.258 0.667 0.054 1.175 0.832 1.157 1.772-0.011 0.547-0.209 1.048-0.53 1.339-0.19 0.172-0.409 0.261-0.638 0.261zM11.196 9.78c-0.014 0.756 0.39 1.429 0.882 1.468 0.171 0.014 0.338-0.049 0.485-0.182 0.261-0.237 0.423-0.656 0.432-1.123 0.014-0.756-0.39-1.429-0.882-1.468-0.17-0.014-0.338 0.049-0.485 0.182-0.262 0.237-0.423 0.656-0.432 1.123z"></path>
<path fill="#fff" style="fill: var(--color3, #fff)" opacity="0.5" d="M16.758 6.147c0 0 2.094-0.241 3.421 1.044 0.001 0.001 0.003 0.003 0.004 0.004 0.279 0.271 0.719 0.931 0.821 1.303 0.136 0.492 0.156 0.85 0.162 1.166 0.017 0.961-0.158 1.414-0.158 1.414 0.546-0.515 0.848-1.096 0.842-1.896-0.001-0.079-0.005-0.16-0.011-0.244-0.001-0.019-0.003-0.038-0.005-0.057 0-0 0-0.001-0-0.001-0.025-0.168-0.067-0.388-0.135-0.632-0.205-0.736-0.647-1.694-1.594-2.129-1.771-0.814-3.428-0.071-3.346 0.029z"></path>
<path fill="#fff" style="fill: var(--color3, #fff)" opacity="0.5" d="M15.932 8.891c0.115-0.439-0.102-0.876-0.484-0.976s-0.785 0.175-0.9 0.613c-0.115 0.439 0.102 0.876 0.484 0.976s0.785-0.175 0.9-0.613z"></path>
<path fill="#fff" style="fill: var(--color3, #fff)" opacity="0.5" d="M15.152 10.259c0.064-0.176-0.008-0.364-0.161-0.42s-0.329 0.042-0.393 0.218c-0.064 0.176 0.008 0.364 0.161 0.42s0.329-0.042 0.393-0.218z"></path>
<path fill="#fff" style="fill: var(--color3, #fff)" d="M23.779 14.701c-0.010 0-0.477 0.079-0.54-0.066s0.098-0.497 0.27-0.668c0.172-0.171 0.395-0.26 0.464-0.237s0.484 0.138 0.51 0.155 0.174 0.191 0.188 0.237c0.013 0.046 0.049 0.464 0.023 0.52s-0.072 0.276-0.214 0.263c-0.142-0.013-0.701-0.204-0.701-0.204z"></path>
<path fill="#fff" style="fill: var(--color3, #fff)" d="M24.742 13.96c0.075 0.187 0.224 0.645 0.010 0.916-0.085 0.108-0.204 0.146-0.328 0.146-0.011 0-0.023-0.001-0.034-0.001 0.003 0.181 0.049 0.623 0.417 0.722 0.41 0.11 0.715 0.043 0.815 0.014 0.167-0.551 0.041-1.257-0.188-1.585-0.2-0.286-0.539-0.247-0.692-0.212z"></path>
<path fill="#371a45" style="fill: var(--color1, #371a45)" opacity="0.2" d="M23.795 14.598c0 0 0.132-0.115 0.221-0.095s0.349 0.115 0.491 0.063c0.142-0.053 0.197-0.168 0.197-0.168s0.052 0.211 0 0.342c-0.052 0.132-0.131 0.194-0.279 0.181s-0.346-0.033-0.379-0.072c-0.033-0.040-0.25-0.25-0.25-0.25z"></path>
<path fill="#371a45" style="fill: var(--color1, #371a45)" opacity="0.2" d="M25.266 15.168c-0.296 0.097-0.548-0.095-0.646-0.187-0.061 0.029-0.127 0.041-0.196 0.041-0.004 0-0.008-0-0.012-0.001-0.008 0.005-0.015 0.010-0.022 0.015 0.005 0.189 0.058 0.61 0.417 0.706 0.41 0.11 0.715 0.043 0.815 0.014 0.094-0.31 0.095-0.669 0.038-0.982-0.063 0.145-0.18 0.324-0.393 0.394z"></path>
<path fill="#371a45" style="fill: var(--color1, #371a45)" d="M25.68 15.967c-0.015 0-0.031-0.003-0.046-0.008-0.071-0.026-0.108-0.104-0.083-0.176 0.19-0.528 0.067-1.242-0.167-1.577-0.231-0.331-0.68-0.174-0.699-0.167-0.039 0.014-0.082 0.010-0.117-0.011-0.177-0.105-0.525-0.249-0.703-0.186s-0.491 0.51-0.657 0.807c-0.037 0.066-0.121 0.090-0.187 0.053s-0.090-0.121-0.053-0.187c0.075-0.135 0.467-0.812 0.805-0.932 0.303-0.108 0.726 0.094 0.881 0.178 0.25-0.070 0.698-0.083 0.957 0.288 0.272 0.39 0.426 1.199 0.2 1.827-0.020 0.056-0.073 0.091-0.13 0.091z"></path>
<path fill="#371a45" style="fill: var(--color1, #371a45)" d="M24.422 15.082c-0.233 0-0.491-0.117-0.654-0.222-0.064-0.041-0.082-0.126-0.041-0.19s0.126-0.082 0.19-0.041c0.107 0.068 0.531 0.286 0.667 0.114 0.154-0.195-0.003-0.635-0.070-0.773-0.033-0.068-0.004-0.15 0.064-0.184s0.15-0.004 0.184 0.064c0.034 0.071 0.325 0.7 0.038 1.063-0.097 0.122-0.232 0.168-0.378 0.168z"></path>
<path fill="#371a45" style="fill: var(--color1, #371a45)" d="M25.256 16.017c-0.144 0-0.315-0.017-0.504-0.068-0.635-0.171-0.576-0.989-0.573-1.024 0.006-0.076 0.073-0.132 0.148-0.126s0.132 0.072 0.126 0.148c-0.001 0.007-0.043 0.625 0.371 0.736 0.477 0.128 0.809 0.006 0.812 0.004 0.071-0.027 0.15 0.008 0.177 0.079s-0.007 0.15-0.078 0.177c-0.011 0.004-0.191 0.073-0.479 0.073z"></path>
</symbol>
<symbol id="icon-space-man-ice-without-shadow" viewBox="0 0 32 32">
<path fill="#50c9ff" style="fill: var(--color2, #50c9ff)" d="M18.684 18.607c0.322 0 0.583-0.261 0.583-0.583s-0.261-0.583-0.583-0.583c-0.322 0-0.583 0.261-0.583 0.583s0.261 0.583 0.583 0.583z"></path>
<path fill="#fff" style="fill: var(--color3, #fff)" d="M13.313 12.734c-0.45-0.056-1.111-0.119-1.402-0.103l0.372 0.539-0.528-0.5c-0.152 0.12-0.418 0.623-0.599 1.029 1.248-0.12 2.313-0.346 2.716-0.439-0.284-0.201-0.494-0.447-0.558-0.527z"></path>
<path fill="#fff" style="fill: var(--color3, #fff)" d="M10.698 16.456c0.151 0.006 0.289 0.012 0.417 0.018 0.21-1.727-0.124-2.446-0.212-2.6-0.564 0.041-1.162 0.029-1.741 0.018-1.073-0.022-2.086-0.042-2.526 0.302-0.377 0.295-0.598 0.626-0.622 0.933-0.013 0.168 0.034 0.316 0.137 0.426 0.118 0.126 0.514 0.149 0.863 0.169 0.449 0.026 0.837 0.048 0.865 0.279 0.011 0.089 0.007 0.21 0.002 0.351-0.009 0.275-0.021 0.652 0.102 0.771 0.029 0.028 0.064 0.039 0.111 0.036 0.255-0.017 0.521-0.333 0.697-0.542 0.13-0.155 0.192-0.225 0.263-0.218 0.018 0.002 0.163 0.006 0.346 0.012 0.508 0.016 0.934 0.032 1.29 0.046 0.002 0 0.005 0 0.007 0z"></path>
<path fill="#fff" style="fill: var(--color3, #fff)" d="M11.646 18.142c0.277-0.238 0.54-0.463 0.588-0.521 0.004-0.020 0.008-0.049 0.015-0.085 0.057-0.333 0.115-0.655 0.155-0.807-0.167-0.038-0.721-0.077-1.654-0.117-0.090 0.257-0.471 1.373-0.421 1.738 0.043 0.315 0.375 0.469 0.489 0.513 0.296-0.262 0.585-0.511 0.829-0.72z"></path>
<path fill="#fff" style="fill: var(--color3, #fff)" d="M24.721 15.915c-0.493-0.133-0.532-0.696-0.531-0.893-0.222-0.054-0.42-0.179-0.435-0.188-0.036-0.023-0.046-0.070-0.023-0.106s0.070-0.046 0.106-0.023c0.006 0.004 0.555 0.345 0.748 0.101 0.167-0.212 0.026-0.643-0.054-0.817-0.15-0.085-0.522-0.255-0.735-0.18-0.229 0.081-0.575 0.63-0.69 0.834-0.009 0.015-0.022 0.027-0.038 0.034l-1.269 0.506c-0.019 0.293-0.066 1.952 1.159 2.668 0.309-0.201 0.61-0.473 0.854-0.835 0.011-0.016 0.027-0.028 0.046-0.032 0.011-0.003 1.107-0.261 1.529-0.824 0.047-0.063 0.087-0.133 0.121-0.207-0.076 0.015-0.178 0.028-0.3 0.028-0.139 0-0.305-0.017-0.49-0.066z"></path>
<path fill="#fff" style="fill: var(--color3, #fff)" d="M24.696 13.985c0.075 0.187 0.224 0.645 0.010 0.916-0.085 0.108-0.204 0.146-0.328 0.146-0.011 0-0.023-0.001-0.034-0.001 0.003 0.181 0.049 0.623 0.417 0.722 0.41 0.11 0.715 0.043 0.815 0.014 0.167-0.551 0.041-1.257-0.188-1.585-0.2-0.286-0.538-0.247-0.692-0.212z"></path>
<path fill="#fff" style="fill: var(--color3, #fff)" d="M14.628 22.946c-0.132 0.064-0.385 0.279-0.458 1.001-0.014 0.141-0.031 0.285-0.048 0.425-0.112 0.941-0.217 1.83 0.428 2.124 0.327 0.149 0.663 0.134 0.946-0.043 0.291-0.182 0.481-0.514 0.503-0.874-1.263-0.798-1.368-2.231-1.372-2.633z"></path>
<path fill="#261c1b" style="fill: var(--color4, #261c1b)" opacity="0.25" d="M23.748 14.624c0 0 0.132-0.115 0.221-0.095s0.349 0.115 0.491 0.063c0.142-0.053 0.197-0.168 0.197-0.168s0.052 0.211 0 0.342c-0.052 0.132-0.131 0.194-0.279 0.181s-0.346-0.033-0.379-0.072c-0.033-0.040-0.25-0.25-0.25-0.25z"></path>
<path fill="#fff" style="fill: var(--color3, #fff)" d="M14.767 19.406c0.454 0.096 1.043 0.208 1.732 0.323 0.404 0.067 0.768 0.123 1.088 0.169 0.046-0.389 0.106-0.919 0.112-1.029-0.052-0.067-0.335-0.276-0.544-0.429-0.315-0.232-0.51-0.378-0.562-0.454-0.102-0.15 0.122-1.138 0.28-1.768-0.473-0.094-0.931-0.175-1.322-0.239-0.112 0.42-0.715 2.708-0.784 3.427z"></path>
<path fill="#fff" style="fill: var(--color3, #fff)" d="M19.23 20.036c0.13-0.252 0.573-2.517 0.395-2.995-0.049-0.131-0.747-0.414-2.553-0.783-0.016-0.003-0.032-0.006-0.048-0.010-0.185 0.741-0.345 1.545-0.301 1.655 0.038 0.055 0.308 0.253 0.524 0.413 0.516 0.38 0.607 0.46 0.607 0.538 0 0.088-0.085 0.815-0.114 1.065 0.869 0.119 1.388 0.152 1.49 0.117zM18.684 17.365c0.363 0 0.659 0.296 0.659 0.659s-0.296 0.659-0.659 0.659-0.659-0.296-0.659-0.659c0-0.363 0.296-0.659 0.659-0.659z"></path>
<path fill="#fff" style="fill: var(--color3, #fff)" d="M21.648 15.168l-1.963-1.382c-0.169 0.072-0.84 0.336-1.779 0.438-0.98 0.106-2.442 0.045-3.856-0.848-0.215 0.052-1.478 0.349-2.979 0.485 0.13 0.263 0.392 1.020 0.198 2.621 0.951 0.048 1.191 0.090 1.263 0.136 0.69 0.062 1.129 0.111 1.41 0.149 0.041-0.315 0.164-1.018 0.438-1.079 0.161-0.036 1.505 0.171 2.714 0.418 1.684 0.343 2.584 0.64 2.674 0.881 0.060 0.16 0.059 0.497 0.024 0.894l0.363 0.147c-0.072-0.095-0.119-0.208-0.124-0.345-0.013-0.427-0-1.908-0-1.923 0-0.042 0.035-0.076 0.077-0.076 0 0 0 0 0.001 0 0.042 0 0.076 0.035 0.076 0.077-0 0.015-0.013 1.494-0 1.917 0.009 0.294 0.294 0.459 0.561 0.55 0.143 0.039 0.306 0.077 0.463 0.102 0.001 0 0.003 0 0.003 0 0.002 0 0.003 0.001 0.005 0.001 0.122 0.019 0.239 0.028 0.339 0.023 0.282-0.016 0.768-0.128 1.257-0.41-1.235-0.784-1.184-2.476-1.165-2.774z"></path>
<path fill="#fff" style="fill: var(--color3, #fff)" d="M14.413 15.837c-0.123 0.027-0.259 0.5-0.319 0.951 0.324 0.050 0.348 0.078 0.36 0.093s0.021 0.040 0.019 0.060c-0.007 0.075-0.244 1.021-0.292 1.21-0.005 0.020-0.018 0.037-0.035 0.047-0.012 0.007-0.025 0.010-0.039 0.010-0.007 0-0.013-0.001-0.020-0.003l-0.34-0.091c-0.078 0.285-0.186 0.864 0.024 1.023 0.058 0.044 0.359 0.128 0.846 0.235 0.079-0.754 0.66-2.957 0.783-3.419-0.54-0.085-0.922-0.13-0.987-0.117z"></path>
<path fill="#fff" style="fill: var(--color3, #fff)" d="M14 16.929c-0.001-0-0.002-0-0.003-0.001-0.355-0.048-0.917-0.107-1.448-0.155-0.044 0.171-0.119 0.61-0.15 0.789-0.002 0.011-0.004 0.021-0.005 0.031l1.658 0.446c0.093-0.371 0.221-0.889 0.258-1.059-0.059-0.014-0.167-0.031-0.308-0.051-0.001-0-0.001-0-0.002-0z"></path>
<path fill="#fff" style="fill: var(--color3, #fff)" d="M12.016 22.363c-0.002 0-0.004 0-0.006 0-0.294 0.649-1.398 0.846-1.802 0.897 0.437 0.507 0.545 0.67 0.57 0.713 0.045 0.052 0.103 0.104 0.162 0.147 0.063 0.046 0.132 0.084 0.206 0.111 0.074 0.029 0.153 0.040 0.233 0.040 0.081 0.002 0.16-0.022 0.238-0.049-0.072 0.039-0.149 0.076-0.234 0.087-0.084 0.013-0.172 0.014-0.257-0.004-0.085-0.017-0.168-0.047-0.245-0.087-0.052-0.027-0.1-0.056-0.147-0.090-0.114 0.179-0.395 0.694-0.168 1.096 0.348 0.618 1.302 0.181 1.489 0.088 0.515-0.258 1.713-1.238 1.676-1.823-0.033-0.528-0.507-1.040-0.616-1.151-0.133 0.006-0.62 0.025-1.099 0.025z"></path>
<path fill="#fff" style="fill: var(--color3, #fff)" d="M19.776 18.039c-0.091 0.863-0.316 1.923-0.424 2.090-0.026 0.040-0.075 0.053-0.114 0.060-0.037 0.007-0.090 0.010-0.156 0.010-0.28 0-0.806-0.055-1.423-0.14-0.002 0-0.003 0.001-0.005 0.001-0.003 0-0.006-0-0.009-0.001-0.007-0.001-0.013-0.003-0.018-0.005-1.572-0.217-3.717-0.621-3.948-0.795-0.309-0.234-0.148-0.939-0.079-1.185l-1.264-0.34c-0.063 0.067-0.214 0.2-0.59 0.523-0.798 0.685-2.283 1.961-2.499 2.5-0.279 0.698-0.078 1.321 0.717 2.222 0.043 0.049 0.084 0.095 0.123 0.14 0.226-0.023 1.413-0.172 1.753-0.757-0.219-0.002-0.426-0.010-0.586-0.026-0.042-0.004-0.073-0.042-0.068-0.084s0.042-0.074 0.084-0.069c0.556 0.055 1.749 0.005 1.864 0l1.317-0.405c-0.228-0.082-0.447-0.187-0.642-0.329 0.258 0.11 0.524 0.192 0.793 0.255 0.134 0.031 0.27 0.058 0.405 0.078 0.068 0.008 0.136 0.019 0.204 0.028l0.205 0.017c0.068 0.009 0.137 0.008 0.206 0.011 0.069 0.002 0.137 0.006 0.206 0.003l0.206-0.004c0.035 0.001 0.069-0.005 0.103-0.007l0.103-0.008c0.138-0.006 0.274-0.030 0.413-0.047 0.070-0.005 0.137-0.024 0.206-0.035 0.069-0.013 0.138-0.024 0.208-0.035-0.065 0.026-0.131 0.052-0.197 0.076s-0.132 0.051-0.201 0.067c-0.137 0.034-0.273 0.075-0.414 0.092-0.28 0.052-0.566 0.055-0.85 0.039-0.26-0.017-0.518-0.066-0.767-0.14l0.144 0.991c0 0 0 0 0 0 0.001 0.005 0.001 0.010 0.001 0.016-0.001 0.017-0.096 1.741 1.322 2.616 0.152 0.012 1.28 0.064 1.804-0.862 0.581-1.027 1.749-5.185 1.761-5.227 0.009-0.031 0.036-0.054 0.069-0.056 0.003-0 0.286-0.020 0.395-0.189 0.082-0.127 0.105-0.603 0.101-0.907l-0.456-0.185z"></path>
<path fill="#371a45" style="fill: var(--color1, #371a45)" opacity="0.2" d="M12.579 17.471l1.36 0.352c0 0 0.053-0.346 0.046-0.352s-1.29-0.23-1.29-0.23-0.085 0.067-0.115 0.23z"></path>
<path fill="#261c1b" style="fill: var(--color4, #261c1b)" opacity="0.25" d="M13.615 18.32l-1.412-0.382 0.173-0.202c0 0 1.263 0.318 1.274 0.335s-0.034 0.249-0.034 0.249z"></path>
<path fill="#371a45" style="fill: var(--color1, #371a45)" opacity="0.2" d="M19.584 19.041c0 0 0.262 0.025 0.351-0.113s0.118-0.844 0.118-0.844l-0.313-0.119-0.156 1.076z"></path>
<path fill="#371a45" style="fill: var(--color1, #371a45)" opacity="0.2" d="M13.573 19.244c0 0 0.288 0.4 1.049 0.612s3.837 0.667 4.246 0.667 0.528-0.049 0.538-0.069c0.010-0.020 0.056-0.36 0.056-0.36l-0.145-0.020c0 0-1.397 0.035-3.056-0.281s-2.688-0.548-2.688-0.548z"></path>
<path fill="#371a45" style="fill: var(--color1, #371a45)" opacity="0.2" d="M18.347 17.723c0 0 0.052 0.509 0.383 0.543s0.553-0.241 0.553-0.241-0.198 0.661-0.664 0.567c-0.467-0.094-0.592-0.439-0.489-0.669s0.217-0.2 0.217-0.2z"></path>
<path fill="#371a45" style="fill: var(--color1, #371a45)" opacity="0.2" d="M6.151 15.552c0.118 0.126 0.514 0.149 0.863 0.169 0.449 0.026 0.837 0.048 0.865 0.279 0.011 0.089 0.007 0.21 0.002 0.351-0.009 0.275-0.021 0.652 0.102 0.771 0.021 0.021 0.047 0.032 0.078 0.036 0 0 0 0 0 0 0.010 0.001 0.021 0.001 0.033 0 0.255-0.017 0.521-0.333 0.697-0.542 0.13-0.155 0.192-0.225 0.263-0.218 0.018 0.002 0.163 0.006 0.346 0.012 0.508 0.016 0.934 0.032 1.29 0.046 0.002-0 0.004 0 0.007 0 0.075 0.003 0.148 0.006 0.217 0.009 0.008-0.048 0.028-0.63 0.028-0.63s-1.688-0.013-1.879 0.030c-0.191 0.043-0.402 0.424-0.593 0.49s0-0.54-0.086-0.698c-0.086-0.158-1.027-0.23-1.633-0.316s-0.661-0.508-0.661-0.508c-0.045 0.099-0.071 0.197-0.079 0.293-0.013 0.169 0.035 0.316 0.138 0.426z"></path>
<path fill="#371a45" style="fill: var(--color1, #371a45)" opacity="0.2" d="M11.324 15.866c-0.011 0.19-0.029 0.394-0.055 0.616 0.951 0.048 1.191 0.090 1.263 0.136 0.69 0.062 1.129 0.111 1.41 0.149 0.028-0.217 0.095-0.618 0.224-0.867-0.075 0.014-0.251 0.040-0.467 0.040-0.268 0-2.101-0.064-2.375-0.074z"></path>
<path fill="#371a45" style="fill: var(--color1, #371a45)" opacity="0.2" d="M10.864 18.008c0.029 0.19 0.298 0.433 0.376 0.484 0.143-0.124 0.28-0.242 0.405-0.349 0.277-0.238 0.54-0.463 0.588-0.521 0.004-0.020 0.008-0.049 0.015-0.085 0.055-0.322 0.111-0.633 0.15-0.791-0.026-0.010-0.077-0.024-0.145-0.040-0.185-0.022-0.497-0.044-0.934-0.067-0.051 0.009-0.097 0.022-0.137 0.039 0 0-0.352 1.116-0.319 1.33z"></path>
<path fill="#371a45" style="fill: var(--color1, #371a45)" opacity="0.2" d="M17.82 19.212c-0.027 0.25-0.063 0.56-0.081 0.706 0.674 0.092 1.136 0.133 1.358 0.13 0.039-0.169 0.087-0.58 0.093-0.606 0.008-0.033-1.368-0.23-1.37-0.23z"></path>
<path fill="#371a45" style="fill: var(--color1, #371a45)" opacity="0.2" d="M17.438 19.133c-0.020-0.061-1.705-0.385-2.524-0.557-0.073 0.343-0.129 0.641-0.147 0.83 0.454 0.096 1.043 0.208 1.732 0.323 0.331 0.055 0.635 0.103 0.911 0.143 0.014-0.179 0.049-0.674 0.028-0.739z"></path>
<path fill="#371a45" style="fill: var(--color1, #371a45)" opacity="0.2" d="M14.508 17.14c0 0-0.043 0.011-0.085 0.026-0.074 0.312-0.208 0.848-0.243 0.985-0.005 0.020-0.018 0.037-0.035 0.047-0.012 0.007-0.025 0.011-0.039 0.011-0.007 0-0.013-0.001-0.020-0.003l-0.34-0.091c-0.078 0.285-0.186 0.864 0.024 1.023 0.058 0.044 0.359 0.128 0.846 0.236 0.021-0.197 0.076-0.492 0.147-0.829-0.165-0.036-0.271-0.061-0.286-0.071-0.079-0.054 0.030-1.333 0.030-1.333z"></path>
<path fill="#261c1b" style="fill: var(--color4, #261c1b)" opacity="0.25" d="M19.792 17.88l0.363 0.147c-0.072-0.095-0.119-0.208-0.124-0.345-0.003-0.1-0.005-0.259-0.006-0.443l-0.222-0.088c0.021 0.18 0.014 0.439-0.011 0.729z"></path>
<path fill="#371a45" style="fill: var(--color1, #371a45)" opacity="0.2" d="M20.653 17.519c-0.314-0.153-0.42-1.759-0.42-1.759l-0.052 0.433c-0.003 0.475-0.006 1.207 0.003 1.485 0.009 0.294 0.294 0.459 0.561 0.55 0.143 0.039 0.306 0.077 0.463 0.102 0.001 0 0.003 0 0.003 0 0.002 0 0.003 0.001 0.005 0.001 0.122 0.019 0.239 0.028 0.339 0.023 0.282-0.016 0.768-0.128 1.257-0.41-0.249-0.158-0.445-0.354-0.601-0.567-0.572 0.387-1.289 0.275-1.558 0.143z"></path>
<path fill="#371a45" style="fill: var(--color1, #371a45)" opacity="0.2" d="M23.732 16.381c-0.428-0.066-0.658 0.099-1.251 0.759-0.047 0.053-0.097 0.1-0.148 0.143 0.159 0.218 0.363 0.416 0.626 0.569 0.309-0.201 0.611-0.473 0.854-0.835 0.011-0.016 0.027-0.028 0.046-0.032 0.011-0.003 1.107-0.261 1.529-0.824 0.047-0.063 0.087-0.133 0.121-0.207-0.076 0.015-0.178 0.028-0.3 0.028-0.139 0-0.305-0.017-0.49-0.066-0 0-0.561 0.532-0.989 0.466z"></path>
<path fill="#261c1b" style="fill: var(--color4, #261c1b)" opacity="0.25" d="M25.22 15.193c-0.296 0.097-0.548-0.095-0.646-0.187-0.061 0.029-0.127 0.041-0.196 0.041-0.004 0-0.008-0-0.012-0-0.008 0.005-0.015 0.010-0.022 0.015 0.005 0.189 0.058 0.61 0.417 0.706 0.41 0.11 0.715 0.043 0.815 0.014 0.094-0.31 0.095-0.669 0.038-0.982-0.063 0.145-0.18 0.324-0.393 0.394z"></path>
<path fill="#371a45" style="fill: var(--color1, #371a45)" opacity="0.2" d="M11.618 23.944c-0.221-0.027-0.542-0.373-0.87-0.784-0.217 0.054-0.413 0.084-0.539 0.1 0.437 0.507 0.545 0.67 0.57 0.713 0.045 0.052 0.103 0.104 0.162 0.147 0.063 0.046 0.132 0.084 0.206 0.111 0.074 0.029 0.153 0.040 0.233 0.040 0.081 0.002 0.16-0.022 0.238-0.049-0.022 0.012-0.045 0.023-0.068 0.034 0.297-0.066 0.477-0.238 0.477-0.238s-0.013-0.026-0.408-0.074z"></path>
<path fill="#371a45" style="fill: var(--color1, #371a45)" opacity="0.2" d="M9.521 20.404c0 0-0.048 0.032-0.095 0.062-0.085 0.111-0.147 0.21-0.18 0.292-0.279 0.698-0.078 1.321 0.717 2.222 0.043 0.049 0.084 0.095 0.123 0.14 0.084-0.009 0.3-0.035 0.556-0.094-0.224-0.288-0.446-0.595-0.637-0.838-0.5-0.639-0.484-1.784-0.484-1.784z"></path>
<path fill="#371a45" style="fill: var(--color1, #371a45)" opacity="0.2" d="M13.383 23.557c-0.033 0.441-1.564 1.603-2.107 1.593s-0.685-0.514-0.685-0.514c-0.015-0.021-0.044-0.027-0.076-0.019-0.050 0.195-0.059 0.414 0.050 0.607 0.348 0.618 1.302 0.181 1.489 0.088 0.515-0.258 1.713-1.238 1.676-1.823-0.033-0.528-0.507-1.040-0.616-1.151-0.103 0.004-0.416 0.017-0.775 0.022 0.179 0.13 1.071 0.799 1.042 1.197z"></path>
<path fill="#371a45" style="fill: var(--color1, #371a45)" opacity="0.2" d="M16.345 24.772c-0.764-0.253-1.017-2.485-1.017-2.485s0.597-0.016 1.329-0.214c0.731-0.198 1.456-0.726 1.445-0.839s-1.095 0.326-2.527 0.281c-1.432-0.044-2.602-0.992-2.602-0.736s0.379 0.672 0.379 0.672-0.719 0.375-1.193 0.467c-0.474 0.091-0.991 0.218-0.991 0.218l0.023 0.095h0c0.013-0.030 0.043-0.050 0.078-0.046 0.556 0.055 1.749 0.005 1.864 0l1.317-0.405c-0.228-0.082-0.447-0.187-0.642-0.329 0.258 0.11 0.524 0.192 0.793 0.255 0.134 0.031 0.27 0.058 0.405 0.078 0.068 0.008 0.136 0.019 0.204 0.028l0.205 0.017c0.068 0.009 0.137 0.008 0.206 0.011 0.069 0.002 0.137 0.006 0.206 0.003l0.206-0.004c0.035 0.001 0.069-0.005 0.103-0.007l0.103-0.008c0.138-0.006 0.274-0.030 0.413-0.047 0.070-0.005 0.137-0.024 0.206-0.035 0.069-0.013 0.138-0.024 0.208-0.035-0.065 0.026-0.131 0.052-0.197 0.076s-0.132 0.051-0.201 0.067c-0.137 0.034-0.273 0.075-0.414 0.092-0.28 0.052-0.566 0.055-0.85 0.039-0.26-0.017-0.518-0.066-0.767-0.14l0.144 0.991c0 0 0 0 0 0 0.001 0.005 0.001 0.011 0.001 0.016-0.001 0.017-0.096 1.741 1.322 2.616 0.152 0.012 1.28 0.064 1.804-0.862 0.045-0.080 0.094-0.178 0.145-0.292-0.31 0.3-1.063 0.676-1.708 0.462z"></path>
<path fill="#371a45" style="fill: var(--color1, #371a45)" opacity="0.2" d="M14.736 25.875c-0.301-0.405-0.065-2.429-0.065-2.429l-0-0.002c-0.034-0.216-0.042-0.392-0.043-0.497-0.132 0.064-0.385 0.279-0.458 1.001-0.014 0.141-0.031 0.285-0.048 0.425-0.111 0.941-0.217 1.83 0.428 2.124 0.327 0.149 0.663 0.134 0.946-0.043 0.17-0.106 0.305-0.264 0.393-0.448-0.179 0.050-0.891 0.222-1.153-0.131z"></path>
<path fill="#371a45" style="fill: var(--color1, #371a45)" opacity="0.2" d="M11.63 13.62c0 0 0.067 0.004 0.16 0.008 0.728-0.093 1.352-0.211 1.758-0.296-0.062-0.056-0.228-0.141-0.308-0.168-0.077-0.026-0.619-0.014-0.959 0.004l0.002 0.002-0.002-0.002c-0.138 0.007-0.243 0.015-0.27 0.023-0.094 0.025-0.38 0.43-0.38 0.43z"></path>
<path fill="#371a45" style="fill: var(--color1, #371a45)" d="M14.995 26.811c-0.178 0-0.359-0.040-0.534-0.12-0.787-0.359-0.667-1.368-0.552-2.344 0.016-0.139 0.033-0.283 0.047-0.422 0.084-0.829 0.404-1.095 0.596-1.18l-0.108-0.741-1.049 0.323c0.198 0.231 0.519 0.674 0.549 1.149 0.045 0.723-1.237 1.749-1.794 2.028-0.631 0.316-1.428 0.435-1.771-0.174-0.284-0.504 0.035-1.098 0.172-1.313-0.074-0.103-0.267-0.351-0.748-0.895-0.619-0.702-1.139-1.483-0.755-2.443 0.217-0.542 1.382-1.573 2.558-2.583 0.259-0.222 0.504-0.433 0.571-0.503 0.003-0.018 0.007-0.041 0.012-0.068 0.050-0.293 0.101-0.578 0.14-0.749-0.313-0.050-1.297-0.101-2.934-0.153-0.17-0.005-0.266-0.009-0.316-0.011-0.030 0.029-0.081 0.090-0.124 0.14-0.199 0.237-0.501 0.594-0.846 0.618-0.107 0.007-0.202-0.026-0.274-0.095-0.191-0.185-0.178-0.582-0.167-0.932 0.004-0.122 0.008-0.237 0-0.31-0.068-0.065-0.441-0.086-0.666-0.099-0.427-0.024-0.83-0.047-1.007-0.236-0.143-0.153-0.212-0.362-0.194-0.589 0.029-0.368 0.279-0.753 0.704-1.085 0.5-0.391 1.502-0.37 2.662-0.347 0.62 0.012 1.262 0.025 1.854-0.027 1.638-0.145 2.995-0.487 3.008-0.49 0.037-0.009 0.076-0.003 0.108 0.017 2.624 1.678 5.471 0.409 5.499 0.396 0.044-0.020 0.096-0.016 0.136 0.013l1.973 1.389 1.2-0.478c0.114-0.198 0.47-0.779 0.78-0.889 0.303-0.108 0.726 0.094 0.881 0.178 0.249-0.070 0.698-0.083 0.957 0.288 0.326 0.467 0.487 1.562-0.003 2.215-0.418 0.557-1.363 0.83-1.6 0.891-0.716 1.027-1.874 1.356-2.393 1.386-0.347 0.020-0.851-0.119-1.12-0.203-0.003 0.269-0.024 0.713-0.135 0.885-0.118 0.183-0.334 0.249-0.462 0.273-0.176 0.623-1.202 4.21-1.756 5.187-0.518 0.915-1.518 0.984-1.889 0.976-0.051 0.393-0.271 0.748-0.595 0.951-0.188 0.117-0.398 0.176-0.615 0.176zM14.711 22.98c0 0-0.388 0.050-0.481 0.973-0.014 0.141-0.031 0.286-0.048 0.426-0.109 0.918-0.212 1.786 0.393 2.062 0.308 0.14 0.623 0.127 0.889-0.039 0.285-0.178 0.468-0.51 0.477-0.866 0.001-0.038 0.018-0.075 0.047-0.1s0.068-0.037 0.106-0.033c0.050 0.005 1.222 0.123 1.761-0.83 0.578-1.020 1.743-5.171 1.755-5.213 0.016-0.056 0.066-0.097 0.124-0.1 0.070-0.005 0.271-0.043 0.347-0.161 0.067-0.104 0.099-0.56 0.090-0.923-0.001-0.045 0.020-0.088 0.057-0.115s0.084-0.033 0.127-0.018c0.008 0.003 0.769 0.274 1.197 0.249 0.48-0.027 1.559-0.336 2.211-1.309 0.019-0.029 0.049-0.050 0.083-0.057 0.011-0.003 1.086-0.256 1.494-0.801 0.396-0.528 0.273-1.497-0.003-1.893-0.231-0.331-0.68-0.174-0.699-0.167-0.039 0.014-0.082 0.010-0.117-0.011-0.178-0.105-0.525-0.249-0.703-0.186s-0.491 0.51-0.657 0.807c-0.015 0.028-0.040 0.049-0.069 0.061l-1.313 0.523c-0.043 0.017-0.092 0.011-0.13-0.015l-1.972-1.388c-0.213 0.088-0.869 0.332-1.765 0.429-0.985 0.107-2.451 0.046-3.873-0.844-0.278 0.067-1.525 0.353-2.994 0.483-0.607 0.054-1.256 0.041-1.884 0.028-1.062-0.021-2.064-0.042-2.488 0.289-0.364 0.284-0.577 0.6-0.599 0.89-0.012 0.151 0.030 0.282 0.121 0.38 0.102 0.109 0.518 0.132 0.822 0.15 0.477 0.027 0.888 0.051 0.922 0.332 0.011 0.093 0.007 0.217 0.003 0.36-0.008 0.249-0.020 0.625 0.083 0.725 0.012 0.011 0.028 0.022 0.065 0.019 0.229-0.016 0.496-0.332 0.655-0.521 0.14-0.166 0.211-0.25 0.316-0.239 0.020 0.002 0.169 0.006 0.343 0.012 3.098 0.099 3.142 0.166 3.204 0.259 0.026 0.039 0.032 0.089 0.015 0.133-0.036 0.094-0.132 0.65-0.163 0.832-0.008 0.047-0.014 0.083-0.018 0.101-0.013 0.073-0.032 0.095-0.656 0.631-0.794 0.682-2.272 1.951-2.482 2.476-0.269 0.673-0.071 1.278 0.706 2.159 0.717 0.813 0.818 0.993 0.831 1.020 0.021 0.046 0.016 0.1-0.014 0.14-0.005 0.006-0.466 0.637-0.208 1.095 0.321 0.57 1.23 0.153 1.409 0.063 0.567-0.283 1.675-1.245 1.643-1.765-0.036-0.57-0.614-1.128-0.619-1.134-0.035-0.034-0.050-0.084-0.039-0.131s0.047-0.085 0.093-0.1l1.412-0.434c0.038-0.012 0.080-0.006 0.114 0.015s0.057 0.057 0.062 0.096l0.148 1.017c0.006 0.040-0.002 0.080-0.029 0.111s-0.062 0.048-0.102 0.046z"></path>
<path fill="#371a45" style="fill: var(--color1, #371a45)" d="M11.182 16.692c-0.006 0-0.012-0-0.018-0.001-0.075-0.010-0.128-0.078-0.119-0.154 0.255-1.989-0.208-2.653-0.213-2.66-0.044-0.061-0.032-0.147 0.029-0.192s0.145-0.033 0.191 0.026c0.022 0.029 0.539 0.737 0.266 2.86-0.009 0.069-0.068 0.12-0.136 0.12z"></path>
<path fill="#371a45" style="fill: var(--color1, #371a45)" d="M10.834 19.087c-0.013 0-0.026-0.002-0.039-0.006-0.025-0.007-0.608-0.187-0.679-0.703-0.062-0.455 0.398-1.747 0.45-1.893 0.026-0.071 0.105-0.108 0.176-0.083s0.108 0.105 0.083 0.176c-0.137 0.379-0.482 1.433-0.437 1.762 0.047 0.343 0.48 0.476 0.485 0.477 0.073 0.022 0.114 0.098 0.092 0.171-0.018 0.060-0.072 0.098-0.132 0.098z"></path>
<path fill="#371a45" style="fill: var(--color1, #371a45)" d="M11.032 13.925c-0.018 0-0.036-0.004-0.054-0.011-0.070-0.030-0.102-0.11-0.072-0.18 0.153-0.359 0.54-1.204 0.827-1.292 0.271-0.083 1.412 0.055 1.638 0.084 0.036 0.005 0.069 0.024 0.092 0.053 0.003 0.004 0.292 0.377 0.67 0.597 0.066 0.038 0.088 0.122 0.050 0.188s-0.122 0.088-0.188 0.049c-0.347-0.202-0.617-0.506-0.712-0.621-0.537-0.066-1.315-0.134-1.468-0.087-0.111 0.045-0.411 0.566-0.655 1.137-0.022 0.052-0.073 0.084-0.126 0.084z"></path>
<path fill="#371a45" style="fill: var(--color1, #371a45)" d="M11.912 12.527l0.37 0.642-0.578-0.464c-0.163-0.149 0.086-0.363 0.209-0.179z"></path>
<path fill="#371a45" style="fill: var(--color1, #371a45)" d="M14.107 18.27c-0.012 0-0.024-0.002-0.036-0.005l-1.801-0.484c-0.073-0.020-0.117-0.095-0.097-0.168s0.095-0.117 0.168-0.097l1.666 0.448c0.082-0.326 0.184-0.741 0.229-0.937-0.273-0.051-1.049-0.135-1.755-0.199-0.076-0.007-0.131-0.074-0.125-0.149s0.073-0.131 0.149-0.125c0.005 0 0.484 0.044 0.956 0.095 0.278 0.030 0.5 0.058 0.66 0.081 0.274 0.040 0.425 0.063 0.411 0.217-0.007 0.075-0.207 0.878-0.293 1.219-0.009 0.036-0.032 0.066-0.064 0.085-0.021 0.012-0.045 0.019-0.070 0.019z"></path>
<path fill="#371a45" style="fill: var(--color1, #371a45)" d="M19.065 20.261c-0.665 0-2.36-0.28-2.726-0.342-0.407-0.069-2.447-0.422-2.697-0.61-0.381-0.287-0.132-1.157-0.078-1.328 0.023-0.072 0.1-0.113 0.172-0.090s0.113 0.1 0.090 0.172c-0.106 0.34-0.185 0.901-0.018 1.027 0.122 0.083 1.158 0.322 2.679 0.576 1.525 0.255 2.488 0.35 2.701 0.317 0.059-0.148 0.187-0.682 0.294-1.359 0.122-0.775 0.155-1.372 0.087-1.56-0.064-0.102-0.668-0.373-2.53-0.751-1.278-0.26-2.457-0.43-2.613-0.415-0.092 0.044-0.227 0.506-0.28 0.971-0.009 0.075-0.077 0.129-0.152 0.121s-0.129-0.077-0.121-0.152c0.001-0.011 0.031-0.269 0.096-0.539 0.101-0.425 0.225-0.631 0.399-0.67 0.187-0.041 1.626 0.191 2.739 0.418 2.571 0.524 2.679 0.811 2.719 0.919 0.197 0.528-0.252 2.935-0.421 3.197-0.039 0.061-0.107 0.079-0.154 0.087-0.046 0.008-0.108 0.012-0.184 0.012z"></path>
<path fill="#371a45" style="fill: var(--color1, #371a45)" d="M20.308 18.31c-0.017 0-0.035-0.003-0.052-0.010l-0.568-0.23c-0.070-0.028-0.104-0.109-0.076-0.179s0.108-0.104 0.179-0.076l0.568 0.23c0.070 0.028 0.104 0.109 0.076 0.179-0.022 0.053-0.073 0.086-0.127 0.086z"></path>
<path fill="#371a45" style="fill: var(--color1, #371a45)" d="M14.686 19.604c-0.003 0-0.005-0-0.008-0-0.076-0.004-0.134-0.069-0.13-0.145 0.040-0.716 0.783-3.485 0.814-3.603 0.020-0.073 0.095-0.117 0.168-0.097s0.117 0.095 0.097 0.168c-0.008 0.028-0.767 2.859-0.805 3.547-0.004 0.073-0.065 0.13-0.137 0.13z"></path>
<path fill="#371a45" style="fill: var(--color1, #371a45)" d="M17.655 20.121c-0.005 0-0.011-0-0.016-0.001-0.075-0.009-0.129-0.077-0.12-0.153 0.052-0.441 0.108-0.933 0.119-1.078-0.077-0.078-0.339-0.271-0.518-0.402-0.358-0.263-0.521-0.387-0.576-0.468-0.041-0.060-0.098-0.143 0.096-1.055 0.090-0.425 0.194-0.836 0.195-0.84 0.019-0.074 0.094-0.118 0.167-0.099s0.118 0.093 0.099 0.167c-0.175 0.693-0.345 1.518-0.322 1.682 0.062 0.067 0.326 0.261 0.504 0.392 0.561 0.413 0.632 0.478 0.632 0.587 0 0.102-0.103 0.973-0.123 1.147-0.008 0.070-0.067 0.121-0.136 0.121z"></path>
<path fill="#371a45" style="fill: var(--color1, #371a45)" d="M18.684 18.745c-0.397 0-0.72-0.323-0.72-0.72s0.323-0.72 0.72-0.72c0.397 0 0.72 0.323 0.72 0.72s-0.323 0.72-0.72 0.72zM18.684 17.579c-0.246 0-0.445 0.2-0.445 0.445s0.2 0.445 0.445 0.445 0.445-0.2 0.445-0.445c0-0.245-0.2-0.445-0.445-0.445z"></path>
<path fill="#371a45" style="fill: var(--color1, #371a45)" d="M21.205 18.543c-0.004 0-0.008-0-0.012-0.001-0.049-0.004-1.199-0.114-1.222-0.858-0.013-0.428-0.001-1.865-0-1.926 0.001-0.076 0.062-0.136 0.139-0.136s0.137 0.063 0.136 0.139c-0 0.015-0.013 1.492-0 1.915 0.015 0.493 0.962 0.592 0.972 0.593 0.076 0.007 0.131 0.073 0.125 0.149-0.006 0.071-0.066 0.125-0.137 0.125z"></path>
<path fill="#371a45" style="fill: var(--color1, #371a45)" d="M22.96 18.079c-0.023 0-0.046-0.006-0.067-0.017-1.506-0.837-1.311-2.86-1.302-2.946 0.008-0.075 0.075-0.13 0.151-0.122s0.13 0.075 0.122 0.151c-0.002 0.019-0.183 1.929 1.163 2.677 0.066 0.037 0.090 0.12 0.053 0.187-0.025 0.045-0.072 0.071-0.12 0.071z"></path>
<path fill="#261c1b" style="fill: var(--color4, #261c1b)" d="M24.375 15.107c-0.233 0-0.491-0.117-0.654-0.222-0.064-0.041-0.082-0.126-0.041-0.19s0.126-0.082 0.19-0.041c0.107 0.068 0.531 0.286 0.667 0.114 0.153-0.194-0.003-0.634-0.070-0.774-0.033-0.068-0.004-0.15 0.064-0.183s0.15-0.004 0.183 0.064c0.034 0.071 0.325 0.7 0.038 1.063-0.097 0.123-0.232 0.168-0.378 0.168z"></path>
<path fill="#261c1b" style="fill: var(--color4, #261c1b)" d="M25.209 16.042c-0.144 0-0.315-0.017-0.504-0.068-0.635-0.171-0.576-0.989-0.573-1.024 0.006-0.076 0.073-0.132 0.148-0.126s0.132 0.072 0.126 0.148c-0 0.007-0.043 0.625 0.371 0.736 0.477 0.128 0.809 0.006 0.812 0.004 0.071-0.027 0.15 0.008 0.177 0.079s-0.007 0.15-0.078 0.177c-0.011 0.004-0.191 0.073-0.479 0.073z"></path>
<path fill="#371a45" style="fill: var(--color1, #371a45)" d="M10.055 23.337c-0.071 0-0.131-0.055-0.137-0.127-0.006-0.076 0.051-0.142 0.126-0.148 0.424-0.033 1.57-0.244 1.788-0.824 0.027-0.071 0.106-0.107 0.177-0.080s0.107 0.106 0.080 0.177c-0.323 0.862-1.955 0.996-2.024 1.002-0.004 0-0.007 0-0.011 0z"></path>
<path fill="#371a45" style="fill: var(--color1, #371a45)" d="M12.017 22.424c-0.284 0-0.565-0.007-0.77-0.027-0.076-0.008-0.131-0.075-0.123-0.15s0.075-0.13 0.15-0.123c0.577 0.058 1.852 0 1.865-0 0.075-0.004 0.14 0.055 0.143 0.131s-0.055 0.14-0.131 0.144c-0.035 0.002-0.59 0.027-1.135 0.027z"></path>
<path fill="#371a45" style="fill: var(--color1, #371a45)" d="M13.807 21.451c0.919 0.301 1.881 0.394 2.839 0.297 0.139-0.010 0.276-0.034 0.42-0.040-0.063 0.033-0.127 0.063-0.193 0.092-0.947 0.419-2.254 0.319-3.066-0.349z"></path>
<path fill="#371a45" style="fill: var(--color1, #371a45)" d="M16.078 25.676c-0.024 0-0.049-0.006-0.071-0.020-1.545-0.941-1.443-2.746-1.438-2.822s0.070-0.132 0.146-0.128c0.076 0.005 0.133 0.070 0.128 0.146-0.001 0.021-0.091 1.718 1.307 2.57 0.065 0.039 0.085 0.124 0.046 0.189-0.026 0.042-0.071 0.066-0.117 0.066z"></path>
<path fill="#371a45" style="fill: var(--color1, #371a45)" d="M10.816 23.924c0.177 0.247 0.5 0.408 0.802 0.298-0.033 0.018-0.075 0.049-0.11 0.061-0.249 0.116-0.544 0.048-0.772-0.089-0.047-0.028-0.089-0.055-0.132-0.093-0.158-0.151 0.092-0.36 0.213-0.177z"></path>
<path fill="#ff64b5" style="fill: var(--color5, #ff64b5)" d="M25.871 13.506c-0.005-0.025-0.008-0.112-0.017-0.508-0.018-0.784-0.073-3.169-0.23-3.35-0.069-0.073-0.298-0.125-0.573-0.155-0.006 0.923-0.024 2.866-0.083 2.983-0.025 0.049-0.079 0.082-0.16 0.098-0.040 0.008-0.087 0.011-0.139 0.011-0.174 0-0.39-0.042-0.467-0.111-0.040-0.036-0.085-0.076-0.047-1.603 0.015-0.595 0.037-1.188 0.046-1.401-0.185 0.011-0.333 0.035-0.398 0.072-0.080 0.077-0.259 0.871-0.399 2.015-0.146 1.192-0.148 1.933-0.076 2.036 0.045 0.014 0.087 0.011 0.128-0.008 0.114-0.055 0.193-0.227 0.214-0.289 0.010-0.031 0.040-0.052 0.073-0.052h1.020c0.001 0 0.003 0 0.004 0s0.003-0 0.005 0l0.331 0.039c0.030 0.004 0.055 0.025 0.064 0.054 0 0.002 0.048 0.156 0.111 0.265 0.019 0.032 0.145 0.012 0.234-0.027 0.022-0.010 0.048-0.008 0.069 0.004s0.035 0.034 0.038 0.058c0.041 0.39 0.132 0.66 0.243 0.723 0.021 0.012 0.053 0.023 0.106-0.001 0.072-0.033 0.118-0.193-0.069-0.77-0.013-0.041-0.022-0.069-0.026-0.085z"></path>
<path fill="#ff64b5" style="fill: var(--color5, #ff64b5)" d="M24.83 12.407c0.038-0.172 0.061-1.848 0.068-2.928-0.181-0.014-0.372-0.019-0.544-0.015-0.043 1.058-0.088 2.701-0.039 2.905 0.094 0.060 0.453 0.088 0.516 0.039z"></path>
<path fill="#e09251" style="fill: var(--color6, #e09251)" d="M24.309 13.398l-0.063 2.698c0.029 0.094 0.127 0.322 0.251 0.322 0.141 0 0.248-0.149 0.281-0.2l-0.091-2.82h-0.378z"></path>
<path fill="#261c1b" style="fill: var(--color4, #261c1b)" opacity="0.25" d="M24.513 9.463c0 0-0.115 2.583 0 2.691s0.385 0.094 0.385 0.094-0.043 0.162-0.058 0.185c-0.015 0.023-0.049 0.076-0.118 0.076s-0.262-0.012-0.326-0.033c-0.064-0.021-0.18-0.041-0.179-0.090s0.076-2.924 0.076-2.924 0.178-0.064 0.219 0z"></path>
<path fill="#261c1b" style="fill: var(--color4, #261c1b)" opacity="0.25" d="M24.309 13.398l-0.063 2.698c0.029 0.094 0.127 0.322 0.251 0.322 0.141 0 0.248-0.149 0.281-0.2l-0.003-0.092c-0.067 0.022-0.177 0.039-0.235-0.059-0.086-0.145-0.046-2.416-0.046-2.433s0.2-0.020 0.2-0.020l-0.007-0.216-0.378 0z"></path>
<path fill="#371a45" style="fill: var(--color1, #371a45)" opacity="0.2" d="M25.321 12.887c-0.158-0.105-1.132 0.079-1.383-0.138s-0.046-2.423-0.118-2.475c-0.072-0.053-0.449 2.073-0.461 2.094-0.019 0.033-0.035 0.072-0.049 0.114-0.048 0.647-0.034 1.041 0.017 1.114 0.045 0.014 0.087 0.011 0.128-0.008 0.114-0.055 0.193-0.227 0.214-0.289 0.010-0.031 0.040-0.052 0.072-0.052h1.020c0.001 0 0.003 0 0.004 0s0.003-0 0.005 0l0.331 0.039c0.030 0.004 0.055 0.025 0.064 0.054 0 0.002 0.048 0.156 0.111 0.265 0.019 0.032 0.145 0.012 0.234-0.027 0.016-0.007 0.034-0.008 0.051-0.003-0-0.209-0.124-0.608-0.242-0.687z"></path>
<path fill="#fff" style="fill: var(--color3, #fff)" opacity="0.4" d="M24.702 11.623c0.066 0.243 0.155 0.356 0.156 0.356 0.022-0.607 0.035-1.711 0.040-2.499-0.064-0.005-0.13-0.008-0.196-0.011-0 0.008-0.066 1.912 0 2.155z"></path>
<path fill="#fff" style="fill: var(--color3, #fff)" opacity="0.4" d="M25.479 9.97c0.026 0.079 0.086 2.317 0.198 2.666 0.064 0.2 0.132 0.328 0.179 0.401-0-0.013-0.001-0.026-0.001-0.040-0.018-0.784-0.073-3.169-0.23-3.35-0.069-0.073-0.298-0.125-0.573-0.155-0.001 0.108-0.001 0.231-0.003 0.362 0.106 0.012 0.409 0.050 0.431 0.115z"></path>
<path fill="#371a45" style="fill: var(--color1, #371a45)" d="M24.498 16.632c-0.312 0-0.446-0.438-0.46-0.488-0.004-0.013-0.006-0.027-0.005-0.041l0.065-2.785c0.002-0.075 0.063-0.134 0.137-0.134h0.527c0.074 0 0.135 0.059 0.137 0.133l0.094 2.916c0.001 0.025-0.005 0.049-0.017 0.070-0.018 0.034-0.188 0.328-0.478 0.328zM24.308 16.087c0.038 0.118 0.124 0.27 0.19 0.27 0.092 0 0.178-0.097 0.219-0.157l-0.089-2.742h-0.259l-0.061 2.628z"></path>
<path fill="#371a45" style="fill: var(--color1, #371a45)" d="M25.908 14.59c-0.063 0-0.115-0.020-0.153-0.041-0.16-0.091-0.27-0.334-0.329-0.723-0.135 0.024-0.266 0.001-0.334-0.114-0.043-0.074-0.079-0.161-0.102-0.225l-0.245-0.029c-0.075-0.009-0.129-0.077-0.12-0.153s0.077-0.129 0.153-0.12l0.331 0.040c0.054 0.006 0.099 0.044 0.115 0.097 0 0.001 0.042 0.136 0.098 0.238 0.033 0.003 0.11-0.014 0.166-0.038 0.040-0.017 0.086-0.015 0.124 0.007s0.063 0.061 0.067 0.104c0.046 0.436 0.143 0.637 0.213 0.677 0.007 0.004 0.019 0.011 0.050-0.004 0.001-0.001 0.106-0.057-0.101-0.696-0.015-0.048-0.023-0.072-0.027-0.091-0.007-0.029-0.008-0.083-0.018-0.519-0.018-0.759-0.071-3.062-0.217-3.313-0.179-0.171-1.482-0.21-1.731-0.098-0.084 0.133-0.251 0.907-0.381 1.968-0.134 1.092-0.148 1.817-0.093 1.985 0.020 0.002 0.038-0.001 0.057-0.010 0.093-0.045 0.165-0.203 0.183-0.254 0.019-0.055 0.071-0.093 0.13-0.093h0.494c0.076 0 0.137 0.062 0.137 0.137s-0.061 0.137-0.137 0.137h-0.402c-0.048 0.099-0.14 0.25-0.284 0.32-0.095 0.046-0.199 0.051-0.301 0.015-0.125-0.045-0.156-0.201-0.17-0.364-0.044-0.5 0.061-1.543 0.165-2.286 0.232-1.659 0.394-1.751 0.454-1.786 0.177-0.101 0.672-0.118 1.042-0.102 0.384 0.017 0.877 0.073 1.042 0.246 0.158 0.166 0.233 1.080 0.289 3.492 0.005 0.228 0.010 0.426 0.013 0.47 0.003 0.012 0.012 0.038 0.019 0.061 0.092 0.285 0.284 0.878-0.045 1.030-0.054 0.025-0.104 0.035-0.148 0.035z"></path>
<path fill="#371a45" style="fill: var(--color1, #371a45)" d="M24.673 12.646c-0.183 0-0.419-0.042-0.512-0.125-0.064-0.057-0.106-0.095-0.067-1.65 0.018-0.739 0.049-1.476 0.049-1.484 0.003-0.076 0.066-0.135 0.143-0.132 0.076 0.003 0.135 0.067 0.132 0.143-0.051 1.25-0.084 2.653-0.048 2.929 0.093 0.035 0.317 0.060 0.406 0.037 0.035-0.296 0.056-1.937 0.062-2.956 0-0.076 0.062-0.137 0.137-0.137 0 0 0 0 0.001 0 0.076 0 0.137 0.062 0.137 0.138 0 0.007-0.004 0.738-0.015 1.474-0.023 1.519-0.052 1.575-0.074 1.621-0.034 0.067-0.102 0.111-0.203 0.13-0.040 0.008-0.091 0.011-0.146 0.011z"></path>
<path fill="#fff" style="fill: var(--color3, #fff)" d="M22.036 11.534c-0.395 0.789-0.993 1.483-1.762 2.001-0.157 0.105-0.32 0.204-0.491 0.293-0.083 0.044-0.168 0.086-0.254 0.126-0.261 0.121-0.528 0.219-0.797 0.295-0.232 0.066-0.466 0.115-0.7 0.149-0.283 0.041-0.567 0.058-0.848 0.054-0.103-0.002-0.205-0.006-0.307-0.014-1.868-0.136-3.612-1.235-4.47-3.026-1.264-2.638-0.124-5.778 2.546-7.013 0.514-0.237 1.048-0.388 1.584-0.455 0.062-0.009 0.126-0.015 0.189-0.021 0.169-0.015 0.337-0.023 0.505-0.023 0.388 0.001 0.773 0.044 1.148 0.127s0.74 0.204 1.088 0.362c0.111 0.050 0.22 0.104 0.327 0.162 0.161 0.087 0.317 0.181 0.469 0.285 0.758 0.513 1.393 1.225 1.814 2.104 0.727 1.518 0.659 3.201-0.039 4.592z"></path>
<path fill="#371a45" style="fill: var(--color1, #371a45)" d="M17.264 14.468c-0.027 0-0.054-0-0.081-0.001-0.103-0.002-0.206-0.006-0.308-0.014-1.936-0.141-3.654-1.304-4.482-3.035-0.611-1.274-0.684-2.706-0.208-4.030 0.48-1.335 1.461-2.401 2.761-3.003 0.507-0.234 1.042-0.388 1.588-0.457 0.059-0.008 0.123-0.015 0.189-0.021 0.168-0.015 0.338-0.023 0.506-0.023 0.385 0.001 0.772 0.044 1.151 0.127 0.375 0.082 0.742 0.204 1.091 0.363 0.112 0.051 0.222 0.106 0.328 0.163 0.164 0.089 0.323 0.185 0.471 0.286 0.782 0.53 1.411 1.259 1.819 2.11 0.705 1.471 0.691 3.15-0.039 4.606-0.404 0.807-1.015 1.501-1.767 2.006-0.159 0.107-0.325 0.206-0.492 0.294-0.077 0.041-0.16 0.082-0.255 0.127-0.258 0.119-0.527 0.219-0.799 0.296-0.228 0.065-0.464 0.115-0.702 0.15-0.253 0.036-0.512 0.055-0.77 0.055zM17.216 3.917c-0.163 0-0.328 0.008-0.491 0.023-0.066 0.006-0.129 0.012-0.188 0.020-0.544 0.068-1.075 0.221-1.579 0.454-1.293 0.598-2.267 1.658-2.745 2.986-0.474 1.317-0.4 2.74 0.207 4.007 0.824 1.721 2.532 2.878 4.457 3.018 0.101 0.007 0.204 0.012 0.306 0.014 0.284 0.004 0.569-0.014 0.846-0.054 0.237-0.034 0.472-0.084 0.698-0.149 0.27-0.076 0.538-0.175 0.794-0.294 0.094-0.044 0.177-0.086 0.254-0.126 0.167-0.088 0.331-0.186 0.49-0.293 0.747-0.502 1.355-1.192 1.757-1.995 0.725-1.448 0.739-3.117 0.038-4.579-0.405-0.846-1.030-1.572-1.809-2.098-0.147-0.1-0.305-0.196-0.468-0.284-0.105-0.057-0.215-0.111-0.326-0.162-0.347-0.158-0.712-0.279-1.085-0.361-0.376-0.083-0.761-0.125-1.144-0.126-0.004-0-0.008-0-0.013-0z"></path>
<path fill="#371a45" style="fill: var(--color1, #371a45)" opacity="0.2" d="M12.406 11.413c0.857 1.791 2.602 2.891 4.47 3.026 0.102 0.007 0.204 0.012 0.307 0.014 0.282 0.004 0.566-0.013 0.848-0.054 0.234-0.034 0.469-0.083 0.7-0.149 0.269-0.076 0.535-0.174 0.797-0.295 0.086-0.041 0.171-0.082 0.254-0.126 0.17-0.090 0.334-0.188 0.491-0.294 0.769-0.517 1.367-1.211 1.762-2.001 0.217-0.433 0.374-0.896 0.464-1.372-0.395 0.745-0.972 1.399-1.706 1.892-0.157 0.106-0.32 0.204-0.491 0.294-0.083 0.044-0.168 0.086-0.254 0.126-0.262 0.121-0.528 0.219-0.797 0.295-0.232 0.066-0.466 0.115-0.7 0.149-0.283 0.041-0.567 0.058-0.848 0.054-0.103-0.002-0.205-0.006-0.307-0.014-1.868-0.136-3.612-1.235-4.47-3.026-0.501-1.045-0.624-2.168-0.425-3.221-0.749 1.412-0.841 3.144-0.095 4.701z"></path>
<path fill="#371a45" style="fill: var(--color1, #371a45)" d="M17.264 14.569c-0.027 0-0.055-0-0.082-0.001-0.105-0.002-0.21-0.007-0.314-0.014-1.972-0.143-3.722-1.328-4.566-3.092-0.622-1.299-0.698-2.758-0.212-4.108 0.49-1.361 1.489-2.447 2.813-3.060 0.517-0.239 1.061-0.395 1.618-0.465 0.060-0.008 0.125-0.015 0.193-0.021 0.17-0.016 0.343-0.023 0.515-0.023 0.393 0.001 0.787 0.045 1.172 0.129 0.382 0.083 0.755 0.208 1.111 0.37 0.114 0.052 0.227 0.108 0.334 0.166 0.167 0.090 0.329 0.188 0.48 0.291 0.797 0.54 1.438 1.283 1.853 2.15 0.718 1.499 0.704 3.21-0.039 4.694-0.412 0.823-1.035 1.53-1.801 2.045-0.162 0.109-0.331 0.21-0.501 0.3-0.078 0.041-0.163 0.084-0.259 0.129-0.264 0.122-0.538 0.223-0.814 0.301-0.232 0.066-0.472 0.117-0.715 0.152-0.257 0.037-0.521 0.056-0.785 0.056zM17.216 4.018c-0.16 0-0.321 0.007-0.481 0.022-0.065 0.005-0.126 0.012-0.184 0.020-0.534 0.067-1.056 0.217-1.551 0.446-1.268 0.586-2.224 1.626-2.692 2.928-0.465 1.291-0.393 2.687 0.203 3.929 0.809 1.689 2.485 2.823 4.374 2.961 0.099 0.007 0.201 0.012 0.301 0.013 0.278 0.004 0.558-0.014 0.83-0.053 0.233-0.034 0.463-0.083 0.685-0.146 0.265-0.075 0.528-0.172 0.78-0.288 0.092-0.043 0.174-0.084 0.249-0.124 0.164-0.086 0.325-0.183 0.481-0.287 0.733-0.493 1.329-1.169 1.723-1.956 0.711-1.419 0.725-3.056 0.038-4.49-0.397-0.83-1.011-1.542-1.774-2.058-0.145-0.099-0.299-0.192-0.46-0.279-0.103-0.056-0.211-0.109-0.32-0.159-0.341-0.155-0.699-0.274-1.065-0.354-0.369-0.081-0.747-0.123-1.123-0.124-0.004-0-0.008-0-0.012-0z"></path>
<path fill="#371a45" style="fill: var(--color1, #371a45)" d="M17.264 14.603c-0.028 0-0.055-0-0.082-0.001-0.105-0.002-0.211-0.007-0.316-0.014-1.984-0.144-3.745-1.336-4.594-3.111-0.626-1.307-0.702-2.775-0.213-4.134 0.493-1.369 1.498-2.463 2.831-3.079 0.52-0.24 1.067-0.397 1.628-0.468 0.060-0.008 0.126-0.015 0.195-0.021 0.167-0.015 0.337-0.023 0.505-0.023 0.004 0 0.009 0 0.013 0 0.395 0.001 0.792 0.045 1.179 0.13 0.384 0.084 0.76 0.209 1.118 0.372 0.115 0.052 0.228 0.108 0.336 0.167 0.168 0.091 0.331 0.189 0.483 0.293 0.802 0.543 1.447 1.291 1.864 2.163 0.723 1.509 0.708 3.23-0.040 4.724-0.415 0.828-1.041 1.539-1.812 2.058-0.163 0.11-0.333 0.211-0.504 0.302-0.078 0.042-0.164 0.084-0.261 0.13-0.265 0.123-0.541 0.225-0.82 0.303-0.233 0.066-0.475 0.118-0.72 0.153-0.259 0.038-0.524 0.056-0.79 0.056zM17.216 4.051c-0.158 0-0.319 0.007-0.478 0.022-0.065 0.005-0.125 0.012-0.182 0.020-0.531 0.067-1.049 0.216-1.541 0.443-1.26 0.583-2.21 1.616-2.675 2.909-0.462 1.283-0.39 2.669 0.201 3.903 0.803 1.678 2.469 2.805 4.346 2.942 0.099 0.007 0.199 0.011 0.299 0.013 0.277 0.004 0.554-0.014 0.824-0.053 0.231-0.033 0.46-0.082 0.681-0.145 0.264-0.074 0.524-0.171 0.775-0.287 0.092-0.043 0.173-0.083 0.247-0.123 0.163-0.086 0.323-0.182 0.478-0.285 0.728-0.49 1.32-1.162 1.712-1.943 0.706-1.41 0.72-3.036 0.037-4.461-0.395-0.825-1.004-1.532-1.763-2.045-0.144-0.098-0.298-0.191-0.457-0.277-0.102-0.055-0.209-0.108-0.318-0.158-0.339-0.154-0.695-0.273-1.058-0.352-0.367-0.081-0.742-0.122-1.116-0.123-0.004-0-0.008-0-0.012-0z"></path>
<path fill="#371a45" style="fill: var(--color1, #371a45)" d="M21.277 12.657c-3.047 2.263-7.366 0.867-7.736-2.85-0.252-2.529 2.064-4.714 4.542-4.786 1.803-0.052 3.59 0.674 4.45 3.412 0 0 0.191 1.269-0.126 2.129s-0.773 1.643-0.773 1.643l-0.357 0.452z"></path>
<path fill="#220f2d" style="fill: var(--color7, #220f2d)" d="M13.541 9.807c0.37 3.717 4.689 5.113 7.736 2.85l0.072-0.092c-3.422 0.722-6.934-1.197-7.379-4.949-0.34 0.663-0.507 1.41-0.43 2.191z"></path>
<path fill="#371a45" style="fill: var(--color1, #371a45)" d="M18.046 14.44c-1.263 0-2.477-0.406-3.41-1.155-1.040-0.835-1.664-2.015-1.803-3.412-0.128-1.284 0.309-2.568 1.231-3.616 1.023-1.164 2.525-1.884 4.018-1.928 0.829-0.024 1.582 0.1 2.236 0.369l0.014 0.006 0.013 0.009c0.802 0.543 1.447 1.291 1.865 2.164 0.723 1.509 0.708 3.23-0.040 4.724-0.415 0.828-1.041 1.539-1.812 2.058-0.163 0.11-0.333 0.211-0.504 0.302-0.078 0.042-0.164 0.084-0.261 0.13-0.265 0.123-0.541 0.225-0.82 0.303l-0.023 0.005c-0.236 0.028-0.471 0.042-0.704 0.042zM18.282 4.626c-0.064 0-0.128 0.001-0.192 0.003-1.411 0.041-2.833 0.724-3.802 1.826-0.866 0.985-1.278 2.189-1.158 3.389 0.131 1.315 0.716 2.424 1.693 3.208 1.041 0.835 2.454 1.218 3.88 1.050 0.26-0.074 0.516-0.169 0.763-0.283 0.092-0.043 0.173-0.083 0.247-0.123 0.163-0.086 0.323-0.182 0.478-0.285 0.728-0.49 1.32-1.162 1.712-1.943 0.706-1.41 0.72-3.036 0.037-4.461-0.393-0.82-0.998-1.524-1.75-2.037-0.561-0.229-1.202-0.344-1.907-0.344z"></path>
<path fill="#fff" style="fill: var(--color3, #fff)" d="M11.162 9.654c-0.024 1.040 0.578 1.929 1.346 1.985s1.409-0.742 1.433-1.782c0-0.006 0-0.013 0-0.020 0.016-1.031-0.584-1.909-1.346-1.965-0.593-0.043-1.111 0.423-1.327 1.117-0.063 0.204-0.101 0.428-0.106 0.665z"></path>
<path fill="#371a45" style="fill: var(--color1, #371a45)" opacity="0.2" d="M11.162 9.654c-0.024 1.040 0.578 1.929 1.346 1.985s1.409-0.742 1.433-1.782c0-0.006 0-0.013 0-0.020-0.087 0.101-0.221 0.196-0.398 0.148-0.31-0.085-0.854-0.794-0.854-0.794s-0.616-0.091-1.421-0.201c-0.063 0.204-0.101 0.429-0.106 0.665z"></path>
<path fill="#371a45" style="fill: var(--color1, #371a45)" d="M12.585 11.791c-0.029 0-0.059-0.001-0.088-0.003-0.844-0.062-1.51-1.020-1.485-2.137 0.015-0.644 0.251-1.22 0.648-1.581 0.277-0.252 0.604-0.371 0.945-0.346 0.844 0.061 1.51 1.020 1.485 2.137-0.015 0.644-0.251 1.22-0.648 1.581-0.253 0.23-0.548 0.35-0.857 0.35zM11.311 9.658c-0.022 0.96 0.52 1.782 1.208 1.832 0.258 0.019 0.508-0.074 0.723-0.27 0.332-0.301 0.537-0.812 0.55-1.367 0.022-0.96-0.52-1.782-1.208-1.832-0.258-0.019-0.508 0.074-0.723 0.27-0.332 0.301-0.537 0.812-0.55 1.367z"></path>
<path fill="#fff" style="fill: var(--color3, #fff)" d="M12.148 11.399c0.579-0.020 1.024-0.725 0.995-1.574s-0.522-1.521-1.101-1.501-1.024 0.725-0.995 1.574c0.029 0.849 0.522 1.521 1.101 1.501z"></path>
<path fill="#371a45" style="fill: var(--color1, #371a45)" opacity="0.2" d="M12.066 11.397c-0.58-0.047-1.036-0.772-1.020-1.62 0.002-0.092 0.009-0.182 0.021-0.269 0.141 0.588 0.518 1.027 0.969 1.063 0.509 0.040 0.944-0.447 1.060-1.133 0.034 0.161 0.051 0.332 0.048 0.508-0.016 0.848-0.499 1.498-1.078 1.451z"></path>
<path fill="#371a45" style="fill: var(--color1, #371a45)" d="M12.125 11.549c-0.024 0-0.048-0.001-0.072-0.003-0.667-0.054-1.175-0.832-1.157-1.772 0.011-0.547 0.209-1.048 0.53-1.339 0.209-0.19 0.455-0.279 0.71-0.258 0.667 0.054 1.175 0.832 1.157 1.772-0.011 0.547-0.209 1.048-0.53 1.339-0.19 0.172-0.409 0.261-0.638 0.261zM11.196 9.78c-0.014 0.756 0.39 1.429 0.882 1.468 0.171 0.014 0.338-0.049 0.485-0.182 0.261-0.237 0.423-0.656 0.432-1.123 0.014-0.756-0.39-1.429-0.882-1.468-0.17-0.014-0.338 0.049-0.485 0.182-0.262 0.237-0.423 0.656-0.432 1.123z"></path>
<path fill="#fff" style="fill: var(--color3, #fff)" opacity="0.5" d="M16.758 6.147c0 0 2.094-0.241 3.421 1.044 0.001 0.001 0.003 0.003 0.004 0.004 0.279 0.271 0.719 0.931 0.821 1.303 0.136 0.492 0.156 0.85 0.162 1.166 0.017 0.961-0.158 1.414-0.158 1.414 0.546-0.515 0.848-1.096 0.842-1.896-0.001-0.079-0.005-0.16-0.011-0.244-0.001-0.019-0.003-0.038-0.005-0.057 0-0 0-0.001-0-0.001-0.025-0.168-0.067-0.388-0.135-0.632-0.205-0.736-0.647-1.694-1.594-2.129-1.771-0.814-3.428-0.071-3.346 0.029z"></path>
<path fill="#fff" style="fill: var(--color3, #fff)" opacity="0.5" d="M15.932 8.891c0.115-0.439-0.102-0.876-0.484-0.976s-0.785 0.175-0.9 0.613c-0.115 0.439 0.102 0.876 0.484 0.976s0.785-0.175 0.9-0.613z"></path>
<path fill="#fff" style="fill: var(--color3, #fff)" opacity="0.5" d="M15.152 10.259c0.064-0.176-0.008-0.364-0.161-0.42s-0.329 0.042-0.393 0.218c-0.064 0.176 0.008 0.364 0.161 0.42s0.329-0.042 0.393-0.218z"></path>
<path fill="#fff" style="fill: var(--color3, #fff)" d="M23.779 14.701c-0.010 0-0.477 0.079-0.54-0.066s0.098-0.497 0.27-0.668c0.172-0.171 0.395-0.26 0.464-0.237s0.484 0.138 0.51 0.155 0.174 0.191 0.188 0.237c0.013 0.046 0.049 0.464 0.023 0.52s-0.072 0.276-0.214 0.263c-0.142-0.013-0.701-0.204-0.701-0.204z"></path>
<path fill="#fff" style="fill: var(--color3, #fff)" d="M24.742 13.96c0.075 0.187 0.224 0.645 0.010 0.916-0.085 0.108-0.204 0.146-0.328 0.146-0.011 0-0.023-0.001-0.034-0.001 0.003 0.181 0.049 0.623 0.417 0.722 0.41 0.11 0.715 0.043 0.815 0.014 0.167-0.551 0.041-1.257-0.188-1.585-0.2-0.286-0.539-0.247-0.692-0.212z"></path>
<path fill="#371a45" style="fill: var(--color1, #371a45)" opacity="0.2" d="M23.795 14.598c0 0 0.132-0.115 0.221-0.095s0.349 0.115 0.491 0.063c0.142-0.053 0.197-0.168 0.197-0.168s0.052 0.211 0 0.342c-0.052 0.132-0.131 0.194-0.279 0.181s-0.346-0.033-0.379-0.072c-0.033-0.040-0.25-0.25-0.25-0.25z"></path>
<path fill="#371a45" style="fill: var(--color1, #371a45)" opacity="0.2" d="M25.266 15.168c-0.296 0.097-0.548-0.095-0.646-0.187-0.061 0.029-0.127 0.041-0.196 0.041-0.004 0-0.008-0-0.012-0.001-0.008 0.005-0.015 0.010-0.022 0.015 0.005 0.189 0.058 0.61 0.417 0.706 0.41 0.11 0.715 0.043 0.815 0.014 0.094-0.31 0.095-0.669 0.038-0.982-0.063 0.145-0.18 0.324-0.393 0.394z"></path>
<path fill="#371a45" style="fill: var(--color1, #371a45)" d="M25.68 15.967c-0.015 0-0.031-0.003-0.046-0.008-0.071-0.026-0.108-0.104-0.083-0.176 0.19-0.528 0.067-1.242-0.167-1.577-0.231-0.331-0.68-0.174-0.699-0.167-0.039 0.014-0.082 0.010-0.117-0.011-0.177-0.105-0.525-0.249-0.703-0.186s-0.491 0.51-0.657 0.807c-0.037 0.066-0.121 0.090-0.187 0.053s-0.090-0.121-0.053-0.187c0.075-0.135 0.467-0.812 0.805-0.932 0.303-0.108 0.726 0.094 0.881 0.178 0.25-0.070 0.698-0.083 0.957 0.288 0.272 0.39 0.426 1.199 0.2 1.827-0.020 0.056-0.073 0.091-0.13 0.091z"></path>
<path fill="#371a45" style="fill: var(--color1, #371a45)" d="M24.422 15.082c-0.233 0-0.491-0.117-0.654-0.222-0.064-0.041-0.082-0.126-0.041-0.19s0.126-0.082 0.19-0.041c0.107 0.068 0.531 0.286 0.667 0.114 0.154-0.195-0.003-0.635-0.070-0.773-0.033-0.068-0.004-0.15 0.064-0.184s0.15-0.004 0.184 0.064c0.034 0.071 0.325 0.7 0.038 1.063-0.097 0.122-0.232 0.168-0.378 0.168z"></path>
<path fill="#371a45" style="fill: var(--color1, #371a45)" d="M25.256 16.017c-0.144 0-0.315-0.017-0.504-0.068-0.635-0.171-0.576-0.989-0.573-1.024 0.006-0.076 0.073-0.132 0.148-0.126s0.132 0.072 0.126 0.148c-0.001 0.007-0.043 0.625 0.371 0.736 0.477 0.128 0.809 0.006 0.812 0.004 0.071-0.027 0.15 0.008 0.177 0.079s-0.007 0.15-0.078 0.177c-0.011 0.004-0.191 0.073-0.479 0.073z"></path>
</symbol>
</defs>
</svg>
