<svg width="844" height="844" viewBox="0 0 844 844" fill="none" xmlns="http://www.w3.org/2000/svg">
<g clip-path="url(#clip0_1_2)">
<g opacity="0.2">
<path d="M374.052 772.838C466.486 772.838 541.418 764.285 541.418 753.734C541.418 743.183 466.486 734.63 374.052 734.63C281.619 734.63 206.687 743.183 206.687 753.734C206.687 764.285 281.619 772.838 374.052 772.838Z" fill="#371A45"/>
</g>
<path d="M492.797 490.767C501.284 490.767 508.164 483.887 508.164 475.4C508.164 466.913 501.284 460.033 492.797 460.033C484.31 460.033 477.43 466.913 477.43 475.4C477.43 483.887 484.31 490.767 492.797 490.767Z" fill="#50C9FF"/>
<path d="M351.117 335.853C339.248 334.37 321.817 332.711 314.128 333.129L323.938 347.348L310.008 334.173C305.986 337.332 298.987 350.6 294.197 361.319C327.115 358.166 355.212 352.191 365.842 349.747C358.36 344.445 352.813 337.95 351.117 335.853Z" fill="white"/>
<path d="M282.166 434.027C286.146 434.192 289.8 434.352 293.155 434.51C298.7 388.957 289.893 369.999 287.559 365.925C272.671 366.999 256.922 366.699 241.644 366.393C213.353 365.819 186.627 365.283 175.012 374.352C165.059 382.123 159.229 390.863 158.596 398.959C158.25 403.4 159.503 407.285 162.221 410.19C165.342 413.526 175.778 414.123 184.986 414.649C196.836 415.326 207.071 415.913 207.81 422.002C208.092 424.338 207.989 427.543 207.867 431.252C207.628 438.509 207.305 448.449 210.551 451.58C211.308 452.312 212.234 452.614 213.481 452.53C220.21 452.072 227.232 443.741 231.876 438.228C235.318 434.147 236.932 432.299 238.825 432.48C239.289 432.523 243.112 432.645 247.952 432.799C261.359 433.227 272.578 433.63 281.987 434.019C282.048 434.019 282.107 434.027 282.166 434.027Z" fill="white"/>
<path d="M307.155 478.504C314.466 472.226 321.387 466.28 322.655 464.761C322.748 464.244 322.879 463.468 323.045 462.508C324.556 453.72 326.071 445.227 327.12 441.218C322.712 440.209 308.094 439.18 283.502 438.137C281.13 444.904 271.091 474.347 272.403 483.969C273.536 492.282 282.286 496.342 285.295 497.504C293.094 490.581 300.734 484.019 307.155 478.504Z" fill="white"/>
<path d="M652.003 419.77C639.007 416.271 637.959 401.413 637.996 396.222C632.135 394.8 626.921 391.511 626.531 391.259C625.592 390.658 625.322 389.411 625.923 388.472C626.524 387.535 627.776 387.263 628.71 387.862C628.858 387.955 643.345 396.963 648.437 390.525C652.847 384.944 649.116 373.573 647.025 368.984C643.067 366.741 633.253 362.257 627.647 364.247C621.617 366.387 612.474 380.855 609.461 386.248C609.235 386.653 608.876 386.968 608.446 387.139L574.975 400.476C574.483 408.205 573.241 451.962 605.555 470.853C613.7 465.557 621.657 458.385 628.073 448.818C628.36 448.392 628.797 448.092 629.297 447.976C629.588 447.909 658.499 441.093 669.636 426.245C670.887 424.576 671.942 422.743 672.831 420.795C670.824 421.181 668.148 421.523 664.924 421.523C661.255 421.523 656.883 421.082 652.003 419.77Z" fill="white"/>
<path d="M651.353 368.855C653.336 373.791 657.263 385.866 651.604 393.025C649.352 395.874 646.228 396.878 642.947 396.878C642.649 396.878 642.349 396.857 642.05 396.84C642.132 401.622 643.347 413.26 653.051 415.87C663.878 418.784 671.919 417.001 674.542 416.238C678.956 401.708 675.618 383.073 669.592 374.436C664.327 366.887 655.389 367.912 651.353 368.855Z" fill="white"/>
<path d="M385.811 605.205C382.336 606.889 375.65 612.571 373.73 631.599C373.354 635.313 372.902 639.125 372.466 642.814C369.524 667.631 366.745 691.071 383.758 698.843C392.38 702.782 401.244 702.375 408.72 697.703C416.396 692.907 421.405 684.146 421.992 674.647C388.683 653.604 385.904 615.81 385.811 605.205Z" fill="white"/>
<g opacity="0.25">
<path d="M626.362 385.697C626.362 385.697 629.835 382.659 632.179 383.18C634.523 383.701 641.383 386.219 645.116 384.83C648.848 383.442 650.308 380.403 650.308 380.403C650.308 380.403 651.682 385.959 650.308 389.432C648.935 392.905 646.852 394.555 642.944 394.207C639.037 393.859 633.829 393.34 632.96 392.298C632.093 391.253 626.362 385.697 626.362 385.697Z" fill="#261C1B"/>
</g>
<path d="M389.491 511.833C401.459 514.376 417.006 517.323 435.177 520.351C445.835 522.128 455.427 523.605 463.879 524.799C465.086 514.542 466.671 500.572 466.838 497.648C465.468 495.871 457.997 490.379 452.479 486.321C444.163 480.209 439.017 476.351 437.652 474.355C434.949 470.399 440.874 444.334 445.033 427.733C432.556 425.258 420.481 423.11 410.178 421.439C407.236 432.506 391.329 492.852 389.491 511.833Z" fill="white"/>
<path d="M507.187 528.439C510.626 521.797 522.312 462.065 517.596 449.434C516.309 445.982 497.901 438.504 450.263 428.786C449.841 428.699 449.419 428.615 448.997 428.53C444.117 448.065 439.891 469.287 441.049 472.191C442.062 473.655 449.164 478.877 454.872 483.074C468.494 493.09 470.891 495.211 470.891 497.264C470.891 499.585 468.656 518.765 467.88 525.36C490.803 528.49 504.484 529.382 507.187 528.439ZM492.797 458.013C502.383 458.013 510.181 465.812 510.181 475.4C510.181 484.986 502.383 492.784 492.797 492.784C483.211 492.784 475.413 484.986 475.413 475.4C475.413 465.814 483.213 458.013 492.797 458.013Z" fill="white"/>
<path d="M570.955 400.056L519.17 363.604C514.709 365.496 497.006 372.466 472.245 375.156C446.392 377.962 407.833 376.337 370.546 352.786C364.87 354.168 331.576 361.996 291.969 365.579C295.411 372.51 302.302 392.468 297.2 434.704C322.273 435.964 328.609 437.067 330.523 438.281C348.709 439.918 360.31 441.207 367.722 442.214C368.811 433.917 372.042 415.351 379.279 413.763C383.516 412.826 418.978 418.286 450.85 424.781C495.274 433.833 519.003 441.653 521.381 448.018C522.959 452.243 522.932 461.13 522.014 471.591L531.591 475.469C529.682 472.973 528.439 469.975 528.325 466.361C527.973 455.112 528.321 416.029 528.323 415.634C528.333 414.526 529.234 413.634 530.342 413.634C530.346 413.634 530.355 413.634 530.361 413.634C531.475 413.644 532.372 414.556 532.361 415.67C532.357 416.062 532.011 455.066 532.359 466.234C532.604 473.992 540.111 478.345 547.163 480.73C550.925 481.751 555.234 482.77 559.372 483.414C559.407 483.418 559.441 483.42 559.447 483.422C559.492 483.426 559.534 483.441 559.578 483.447C562.783 483.937 565.877 484.196 568.516 484.042C575.965 483.616 588.783 480.664 601.669 473.233C569.105 452.565 570.445 407.926 570.955 400.056Z" fill="white"/>
<path d="M380.138 417.71C376.903 418.419 373.301 430.896 371.719 442.794C380.252 444.109 380.889 444.853 381.216 445.242C381.56 445.653 381.767 446.295 381.718 446.828C381.539 448.795 375.278 473.754 374.027 478.738C373.894 479.263 373.559 479.711 373.092 479.987C372.78 480.171 372.426 480.263 372.069 480.263C371.894 480.263 371.719 480.24 371.546 480.194L362.587 477.786C360.517 485.298 357.683 500.585 363.215 504.763C364.741 505.915 372.679 508.151 385.524 510.974C387.618 491.086 402.928 432.983 406.175 420.797C391.941 418.561 381.847 417.375 380.138 417.71Z" fill="white"/>
<path d="M369.244 446.493C369.218 446.491 369.197 446.48 369.172 446.478C359.818 445.214 344.977 443.651 330.983 442.38C329.825 446.902 327.833 458.478 327.023 463.194C326.972 463.487 326.926 463.759 326.881 464.016L370.609 475.767C373.065 465.975 376.439 452.312 377.424 447.833C375.878 447.461 373.029 447.004 369.294 446.497C369.277 446.493 369.261 446.495 369.244 446.493Z" fill="white"/>
<path d="M316.928 589.836C316.878 589.836 316.829 589.836 316.779 589.836C309.02 606.944 279.919 612.141 269.251 613.487C280.778 626.847 283.63 631.154 284.297 632.299C285.472 633.669 287.006 635.042 288.572 636.178C290.243 637.385 292.066 638.389 294.012 639.111C295.953 639.87 298.044 640.174 300.154 640.168C302.293 640.223 304.376 639.583 306.433 638.864C304.528 639.883 302.49 640.879 300.251 641.172C298.046 641.526 295.712 641.55 293.478 641.056C291.235 640.602 289.055 639.809 287.004 638.767C285.645 638.06 284.369 637.292 283.118 636.391C280.124 641.107 272.69 654.689 278.674 665.306C287.861 681.604 313.002 670.087 317.947 667.617C331.538 660.822 363.118 634.954 362.156 619.54C361.285 605.612 348.796 592.106 345.922 589.173C342.411 589.325 329.563 589.836 316.928 589.836Z" fill="white"/>
<path d="M521.605 475.786C519.208 498.551 513.274 526.498 510.415 530.914C509.728 531.975 508.449 532.323 507.411 532.505C506.438 532.678 505.05 532.758 503.298 532.758C495.905 532.758 482.051 531.304 465.772 529.072C465.728 529.074 465.688 529.095 465.643 529.095C465.563 529.095 465.485 529.091 465.403 529.08C465.23 529.059 465.069 529.013 464.915 528.952C423.454 523.227 366.868 512.582 360.776 507.982C352.621 501.823 356.885 483.217 358.681 476.735L325.345 467.779C323.689 469.551 319.697 473.047 309.784 481.563C288.739 499.637 249.567 533.286 243.884 547.494C236.525 565.898 241.827 582.328 262.798 606.098C263.936 607.387 265.01 608.611 266.031 609.779C271.983 609.17 303.298 605.241 312.255 589.806C306.482 589.741 301.008 589.545 296.799 589.125C295.689 589.015 294.881 588.025 294.993 586.916C295.103 585.806 296.088 584.97 297.202 585.109C311.858 586.569 343.322 585.246 346.367 585.114L381.096 574.426C375.093 572.274 369.299 569.495 364.167 565.759C370.984 568.668 377.985 570.81 385.071 572.473C388.618 573.285 392.179 573.99 395.766 574.53C397.568 574.749 399.358 575.03 401.153 575.277L406.572 575.72C408.372 575.946 410.186 575.925 411.997 576.003C413.807 576.049 415.619 576.169 417.432 576.074L422.878 575.975C423.789 575.994 424.688 575.836 425.595 575.783L428.317 575.585C431.966 575.418 435.557 574.787 439.205 574.357C441.047 574.22 442.815 573.732 444.638 573.445C446.449 573.114 448.276 572.812 450.12 572.529C448.405 573.219 446.672 573.888 444.925 574.526C443.172 575.142 441.437 575.863 439.627 576.294C436.019 577.193 432.415 578.267 428.697 578.712C421.323 580.071 413.763 580.159 406.278 579.742C399.421 579.286 392.629 578.001 386.06 576.047L389.867 602.19C389.867 602.192 389.867 602.192 389.867 602.194C389.886 602.331 389.892 602.47 389.884 602.612C389.854 603.07 387.362 648.521 424.749 671.619C428.76 671.927 458.499 673.316 472.324 648.888C487.653 621.806 518.45 512.139 518.758 511.036C518.99 510.209 519.72 509.618 520.579 509.565C520.651 509.561 528.12 509.025 530.988 504.581C533.151 501.233 533.75 488.674 533.64 480.654L521.605 475.786Z" fill="white"/>
<g opacity="0.2">
<path d="M331.783 460.797L367.64 470.087C367.64 470.087 369.028 460.972 368.855 460.797C368.682 460.624 334.821 454.72 334.821 454.72C334.821 454.72 332.582 456.475 331.783 460.797Z" fill="#371A45"/>
</g>
<g opacity="0.25">
<path d="M359.088 483.196L321.843 473.121L326.4 467.783C326.4 467.783 359.719 476.176 359.989 476.626C360.259 477.075 359.088 483.196 359.088 483.196Z" fill="#261C1B"/>
</g>
<g opacity="0.2">
<path d="M516.536 502.21C516.536 502.21 523.438 502.864 525.783 499.218C528.127 495.571 528.907 476.949 528.907 476.949L520.643 473.82L516.536 502.21Z" fill="#371A45"/>
</g>
<g opacity="0.2">
<path d="M357.997 507.548C357.997 507.548 365.6 518.096 385.655 523.696C405.711 529.296 486.845 541.276 497.652 541.276C508.459 541.276 511.586 539.974 511.846 539.453C512.105 538.932 513.321 529.945 513.321 529.945L509.502 529.424C509.502 529.424 472.646 530.336 428.889 522.001C385.134 513.669 357.997 507.548 357.997 507.548Z" fill="#371A45"/>
</g>
<g opacity="0.2">
<path d="M483.914 467.439C483.914 467.439 485.281 480.852 494.006 481.764C502.731 482.675 508.592 475.4 508.592 475.4C508.592 475.4 503.383 492.833 491.077 490.358C478.772 487.883 475.451 478.767 478.185 472.712C480.918 466.656 483.914 467.439 483.914 467.439Z" fill="#371A45"/>
</g>
<g opacity="0.2">
<path d="M162.223 410.192C165.344 413.528 175.78 414.125 184.988 414.651C196.838 415.328 207.073 415.915 207.812 422.004C208.095 424.34 207.991 427.545 207.869 431.254C207.63 438.511 207.308 448.451 210.553 451.582C211.12 452.131 211.783 452.437 212.604 452.521C212.606 452.521 212.606 452.521 212.608 452.521C212.88 452.549 213.171 452.551 213.481 452.53C220.21 452.072 227.232 443.741 231.876 438.228C235.318 434.147 236.932 432.299 238.825 432.48C239.289 432.523 243.112 432.645 247.952 432.799C261.359 433.227 272.578 433.63 281.987 434.019C282.044 434.014 282.103 434.023 282.162 434.025C284.152 434.107 286.061 434.187 287.891 434.268C288.106 433.008 288.625 417.649 288.625 417.649C288.625 417.649 244.091 417.295 239.057 418.434C234.02 419.573 228.464 429.623 223.428 431.36C218.391 433.096 223.428 417.122 221.17 412.954C218.913 408.787 194.082 406.878 178.107 404.62C162.132 402.362 160.674 391.226 160.674 391.226C159.495 393.831 158.79 396.425 158.592 398.955C158.25 403.4 159.505 407.285 162.223 410.192Z" fill="#371A45"/>
</g>
<g opacity="0.2">
<path d="M298.658 418.47C298.371 423.479 297.9 428.872 297.196 434.706C322.269 435.966 328.605 437.07 330.519 438.283C348.705 439.92 360.306 441.209 367.718 442.216C368.467 436.5 370.235 425.916 373.626 419.36C371.641 419.719 367.005 420.424 361.3 420.424C354.235 420.426 305.882 418.725 298.658 418.47Z" fill="#371A45"/>
</g>
<g opacity="0.2">
<path d="M286.551 474.948C287.321 479.951 294.41 486.378 296.47 487.712C300.255 484.431 303.865 481.329 307.155 478.504C314.466 472.226 321.387 466.28 322.655 464.761C322.748 464.244 322.879 463.468 323.045 462.508C324.505 454.019 325.968 445.818 327.01 441.655C326.322 441.387 324.976 441.011 323.193 440.604C318.313 440.021 310.084 439.431 298.565 438.838C297.219 439.078 295.995 439.412 294.957 439.872C294.957 439.872 285.681 469.304 286.551 474.948Z" fill="#371A45"/>
</g>
<g opacity="0.2">
<path d="M470.003 506.725C469.289 513.308 468.334 521.493 467.878 525.358C485.657 527.787 497.844 528.865 503.695 528.789C504.725 524.327 505.982 513.498 506.145 512.804C506.347 511.935 470.066 506.733 470.003 506.725Z" fill="#371A45"/>
</g>
<g opacity="0.2">
<path d="M459.929 504.64C459.396 503.041 414.961 494.491 393.365 489.953C391.432 499 389.974 506.849 389.491 511.835C401.459 514.378 417.006 517.326 435.177 520.353C443.917 521.811 451.928 523.063 459.195 524.126C459.558 519.406 460.497 506.343 459.929 504.64Z" fill="#371A45"/>
</g>
<g opacity="0.2">
<path d="M382.659 452.072C382.659 452.072 381.513 452.373 380.425 452.76C378.479 460.995 374.934 475.123 374.027 478.74C373.894 479.265 373.559 479.713 373.092 479.989C372.78 480.173 372.426 480.266 372.069 480.266C371.894 480.266 371.719 480.242 371.546 480.196L362.587 477.788C360.517 485.3 357.683 500.587 363.215 504.765C364.741 505.917 372.679 508.153 385.524 510.977C386.071 505.792 387.518 497.998 389.413 489.109C385.073 488.167 382.26 487.492 381.88 487.233C379.794 485.8 382.659 452.072 382.659 452.072Z" fill="#371A45"/>
</g>
<g opacity="0.25">
<path d="M522.012 471.596L531.589 475.474C529.68 472.978 528.437 469.979 528.323 466.365C528.241 463.723 528.196 459.539 528.177 454.69L522.312 452.365C522.875 457.123 522.683 463.932 522.012 471.596Z" fill="#261C1B"/>
</g>
<g opacity="0.2">
<path d="M544.724 462.052C536.449 458.011 533.653 415.657 533.653 415.657L532.275 427.079C532.199 439.604 532.127 458.912 532.357 466.24C532.602 473.999 540.109 478.352 547.161 480.736C550.923 481.757 555.232 482.776 559.369 483.42C559.405 483.424 559.439 483.426 559.445 483.428C559.49 483.433 559.532 483.447 559.576 483.454C562.781 483.943 565.875 484.203 568.514 484.049C575.962 483.623 588.781 480.671 601.667 473.239C595.092 469.066 589.918 463.905 585.823 458.277C570.725 468.49 551.824 465.519 544.724 462.052Z" fill="#371A45"/>
</g>
<g opacity="0.2">
<path d="M625.929 432.058C614.643 430.322 608.566 434.662 592.937 452.07C591.69 453.458 590.384 454.701 589.04 455.834C593.224 461.584 598.611 466.793 605.553 470.853C613.698 465.557 621.655 458.385 628.071 448.818C628.358 448.392 628.795 448.092 629.295 447.976C629.586 447.909 658.497 441.093 669.634 426.245C670.885 424.576 671.94 422.743 672.828 420.795C670.822 421.181 668.146 421.523 664.922 421.523C661.255 421.523 656.883 421.082 652.005 419.77C652.003 419.77 637.216 433.795 625.929 432.058Z" fill="#371A45"/>
</g>
<g opacity="0.25">
<path d="M665.171 400.716C657.362 403.274 650.72 398.208 648.122 395.796C646.523 396.553 644.763 396.876 642.949 396.876C642.847 396.876 642.744 396.868 642.643 396.864C642.436 396.994 642.24 397.123 642.065 397.248C642.206 402.244 643.603 413.328 653.053 415.87C663.88 418.784 671.921 417.001 674.544 416.238C677.027 408.066 677.057 398.594 675.536 390.333C673.886 394.154 670.784 398.879 665.171 400.716Z" fill="#261C1B"/>
</g>
<g opacity="0.2">
<path d="M306.431 631.523C300.608 630.818 292.127 621.692 283.474 610.841C277.739 612.265 272.589 613.065 269.249 613.487C280.776 626.847 283.628 631.154 284.295 632.299C285.47 633.669 287.004 635.042 288.57 636.178C290.241 637.385 292.064 638.389 294.01 639.111C295.951 639.87 298.042 640.174 300.152 640.168C302.291 640.223 304.374 639.583 306.431 638.864C305.845 639.178 305.239 639.482 304.625 639.771C312.453 638.039 317.196 633.481 317.196 633.481C317.196 633.481 316.85 632.787 306.431 631.523Z" fill="#371A45"/>
</g>
<g opacity="0.2">
<path d="M251.128 538.153C251.128 538.153 249.858 538.985 248.626 539.791C246.395 542.726 244.749 545.338 243.886 547.499C236.527 565.902 241.829 582.333 262.801 606.102C263.938 607.391 265.012 608.615 266.033 609.784C268.242 609.558 273.946 608.872 280.7 607.313C274.79 599.708 268.924 591.633 263.891 585.211C250.693 568.366 251.128 538.153 251.128 538.153Z" fill="#371A45"/>
</g>
<g opacity="0.2">
<path d="M352.967 621.325C352.1 632.96 311.727 663.606 297.402 663.346C283.078 663.086 279.345 649.802 279.345 649.802C278.94 649.255 278.193 649.097 277.353 649.298C276.022 654.446 275.804 660.217 278.672 665.306C287.859 681.604 313 670.087 317.945 667.617C331.536 660.822 363.116 634.954 362.154 619.54C361.283 605.612 348.794 592.106 345.92 589.173C343.213 589.289 334.935 589.621 325.491 589.766C330.2 593.191 353.75 610.853 352.967 621.325Z" fill="#371A45"/>
</g>
<g opacity="0.2">
<path d="M431.105 653.368C410.963 646.688 404.278 587.814 404.278 587.814C404.278 587.814 420.036 587.38 439.321 582.17C458.606 576.961 477.727 563.026 477.432 560.032C477.136 557.036 448.556 568.628 410.79 567.455C373.023 566.284 342.158 541.278 342.158 548.051C342.158 554.822 352.142 565.763 352.142 565.763C352.142 565.763 333.171 575.661 320.669 578.075C308.168 580.488 294.537 583.822 294.537 583.822L295.145 586.325H295.155C295.493 585.531 296.301 585 297.202 585.114C311.858 586.574 343.322 585.251 346.367 585.118L381.096 574.431C375.093 572.278 369.299 569.5 364.167 565.763C370.984 568.672 377.985 570.814 385.071 572.477C388.618 573.289 392.179 573.994 395.766 574.534C397.568 574.753 399.358 575.034 401.153 575.281L406.572 575.724C408.372 575.95 410.186 575.929 411.997 576.007C413.807 576.053 415.619 576.173 417.432 576.079L422.878 575.979C423.789 575.998 424.688 575.84 425.595 575.787L428.317 575.589C431.966 575.422 435.557 574.791 439.205 574.361C441.047 574.224 442.815 573.736 444.638 573.449C446.449 573.118 448.276 572.816 450.12 572.534C448.405 573.224 446.672 573.893 444.925 574.53C443.172 575.146 441.437 575.868 439.627 576.298C436.019 577.197 432.415 578.271 428.697 578.716C421.323 580.075 413.763 580.164 406.278 579.746C399.421 579.29 392.629 578.005 386.06 576.051L389.867 602.194C389.867 602.196 389.867 602.196 389.867 602.198C389.886 602.335 389.892 602.475 389.884 602.616C389.854 603.074 387.362 648.525 424.749 671.624C428.76 671.932 458.499 673.32 472.324 648.893C473.514 646.791 474.796 644.189 476.151 641.183C467.987 649.108 448.122 659.01 431.105 653.368Z" fill="#371A45"/>
</g>
<g opacity="0.2">
<path d="M388.649 682.446C380.705 671.767 386.942 618.373 386.942 618.373L386.938 618.325C386.05 612.619 385.835 607.977 385.809 605.205C382.334 606.889 375.648 612.571 373.727 631.599C373.352 635.313 372.9 639.125 372.464 642.814C369.522 667.631 366.743 691.071 383.756 698.843C392.378 702.782 401.242 702.375 408.718 697.703C413.197 694.905 416.759 690.751 419.071 685.893C414.358 687.214 395.572 691.753 388.649 682.446Z" fill="#371A45"/>
</g>
<g opacity="0.2">
<path d="M306.735 359.217C306.735 359.217 308.507 359.322 310.947 359.438C330.137 356.985 346.601 353.87 357.303 351.621C355.67 350.15 351.302 347.897 349.19 347.19C347.152 346.51 332.874 346.821 323.9 347.289L323.94 347.346L323.881 347.289C320.245 347.479 317.479 347.696 316.766 347.884C314.289 348.538 306.735 359.217 306.735 359.217Z" fill="#371A45"/>
</g>
<path d="M395.501 707.135C390.816 707.135 386.037 706.086 381.416 703.974C360.662 694.494 363.815 667.885 366.864 642.151C367.298 638.486 367.746 634.696 368.117 631.031C370.324 609.153 378.766 602.152 383.834 599.913L380.986 580.362L353.307 588.88C358.54 594.976 367.001 606.652 367.784 619.186C368.976 638.264 335.159 665.317 320.467 672.662C303.825 680.983 282.816 684.146 273.756 668.074C266.263 654.781 274.682 639.102 278.284 633.449C276.332 630.74 271.247 624.199 258.568 609.83C242.239 591.323 228.524 570.709 238.647 545.399C244.365 531.102 275.108 503.91 306.108 477.284C312.934 471.423 319.41 465.858 321.155 464.021C321.237 463.546 321.34 462.942 321.463 462.238C322.79 454.513 324.126 447.004 325.164 442.482C316.905 441.174 290.946 439.815 247.79 438.437C243.3 438.293 240.787 438.213 239.453 438.156C238.664 438.926 237.318 440.528 236.193 441.861C230.933 448.103 222.985 457.535 213.868 458.157C211.04 458.347 208.54 457.478 206.634 455.64C201.585 450.768 201.929 440.302 202.231 431.067C202.336 427.853 202.436 424.811 202.235 422.89C200.446 421.181 190.596 420.618 184.667 420.28C173.404 419.637 162.765 419.027 158.102 414.043C154.328 410.009 152.507 404.495 152.973 398.518C153.73 388.824 160.324 378.663 171.543 369.902C184.737 359.599 211.162 360.133 241.757 360.749C258.116 361.078 275.034 361.42 290.659 360.034C333.853 356.2 369.651 347.198 370.007 347.108C370.978 346.863 372.008 347.027 372.852 347.568C442.053 391.831 517.144 358.348 517.895 358.004C519.064 357.468 520.436 357.594 521.489 358.335L573.538 394.973L605.175 382.366C608.182 377.15 617.574 361.831 625.761 358.926C633.762 356.084 644.898 361.401 648.994 363.616C655.571 361.776 667.397 361.422 674.223 371.206C682.819 383.526 687.062 412.41 674.151 429.628C663.137 444.311 638.207 451.515 631.962 453.127C613.09 480.225 582.531 488.893 568.837 489.676C559.675 490.193 546.397 486.539 539.295 484.315C539.227 491.421 538.649 503.123 535.733 507.645C532.627 512.46 526.93 514.22 523.552 514.855C518.904 531.294 491.837 625.885 477.24 651.673C463.584 675.795 437.192 677.62 427.41 677.409C426.06 687.763 420.259 697.148 411.714 702.489C406.766 705.578 401.204 707.135 395.501 707.135ZM388.012 606.106C388.014 606.11 377.783 607.427 375.327 631.759C374.951 635.488 374.498 639.309 374.061 643.003C371.191 667.222 368.48 690.099 384.427 697.382C392.54 701.088 400.866 700.72 407.871 696.342C415.394 691.641 420.215 682.889 420.451 673.499C420.477 672.484 420.928 671.524 421.694 670.858C422.462 670.191 423.479 669.872 424.481 669.99C425.787 670.132 456.699 673.24 470.927 648.103C486.159 621.19 516.906 511.709 517.214 510.607C517.629 509.12 518.942 508.061 520.482 507.968C522.339 507.839 527.633 506.826 529.639 503.714C531.408 500.973 532.25 488.946 532.013 479.375C531.984 478.181 532.545 477.048 533.513 476.349C534.482 475.649 535.731 475.47 536.858 475.875C537.058 475.946 557.152 483.091 568.419 482.441C581.067 481.719 609.528 473.575 626.738 447.923C627.25 447.16 628.035 446.617 628.932 446.411C629.217 446.345 657.569 439.652 668.349 425.281C678.795 411.353 675.557 385.79 668.275 375.354C662.183 366.625 650.329 370.776 649.827 370.955C648.806 371.322 647.662 371.219 646.732 370.664C642.05 367.885 632.88 364.091 628.181 365.758C623.507 367.416 615.238 379.197 610.858 387.031C610.453 387.757 609.809 388.322 609.037 388.63L574.397 402.434C573.262 402.888 571.972 402.736 570.97 402.031L518.967 365.429C513.34 367.743 496.042 374.189 472.416 376.755C446.44 379.578 407.76 377.96 370.261 354.507C362.918 356.271 330.029 363.817 291.298 367.254C275.281 368.676 258.165 368.33 241.61 367.997C213.612 367.433 187.165 366.899 176.001 375.616C166.407 383.108 160.795 391.441 160.198 399.083C159.887 403.065 160.991 406.527 163.394 409.095C166.076 411.961 177.061 412.589 185.081 413.049C197.652 413.769 208.506 414.389 209.405 421.814C209.702 424.272 209.597 427.532 209.472 431.309C209.257 437.874 208.934 447.793 211.667 450.43C211.977 450.73 212.393 451 213.376 450.932C219.425 450.521 226.454 442.18 230.653 437.198C234.349 432.812 236.212 430.594 238.987 430.887C239.504 430.927 243.452 431.054 248.022 431.2C329.725 433.81 330.897 435.576 332.517 438.019C333.205 439.057 333.353 440.368 332.907 441.522C331.952 444.009 329.432 458.657 328.605 463.47C328.392 464.713 328.229 465.65 328.143 466.133C327.793 468.065 327.288 468.648 310.83 482.785C289.891 500.771 250.915 534.25 245.376 548.094C238.278 565.839 243.5 581.803 264.003 605.038C282.926 626.484 285.586 631.219 285.928 631.949C286.494 633.158 286.346 634.58 285.548 635.648C285.428 635.811 273.268 652.446 280.073 664.519C288.545 679.553 312.512 668.543 317.228 666.184C332.179 658.708 361.409 633.338 360.553 619.642C359.614 604.618 344.371 589.886 344.217 589.741C343.289 588.852 342.898 587.538 343.194 586.287C343.491 585.035 344.424 584.035 345.654 583.656L382.9 572.196C383.908 571.884 385.005 572.029 385.902 572.595C386.797 573.16 387.398 574.089 387.55 575.135L391.458 601.962C391.612 603.017 391.403 604.082 390.696 604.882C389.989 605.682 389.061 606.14 388.012 606.106Z" fill="#371A45"/>
<path d="M294.938 440.239C294.784 440.239 294.63 440.23 294.472 440.209C292.488 439.954 291.085 438.139 291.34 436.154C298.073 383.701 285.846 366.169 285.721 365.998C284.553 364.393 284.886 362.131 286.479 360.945C288.072 359.759 290.311 360.063 291.513 361.643C292.098 362.411 305.718 381.074 298.529 437.078C298.295 438.905 296.734 440.239 294.938 440.239Z" fill="#371A45"/>
<path d="M285.745 503.429C285.403 503.429 285.055 503.381 284.709 503.277C284.055 503.083 268.666 498.348 266.812 484.728C265.176 472.733 277.305 438.654 278.693 434.808C279.372 432.923 281.451 431.951 283.331 432.63C285.213 433.31 286.188 435.386 285.508 437.268C281.904 447.255 272.808 475.075 273.992 483.749C275.224 492.79 286.663 496.299 286.779 496.333C288.697 496.905 289.787 498.922 289.216 500.84C288.749 502.412 287.306 503.429 285.745 503.429Z" fill="#371A45"/>
<path d="M290.975 367.269C290.501 367.269 290.02 367.176 289.557 366.978C287.715 366.193 286.861 364.066 287.646 362.224C291.682 352.752 301.884 330.472 309.448 328.145C316.608 325.946 346.686 329.603 352.644 330.358C353.604 330.481 354.476 330.981 355.064 331.751C355.138 331.848 362.758 341.683 372.723 347.494C374.451 348.502 375.038 350.72 374.029 352.448C373.021 354.176 370.801 354.759 369.075 353.752C359.93 348.42 352.805 340.404 350.285 337.366C336.121 335.623 315.599 333.836 311.58 335.072C308.659 336.247 300.74 349.988 294.311 365.066C293.725 366.442 292.385 367.269 290.975 367.269Z" fill="#371A45"/>
<path d="M314.187 330.405L323.938 347.348L308.685 335.121C304.389 331.194 310.965 325.558 314.187 330.405Z" fill="#371A45"/>
<path d="M372.067 481.871C371.752 481.871 371.436 481.829 371.126 481.747L323.636 468.983C321.703 468.464 320.558 466.477 321.079 464.544C321.598 462.611 323.583 461.461 325.518 461.987L369.45 473.792C371.601 465.196 374.301 454.258 375.5 449.073C368.307 447.738 347.831 445.501 329.202 443.83C327.208 443.651 325.738 441.891 325.917 439.897C326.096 437.905 327.848 436.445 329.85 436.612C329.977 436.622 342.618 437.76 355.075 439.114C362.418 439.914 368.269 440.633 372.47 441.252C379.703 442.317 383.687 442.904 383.319 446.972C383.138 448.953 377.85 470.121 375.584 479.132C375.348 480.074 374.742 480.882 373.905 481.373C373.341 481.702 372.708 481.871 372.067 481.871Z" fill="#371A45"/>
<path d="M502.84 534.395C485.302 534.395 440.6 526.998 430.944 525.363C420.221 523.548 366.404 514.243 359.814 509.27C349.777 501.69 356.328 478.763 357.744 474.244C358.341 472.334 360.377 471.275 362.283 471.87C364.192 472.467 365.256 474.499 364.661 476.408C361.865 485.363 359.78 500.161 364.182 503.486C367.406 505.678 394.728 511.966 434.833 518.668C475.064 525.394 500.456 527.899 506.069 527.036C507.636 523.134 511.006 509.059 513.812 491.197C517.024 470.747 517.906 455.011 516.119 450.063C514.42 447.383 498.502 440.237 449.392 430.248C415.693 423.395 384.594 418.911 380.463 419.289C378.028 420.462 374.483 432.645 373.075 444.902C372.848 446.89 371.044 448.31 369.062 448.088C367.075 447.86 365.648 446.065 365.876 444.075C365.91 443.788 366.699 436.981 368.4 429.858C371.073 418.658 374.322 413.212 378.935 412.199C383.858 411.11 421.814 417.231 451.171 423.213C518.992 437.034 521.82 444.609 522.885 447.461C528.078 461.375 516.235 524.884 511.768 531.788C510.732 533.387 508.949 533.866 507.696 534.087C506.491 534.298 504.843 534.395 502.84 534.395Z" fill="#371A45"/>
<path d="M535.634 482.914C535.18 482.914 534.72 482.827 534.275 482.648L519.284 476.577C517.429 475.826 516.534 473.714 517.286 471.859C518.037 470.005 520.147 469.11 522.003 469.861L536.995 475.932C538.85 476.683 539.744 478.795 538.993 480.65C538.423 482.059 537.067 482.914 535.634 482.914Z" fill="#371A45"/>
<path d="M387.343 517.066C387.276 517.066 387.208 517.064 387.141 517.062C385.143 516.95 383.613 515.241 383.722 513.243C384.767 494.365 404.367 421.316 405.202 418.217C405.721 416.284 407.705 415.138 409.642 415.659C411.575 416.178 412.72 418.166 412.199 420.099C411.997 420.85 391.96 495.512 390.96 513.644C390.852 515.572 389.253 517.066 387.343 517.066Z" fill="#371A45"/>
<path d="M465.647 530.703C465.506 530.703 465.361 530.695 465.217 530.678C463.229 530.443 461.809 528.641 462.046 526.654C463.424 515.028 464.884 502.047 465.19 498.224C463.156 496.164 456.243 491.083 451.529 487.617C442.083 480.673 437.791 477.404 436.327 475.263C435.24 473.672 433.751 471.49 438.848 447.447C441.224 436.243 443.969 425.387 443.997 425.279C444.488 423.338 446.465 422.169 448.398 422.656C450.337 423.148 451.513 425.119 451.021 427.058C446.392 445.326 441.921 467.103 442.526 471.429C444.153 473.197 451.126 478.324 455.821 481.776C470.623 492.658 472.492 494.394 472.492 497.257C472.492 499.939 469.783 522.926 469.239 527.504C469.023 529.348 467.46 530.703 465.647 530.703Z" fill="#371A45"/>
<path d="M492.799 494.39C482.327 494.39 473.809 485.87 473.809 475.4C473.809 464.93 482.329 456.41 492.799 456.41C503.269 456.41 511.789 464.93 511.789 475.4C511.789 485.872 503.269 494.39 492.799 494.39ZM492.799 463.656C486.323 463.656 481.055 468.924 481.055 475.398C481.055 481.873 486.323 487.142 492.799 487.142C499.275 487.142 504.541 481.873 504.541 475.398C504.541 468.924 499.272 463.656 492.799 463.656Z" fill="#371A45"/>
<path d="M559.272 489.06C559.167 489.06 559.059 489.056 558.952 489.045C557.66 488.931 527.335 486.038 526.721 466.415C526.369 455.135 526.705 417.231 526.719 415.624C526.738 413.623 528.361 412.034 530.376 412.032C532.376 412.051 533.984 413.687 533.967 415.689C533.963 416.081 533.615 455.053 533.965 466.188C534.372 479.198 559.34 481.804 559.593 481.827C561.585 482.006 563.056 483.764 562.878 485.756C562.707 487.64 561.127 489.06 559.272 489.06Z" fill="#371A45"/>
<path d="M605.564 476.843C604.967 476.843 604.363 476.695 603.806 476.385C564.098 454.298 569.215 400.951 569.453 398.691C569.662 396.701 571.439 395.249 573.435 395.465C575.424 395.674 576.868 397.454 576.661 399.444C576.608 399.95 571.837 450.312 607.33 470.053C609.079 471.026 609.708 473.231 608.735 474.98C608.07 476.172 606.836 476.841 605.564 476.843Z" fill="#371A45"/>
<path d="M642.9 398.452C636.758 398.452 629.96 395.368 625.664 392.608C623.98 391.527 623.492 389.284 624.573 387.601C625.655 385.917 627.896 385.429 629.578 386.51C632.39 388.305 643.592 394.066 647.177 389.527C651.218 384.417 647.088 372.795 645.325 369.125C644.457 367.324 645.215 365.159 647.015 364.289C648.814 363.42 650.977 364.173 651.851 365.973C652.752 367.836 660.434 384.442 652.864 394.021C650.31 397.252 646.734 398.452 642.9 398.452Z" fill="#261C1B"/>
<path d="M664.891 423.12C661.097 423.12 656.592 422.667 651.585 421.318C634.831 416.809 636.387 395.235 636.462 394.319C636.623 392.323 638.376 390.839 640.368 391C642.36 391.162 643.843 392.905 643.687 394.897C643.674 395.07 642.552 411.382 653.469 414.322C666.045 417.706 674.808 414.474 674.894 414.44C676.761 413.731 678.852 414.659 679.57 416.52C680.287 418.381 679.378 420.468 677.521 421.194C677.228 421.308 672.474 423.12 664.891 423.12Z" fill="#261C1B"/>
<path d="M265.189 615.512C263.313 615.512 261.727 614.067 261.581 612.166C261.427 610.172 262.921 608.429 264.917 608.275C276.087 607.414 306.336 601.827 312.069 586.538C312.772 584.664 314.858 583.712 316.734 584.417C318.608 585.12 319.557 587.209 318.855 589.082C310.326 611.822 267.297 615.362 265.47 615.502C265.375 615.51 265.282 615.512 265.189 615.512Z" fill="#371A45"/>
<path d="M316.939 591.439C309.45 591.439 302.03 591.262 296.641 590.724C294.649 590.526 293.197 588.749 293.393 586.759C293.592 584.768 295.366 583.331 297.358 583.512C312.582 585.031 346.211 583.514 346.549 583.499C348.526 583.394 350.243 584.953 350.334 586.953C350.425 588.952 348.88 590.648 346.88 590.739C345.962 590.781 331.327 591.439 316.939 591.439Z" fill="#371A45"/>
<path d="M364.167 565.761C388.419 573.703 413.767 576.14 439.036 573.589C442.697 573.321 446.314 572.7 450.118 572.534C448.459 573.405 446.757 574.188 445.037 574.96C420.057 586.023 385.584 583.383 364.167 565.761Z" fill="#371A45"/>
<path d="M424.07 677.215C423.426 677.215 422.776 677.044 422.188 676.685C381.45 651.866 384.119 604.262 384.254 602.247C384.385 600.249 386.1 598.753 388.109 598.871C390.105 599.002 391.616 600.728 391.485 602.724C391.451 603.27 389.078 648.027 425.958 670.499C427.667 671.539 428.208 673.769 427.167 675.479C426.484 676.597 425.292 677.215 424.07 677.215Z" fill="#371A45"/>
<path d="M285.283 630.998C289.954 637.522 298.468 641.771 306.433 638.864C305.568 639.334 304.443 640.153 303.526 640.478C296.959 643.529 289.176 641.738 283.158 638.134C281.911 637.393 280.822 636.68 279.67 635.675C275.503 631.685 282.099 626.178 285.283 630.998Z" fill="#371A45"/>
<path d="M682.359 356.214C682.216 355.567 682.15 353.265 681.908 342.826C681.431 322.153 679.975 259.245 675.829 254.472C674.012 252.556 667.963 251.185 660.711 250.389C660.565 274.726 660.078 325.968 658.527 329.069C657.877 330.367 656.455 331.234 654.294 331.646C653.248 331.846 651.986 331.941 650.631 331.941C646.034 331.941 640.358 330.846 638.317 329.019C637.266 328.08 636.076 327.014 637.077 286.728C637.467 271.048 638.058 255.39 638.277 249.786C633.395 250.086 629.487 250.714 627.771 251.696C625.649 253.73 620.948 274.68 617.245 304.853C613.385 336.296 613.337 355.824 615.247 358.546C616.434 358.922 617.538 358.848 618.61 358.324C621.614 356.866 623.699 352.326 624.25 350.701C624.526 349.88 625.296 349.329 626.162 349.329H639.184H653.075C653.113 349.329 653.148 349.338 653.186 349.34C653.229 349.342 653.271 349.338 653.315 349.344L662.042 350.384C662.838 350.479 663.502 351.036 663.734 351.802C663.747 351.843 664.994 355.919 666.671 358.795C667.167 359.643 670.484 359.118 672.854 358.09C673.44 357.835 674.12 357.873 674.675 358.2C675.23 358.523 675.597 359.092 675.664 359.732C676.74 370.01 679.137 377.144 682.072 378.813C682.638 379.135 683.467 379.42 684.862 378.775C686.75 377.905 687.968 373.673 683.045 358.466C682.693 357.377 682.458 356.655 682.359 356.214Z" fill="#FF64B5"/>
<path d="M654.895 327.246C655.887 322.712 656.503 278.518 656.676 250.014C651.901 249.647 646.871 249.512 642.322 249.617C641.199 277.514 640.003 320.866 641.294 326.225C643.778 327.795 653.254 328.552 654.895 327.246Z" fill="#FF64B5"/>
<path d="M641.157 353.368L639.501 424.526C640.277 427.015 642.845 433.025 646.131 433.025C649.84 433.025 652.672 429.083 653.53 427.739L651.123 353.368H641.157Z" fill="#E09251"/>
<g opacity="0.25">
<path d="M646.521 249.588C646.521 249.588 643.483 317.705 646.521 320.57C649.559 323.436 656.676 323.045 656.676 323.045C656.676 323.045 655.55 327.312 655.159 327.913C654.769 328.514 653.857 329.905 652.034 329.926C650.211 329.947 645.135 329.612 643.44 329.063C641.746 328.514 638.693 327.993 638.722 326.691C638.752 325.389 640.735 249.581 640.735 249.581C640.735 249.581 645.434 247.887 646.521 249.588Z" fill="#261C1B"/>
</g>
<g opacity="0.25">
<path d="M641.157 353.368L639.501 424.526C640.277 427.015 642.845 433.025 646.131 433.025C649.84 433.025 652.672 429.083 653.53 427.739L653.452 425.3C651.695 425.872 648.777 426.319 647.262 423.756C645.004 419.936 646.046 360.029 646.046 359.595C646.046 359.16 651.308 359.071 651.308 359.071L651.123 353.366H641.157V353.368Z" fill="#261C1B"/>
</g>
<g opacity="0.2">
<path d="M667.834 339.887C663.667 337.108 637.967 341.972 631.369 336.241C624.771 330.51 630.154 272.342 628.244 270.954C626.335 269.565 616.401 325.628 616.088 326.17C615.588 327.039 615.164 328.056 614.795 329.173C613.523 346.24 613.89 356.617 615.242 358.546C616.43 358.922 617.534 358.848 618.606 358.324C621.61 356.866 623.695 352.326 624.246 350.701C624.522 349.88 625.292 349.329 626.157 349.329H639.18H653.07C653.108 349.329 653.144 349.338 653.182 349.34C653.224 349.342 653.267 349.338 653.311 349.344L662.038 350.384C662.833 350.479 663.498 351.036 663.73 351.802C663.743 351.843 664.99 355.919 666.667 358.795C667.163 359.643 670.48 359.118 672.849 358.09C673.28 357.902 673.759 357.875 674.204 358.004C674.202 352.505 670.946 341.963 667.834 339.887Z" fill="#371A45"/>
</g>
<g opacity="0.4">
<path d="M651.513 306.549C653.248 312.968 655.613 315.926 655.617 315.93C656.189 299.922 656.552 270.804 656.676 250.014C654.976 249.883 653.243 249.792 651.513 249.721C651.505 249.921 649.779 300.137 651.513 306.549Z" fill="white"/>
</g>
<g opacity="0.4">
<path d="M672.001 262.965C672.695 265.05 674.259 324.085 677.211 333.289C678.899 338.554 680.699 341.938 681.933 343.873C681.925 343.525 681.918 343.192 681.908 342.824C681.431 322.151 679.975 259.243 675.829 254.47C674.012 252.554 667.963 251.183 660.711 250.387C660.694 253.238 660.673 256.468 660.645 259.937C663.443 260.241 671.429 261.25 672.001 262.965Z" fill="white"/>
</g>
<path d="M646.131 438.667C637.904 438.667 634.367 427.11 633.992 425.792C633.893 425.441 633.846 425.078 633.855 424.713L635.564 351.264C635.608 349.298 637.218 347.726 639.187 347.726H653.077C655.033 347.726 656.636 349.277 656.697 351.233L659.187 428.155C659.208 428.803 659.056 429.444 658.744 430.012C658.259 430.896 653.786 438.667 646.131 438.667ZM641.111 424.298C642.124 427.421 644.388 431.419 646.128 431.419C648.544 431.419 650.819 428.86 651.906 427.288L649.566 354.972H642.723L641.111 424.298Z" fill="#371A45"/>
<path d="M683.328 384.809C681.657 384.809 680.285 384.29 679.281 383.718C675.061 381.319 672.149 374.913 670.598 364.65C667.043 365.277 663.574 364.686 661.795 361.639C660.656 359.687 659.719 357.385 659.107 355.716L652.646 354.944C650.659 354.708 649.241 352.904 649.479 350.916C649.718 348.929 651.513 347.504 653.507 347.749L662.232 348.791C663.66 348.962 664.853 349.96 665.27 351.338C665.281 351.374 666.372 354.932 667.845 357.611C668.726 357.7 670.758 357.25 672.212 356.617C673.271 356.157 674.487 356.231 675.481 356.814C676.479 357.396 677.137 358.417 677.257 359.565C678.464 371.075 681.032 376.378 682.864 377.418C683.06 377.53 683.359 377.698 684.187 377.319C684.216 377.306 686.97 375.81 681.515 358.955C681.106 357.687 680.901 357.056 680.794 356.563C680.621 355.788 680.572 354.381 680.306 342.869C679.844 322.855 678.439 262.115 674.578 255.487C669.851 250.978 635.483 249.957 628.923 252.909C626.704 256.418 622.313 276.824 618.867 304.804C615.32 333.608 614.964 352.716 616.403 357.16C616.93 357.217 617.405 357.122 617.899 356.885C620.365 355.697 622.262 351.539 622.733 350.178C623.237 348.715 624.615 347.724 626.162 347.724H639.184C641.185 347.724 642.807 349.346 642.807 351.347C642.807 353.347 641.185 354.969 639.184 354.969H628.569C627.309 357.59 624.881 361.553 621.07 363.401C618.572 364.61 615.831 364.747 613.141 363.789C609.836 362.614 609.028 358.481 608.646 354.187C607.473 341.01 610.254 313.478 612.991 293.904C619.11 250.145 623.37 247.712 624.974 246.794C629.639 244.129 642.695 243.671 652.452 244.091C662.589 244.526 675.582 246.007 679.928 250.592C684.087 254.977 686.081 279.079 687.552 342.7C687.691 348.715 687.811 353.944 687.902 355.107C687.993 355.421 688.215 356.107 688.413 356.721C690.846 364.241 695.912 379.887 687.227 383.896C685.796 384.556 684.49 384.807 683.328 384.809Z" fill="#371A45"/>
<path d="M650.751 333.526C645.934 333.526 639.712 332.424 637.245 330.217C635.564 328.711 634.452 327.717 635.471 286.69C635.954 267.208 636.752 247.748 636.76 247.554C636.842 245.553 638.505 243.996 640.531 244.083C642.529 244.165 644.084 245.853 644.002 247.851C642.645 280.822 641.795 317.825 642.74 325.113C645.181 326.041 651.093 326.689 653.446 326.096C654.368 318.3 654.936 275.003 655.083 248.119C655.094 246.125 656.714 244.515 658.706 244.515C658.713 244.515 658.719 244.515 658.725 244.515C660.728 244.526 662.34 246.157 662.329 248.159C662.329 248.351 662.219 267.628 661.924 287.038C661.31 327.096 660.563 328.59 659.964 329.789C659.08 331.559 657.274 332.713 654.598 333.224C653.539 333.424 652.209 333.526 650.751 333.526Z" fill="#371A45"/>
<path d="M581.191 304.218C570.766 325.031 555.012 343.337 534.723 356.982C530.583 359.763 526.272 362.35 521.776 364.72C519.592 365.88 517.347 366.984 515.066 368.054C508.172 371.242 501.152 373.825 494.054 375.829C487.94 377.57 481.764 378.87 475.583 379.762C468.122 380.842 460.638 381.304 453.207 381.195C450.496 381.146 447.795 381.026 445.105 380.836C395.847 377.253 349.832 348.262 327.212 301.019C293.877 231.433 323.948 148.628 394.353 116.061C407.918 109.798 421.998 105.829 436.12 104.055C437.768 103.831 439.431 103.656 441.093 103.512C445.539 103.103 449.979 102.905 454.403 102.915C464.635 102.945 474.788 104.084 484.669 106.257C494.548 108.42 504.18 111.627 513.361 115.805C516.281 117.132 519.157 118.552 521.989 120.08C526.232 122.372 530.361 124.863 534.37 127.594C554.365 141.127 571.107 159.913 582.208 183.097C601.386 223.122 599.578 267.518 581.191 304.218Z" fill="white"/>
<path d="M455.325 381.606C454.618 381.606 453.91 381.602 453.201 381.591C450.491 381.543 447.759 381.421 445.075 381.231C394.013 377.517 348.713 346.846 326.854 301.188C310.75 267.573 308.803 229.823 321.372 194.892C334.04 159.683 359.901 131.556 394.186 115.698C407.563 109.522 421.656 105.47 436.069 103.658C437.631 103.447 439.31 103.263 441.058 103.116C445.489 102.708 449.964 102.502 454.403 102.516C464.567 102.546 474.777 103.673 484.754 105.867C494.639 108.03 504.317 111.252 513.523 115.442C516.479 116.784 519.391 118.228 522.176 119.73C526.506 122.068 530.684 124.604 534.594 127.267C555.232 141.237 571.821 160.484 582.565 182.926C601.154 221.723 600.782 265.999 581.546 304.399C570.879 325.687 554.765 343.985 534.944 357.316C530.747 360.135 526.38 362.745 521.963 365.076C519.942 366.15 517.741 367.243 515.237 368.419C508.423 371.569 501.334 374.194 494.166 376.215C488.165 377.924 481.932 379.251 475.645 380.159C468.977 381.119 462.153 381.606 455.325 381.606ZM454.066 103.308C449.776 103.308 445.425 103.508 441.129 103.905C439.393 104.053 437.726 104.234 436.173 104.445C421.835 106.247 407.823 110.277 394.519 116.419C360.428 132.189 334.716 160.153 322.119 195.162C309.624 229.891 311.558 267.424 327.569 300.846C349.308 346.249 394.355 376.747 445.132 380.439C447.801 380.627 450.521 380.747 453.213 380.798C460.708 380.908 468.211 380.429 475.526 379.37C481.781 378.466 487.978 377.148 493.945 375.447C501.072 373.436 508.124 370.828 514.897 367.695C517.389 366.526 519.577 365.439 521.588 364.372C525.983 362.055 530.327 359.457 534.499 356.655C554.206 343.403 570.23 325.208 580.834 304.043C599.96 265.864 600.329 221.843 581.847 183.268C571.164 160.953 554.668 141.815 534.144 127.923C530.256 125.275 526.101 122.753 521.795 120.428C519.026 118.934 516.131 117.502 513.192 116.166C504.037 111.999 494.409 108.796 484.578 106.644C474.657 104.462 464.504 103.339 454.397 103.31C454.289 103.308 454.178 103.308 454.066 103.308Z" fill="#371A45"/>
<g opacity="0.2">
<path d="M327.215 301.013C349.83 348.26 395.851 377.255 445.109 380.83C447.801 381.024 450.5 381.144 453.207 381.19C460.64 381.304 468.122 380.836 475.583 379.762C481.764 378.865 487.944 377.57 494.052 375.831C501.157 373.829 508.172 371.246 515.07 368.058C517.347 366.98 519.592 365.882 521.78 364.726C526.276 362.352 530.583 359.757 534.723 356.98C555.012 343.335 570.768 325.033 581.193 304.213C586.924 292.781 591.045 280.592 593.423 268.027C583.014 287.663 567.784 304.918 548.427 317.937C544.291 320.726 539.979 323.309 535.482 325.683C533.303 326.841 531.057 327.94 528.772 329.014C521.875 332.203 514.857 334.785 507.763 336.792C501.644 338.528 495.472 339.826 489.294 340.723C481.833 341.797 474.343 342.263 466.918 342.151C464.202 342.101 461.503 341.98 458.811 341.788C409.553 338.214 363.54 309.22 340.917 261.971C327.713 234.41 324.465 204.778 329.721 177.021C309.953 214.26 307.535 259.941 327.215 301.013Z" fill="#371A45"/>
</g>
<path d="M455.325 384.265C454.604 384.265 453.882 384.261 453.163 384.248C450.398 384.197 447.62 384.075 444.889 383.881C392.874 380.098 346.73 348.851 324.457 302.336C308.043 268.073 306.06 229.598 318.872 193.991C331.783 158.107 358.135 129.444 393.072 113.284C406.7 106.992 421.055 102.865 435.74 101.018C437.321 100.803 439.045 100.617 440.836 100.463C445.332 100.05 449.892 99.8494 454.414 99.8536C464.768 99.8832 475.168 101.033 485.327 103.268C495.392 105.47 505.252 108.752 514.629 113.018C517.638 114.385 520.605 115.854 523.44 117.386C527.85 119.768 532.106 122.35 536.092 125.064C557.116 139.296 574.017 158.906 584.966 181.772C603.912 221.316 603.532 266.442 583.926 305.583C573.055 327.28 556.631 345.93 536.43 359.514C532.157 362.386 527.707 365.047 523.204 367.421C521.151 368.512 518.912 369.624 516.366 370.818C509.411 374.033 502.188 376.707 494.886 378.766C488.777 380.505 482.428 381.857 476.022 382.784C469.232 383.767 462.28 384.265 455.325 384.265ZM454.066 105.966C449.858 105.966 445.59 106.163 441.374 106.551C439.661 106.696 438.038 106.874 436.532 107.078C422.441 108.851 408.692 112.803 395.636 118.831C362.196 134.299 336.975 161.727 324.621 196.061C312.367 230.117 314.268 266.921 329.968 299.698C351.296 344.242 395.498 374.164 445.326 377.789C447.942 377.975 450.616 378.093 453.264 378.142C460.609 378.251 467.973 377.779 475.149 376.741C481.287 375.854 487.368 374.561 493.221 372.894C500.222 370.919 507.139 368.36 513.787 365.285C516.224 364.142 518.374 363.074 520.345 362.027C524.664 359.751 528.924 357.202 533.02 354.45C552.347 341.453 568.061 323.611 578.461 302.853C597.214 265.415 597.577 222.246 579.452 184.418C568.972 162.527 552.79 143.754 532.657 130.126C528.836 127.526 524.761 125.051 520.535 122.77C517.821 121.306 514.981 119.899 512.095 118.588C503.108 114.499 493.66 111.355 484.013 109.243C474.275 107.099 464.31 106 454.393 105.971C454.285 105.966 454.173 105.966 454.066 105.966Z" fill="#371A45"/>
<path d="M455.325 385.149C454.599 385.149 453.874 385.145 453.15 385.132C450.369 385.081 447.573 384.957 444.828 384.763C392.494 380.956 346.067 349.517 323.659 302.715C307.142 268.238 305.148 229.519 318.038 193.69C331.032 157.581 357.546 128.74 392.698 112.478C406.411 106.148 420.852 101.995 435.629 100.138C437.213 99.9233 438.954 99.7355 440.758 99.5814C445.159 99.1763 449.643 98.9695 454.066 98.9695C454.182 98.9695 454.296 98.9695 454.412 98.9695C464.831 98.9991 475.292 100.155 485.515 102.405C495.639 104.622 505.56 107.922 514.992 112.214C518.02 113.59 521.003 115.069 523.858 116.607C528.298 119.004 532.579 121.601 536.588 124.332C557.738 138.65 574.745 158.381 585.763 181.39C604.827 221.183 604.445 266.594 584.717 305.98C573.777 327.814 557.251 346.578 536.923 360.249C532.623 363.137 528.146 365.815 523.618 368.203C521.554 369.301 519.303 370.419 516.743 371.62C509.742 374.856 502.475 377.544 495.128 379.619C488.984 381.37 482.595 382.729 476.149 383.659C469.317 384.651 462.322 385.149 455.325 385.149ZM454.064 106.853C449.884 106.853 445.643 107.049 441.454 107.433C439.749 107.578 438.144 107.753 436.648 107.956C422.639 109.718 408.977 113.647 396.005 119.635C362.783 135.002 337.727 162.251 325.453 196.361C313.28 230.19 315.166 266.753 330.766 299.314C351.956 343.573 395.878 373.303 445.389 376.905C447.989 377.089 450.647 377.207 453.279 377.255C460.575 377.361 467.888 376.895 475.02 375.863C481.12 374.983 487.159 373.696 492.976 372.039C499.935 370.077 506.807 367.532 513.414 364.479C515.834 363.344 517.971 362.283 519.929 361.243C524.223 358.979 528.458 356.447 532.526 353.714C551.727 340.803 567.339 323.075 577.669 302.456C596.301 265.263 596.659 222.379 578.655 184.8C568.24 163.05 552.164 144.398 532.161 130.858C528.365 128.273 524.314 125.815 520.115 123.547C517.418 122.093 514.597 120.694 511.73 119.392C502.8 115.328 493.411 112.203 483.825 110.106C474.149 107.977 464.246 106.882 454.391 106.855C454.283 106.853 454.173 106.853 454.064 106.853Z" fill="#371A45"/>
<path d="M561.184 333.819C480.82 393.504 366.904 356.695 357.147 258.652C350.511 191.949 411.585 134.329 476.93 132.428C524.489 131.044 571.624 150.213 594.307 222.426C594.307 222.426 599.348 255.901 590.986 278.581C582.624 301.262 570.603 321.91 570.603 321.91L561.184 333.819Z" fill="#371A45"/>
<path d="M357.151 258.652C366.904 356.693 480.825 393.5 561.184 333.821L563.091 331.405C472.849 350.45 380.214 299.829 368.48 200.874C359.5 218.349 355.107 238.069 357.151 258.652Z" fill="#220F2D"/>
<path d="M475.951 380.849C442.634 380.849 410.623 370.149 386.01 350.395C358.567 328.371 342.122 297.257 338.452 260.416C335.083 226.563 346.614 192.694 370.921 165.048C397.908 134.358 437.523 115.352 476.896 114.206C498.77 113.567 518.611 116.848 535.87 123.95L536.246 124.104L536.581 124.33C557.741 138.654 574.747 158.385 585.766 181.395C604.829 221.187 604.447 266.598 584.719 305.984C573.779 327.818 557.253 346.582 536.925 360.253C532.625 363.142 528.148 365.819 523.62 368.208C521.556 369.305 519.305 370.423 516.745 371.624C509.744 374.86 502.478 377.549 495.131 379.623L494.527 379.743C488.315 380.482 482.11 380.849 475.951 380.849ZM482.196 122.009C480.519 122.009 478.829 122.034 477.124 122.082C439.897 123.167 402.409 141.174 376.84 170.252C353.991 196.236 343.143 227.981 346.293 259.635C349.749 294.322 365.188 323.579 390.941 344.249C418.388 366.277 455.671 376.367 493.28 371.953C500.129 370.003 506.9 367.49 513.412 364.479C515.832 363.344 517.969 362.283 519.927 361.243C524.221 358.979 528.456 356.446 532.524 353.714C551.725 340.801 567.337 323.077 577.667 302.456C596.299 265.265 596.657 222.381 578.653 184.8C568.297 163.173 552.341 144.607 532.494 131.086C517.689 125.053 500.79 122.009 482.196 122.009Z" fill="#371A45"/>
<path d="M294.402 254.633C293.769 282.063 309.659 305.498 329.903 306.975C350.146 308.45 367.068 287.409 367.703 259.979C367.71 259.809 367.71 259.625 367.708 259.452C368.134 232.25 352.303 209.101 332.203 207.637C316.565 206.495 302.91 218.794 297.21 237.092C295.535 242.479 294.548 248.393 294.402 254.633Z" fill="white"/>
<g opacity="0.2">
<path d="M294.402 254.633C293.769 282.063 309.659 305.498 329.903 306.975C350.146 308.45 367.068 287.409 367.703 259.979C367.71 259.809 367.71 259.625 367.708 259.452C365.416 262.104 361.89 264.624 357.219 263.347C349.038 261.108 334.695 242.393 334.695 242.393C334.695 242.393 318.454 239.987 297.21 237.09C295.535 242.479 294.548 248.393 294.402 254.633Z" fill="#371A45"/>
</g>
<path d="M331.941 310.987C331.169 310.987 330.394 310.959 329.616 310.902C307.345 309.28 289.779 283.995 290.458 254.542C290.851 237.552 297.08 222.354 307.549 212.844C314.852 206.21 323.471 203.047 332.483 203.708C354.756 205.33 372.322 230.615 371.643 260.068C371.25 277.058 365.022 292.256 354.552 301.766C347.88 307.826 340.105 310.987 331.941 310.987ZM298.337 254.723C297.753 280.043 312.042 301.719 330.188 303.042C336.997 303.538 343.584 301.08 349.251 295.932C357.999 287.983 363.424 274.509 363.762 259.884C364.346 234.564 350.057 212.888 331.909 211.565C325.107 211.072 318.513 213.528 312.848 218.676C304.1 226.625 298.675 240.099 298.337 254.723Z" fill="#371A45"/>
<path d="M320.403 300.655C335.669 300.128 347.418 281.546 346.645 259.152C345.872 236.757 332.87 219.03 317.604 219.557C302.338 220.084 290.589 238.666 291.362 261.06C292.135 283.455 305.138 301.182 320.403 300.655Z" fill="white"/>
<g opacity="0.2">
<path d="M318.241 300.599C302.956 299.367 290.921 280.238 291.349 257.863C291.391 255.434 291.591 253.067 291.912 250.78C295.641 266.28 305.583 277.857 317.466 278.805C330.886 279.873 342.377 267.018 345.411 248.919C346.316 253.16 346.768 257.677 346.681 262.328C346.253 284.704 333.517 301.831 318.241 300.599Z" fill="#371A45"/>
</g>
<path d="M319.806 304.604C319.18 304.604 318.551 304.579 317.918 304.528C300.335 303.108 286.93 282.58 287.405 257.791C287.682 243.357 292.908 230.159 301.388 222.487C306.91 217.488 313.377 215.131 320.104 215.674C337.687 217.094 351.091 237.622 350.617 262.41C350.34 276.845 345.114 290.043 336.634 297.717C331.629 302.245 325.847 304.604 319.806 304.604ZM295.286 257.941C294.904 277.885 305.56 295.622 318.553 296.67C323.054 297.037 327.476 295.375 331.344 291.872C338.241 285.631 342.499 274.56 342.736 262.258C343.118 242.315 332.462 224.578 319.469 223.529C314.983 223.164 310.548 224.827 306.678 228.329C299.78 234.571 295.522 245.642 295.286 257.941Z" fill="#371A45"/>
<g opacity="0.5">
<path d="M441.984 162.128C441.984 162.128 497.217 155.767 532.207 189.662C532.243 189.697 532.281 189.733 532.317 189.769C539.675 196.909 551.278 214.319 553.983 224.131C557.559 237.107 558.099 246.56 558.249 254.896C558.692 280.252 554.09 292.195 554.09 292.195C568.478 278.613 576.454 263.298 576.296 242.177C576.275 240.095 576.176 237.949 576.003 235.748C575.965 235.242 575.916 234.74 575.859 234.233C575.87 234.229 575.865 234.216 575.851 234.204C575.182 229.771 574.083 223.974 572.287 217.537C566.885 198.118 555.225 172.851 530.243 161.373C483.532 139.912 439.819 159.508 441.984 162.128Z" fill="white"/>
</g>
<g opacity="0.5">
<path d="M420.217 234.512C423.249 222.937 417.538 211.415 407.462 208.776C397.386 206.136 386.76 213.379 383.728 224.954C380.697 236.528 386.407 248.05 396.483 250.69C406.559 253.329 417.185 246.086 420.217 234.512Z" fill="white"/>
</g>
<g opacity="0.5">
<path d="M399.623 270.58C401.315 265.936 399.411 260.98 395.372 259.508C391.333 258.037 386.687 260.609 384.996 265.253C383.305 269.896 385.208 274.853 389.248 276.324C393.287 277.796 397.932 275.224 399.623 270.58Z" fill="white"/>
</g>
<path d="M627.176 387.729C626.917 387.729 614.588 389.814 612.938 385.993C611.288 382.172 615.527 372.886 620.057 368.368C624.587 363.851 630.476 361.508 632.299 362.116C634.123 362.724 645.063 365.762 645.757 366.197C646.451 366.632 650.359 371.233 650.705 372.449C651.053 373.664 652.007 384.691 651.313 386.166C650.619 387.641 649.403 393.458 645.668 393.112C641.936 392.766 627.176 387.729 627.176 387.729Z" fill="white"/>
<path d="M652.579 368.191C654.562 373.126 658.489 385.202 652.83 392.361C650.578 395.209 647.454 396.214 644.172 396.214C643.875 396.214 643.575 396.193 643.276 396.176C643.358 400.957 644.573 412.596 654.277 415.206C665.104 418.12 673.145 416.337 675.768 415.573C680.182 401.044 676.844 382.408 670.818 373.772C665.551 366.22 656.613 367.248 652.579 368.191Z" fill="white"/>
<g opacity="0.2">
<path d="M627.588 385.033C627.588 385.033 631.061 381.994 633.405 382.516C635.749 383.037 642.609 385.554 646.342 384.166C650.074 382.777 651.534 379.739 651.534 379.739C651.534 379.739 652.908 385.294 651.534 388.768C650.161 392.241 648.078 393.891 644.17 393.542C640.263 393.194 635.055 392.675 634.186 391.633C633.317 390.588 627.588 385.033 627.588 385.033Z" fill="#371A45"/>
</g>
<g opacity="0.2">
<path d="M666.395 400.052C658.586 402.609 651.944 397.543 649.346 395.131C647.749 395.889 645.987 396.212 644.172 396.212C644.071 396.212 643.968 396.203 643.867 396.199C643.66 396.33 643.464 396.458 643.288 396.583C643.43 401.579 644.827 412.663 654.277 415.206C665.104 418.12 673.145 416.337 675.768 415.573C678.251 407.401 678.281 397.929 676.759 389.668C675.109 393.49 672.01 398.214 666.395 400.052Z" fill="#371A45"/>
</g>
<path d="M677.308 421.126C676.901 421.126 676.487 421.057 676.082 420.911C674.198 420.234 673.221 418.16 673.896 416.276C678.903 402.341 675.664 383.524 669.501 374.69C663.411 365.961 651.555 370.109 651.053 370.29C650.032 370.657 648.888 370.554 647.958 369.999C643.278 367.22 634.106 363.426 629.407 365.093C624.733 366.752 616.464 378.532 612.086 386.366C611.109 388.113 608.902 388.736 607.157 387.761C605.41 386.786 604.785 384.579 605.76 382.832C607.741 379.283 618.076 361.424 626.987 358.263C634.988 355.423 646.124 360.738 650.22 362.954C656.803 361.112 668.623 360.761 675.449 370.543C682.619 380.819 686.674 402.162 680.724 418.727C680.186 420.204 678.793 421.126 677.308 421.126Z" fill="#371A45"/>
<path d="M644.124 397.788C637.982 397.788 631.183 394.703 626.887 391.945C625.204 390.865 624.716 388.622 625.797 386.938C626.879 385.254 629.12 384.765 630.801 385.847C633.61 387.641 644.814 393.403 648.403 388.865C652.463 383.727 648.321 372.126 646.55 368.467C645.679 366.665 646.432 364.498 648.234 363.627C650.04 362.758 652.203 363.511 653.075 365.311C653.976 367.174 661.658 383.779 654.087 393.359C651.536 396.587 647.958 397.788 644.124 397.788Z" fill="#371A45"/>
<path d="M666.116 422.456C662.323 422.456 657.818 422.002 652.811 420.654C636.057 416.145 637.612 394.57 637.688 393.652C637.851 391.656 639.606 390.162 641.594 390.333C643.586 390.496 645.069 392.238 644.913 394.23C644.898 394.412 643.78 410.716 654.695 413.655C667.271 417.039 676.036 413.807 676.12 413.773C677.987 413.064 680.078 413.993 680.796 415.854C681.513 417.715 680.604 419.801 678.747 420.527C678.454 420.643 673.7 422.456 666.116 422.456Z" fill="#371A45"/>
</g>
<defs>
<clipPath id="clip0_1_2">
<rect width="844" height="844" fill="white"/>
</clipPath>
</defs>
</svg>
